<svg xmlns="http://www.w3.org/2000/svg" xmlns:xlink="http://www.w3.org/1999/xlink" viewBox="0 0 2560.23 1599.04"><defs><style>.cls-1,.cls-12{fill:#1b3d9e;}.cls-2{fill:#d4dfff;}.cls-3{fill:#fc476a;}.cls-4{fill:#fe8e9c;}.cls-5{fill:#f6f9ff;}.cls-6{fill:#1c056d;}.cls-7{clip-path:url(#clip-path);}.cls-10,.cls-17,.cls-8{fill:#6880e4;}.cls-9{clip-path:url(#clip-path-2);}.cls-10{opacity:0.46;}.cls-11{fill:#fff;}.cls-12{opacity:0.54;}.cls-13{clip-path:url(#clip-path-3);}.cls-14{clip-path:url(#clip-path-4);}.cls-15{fill:#d40221;}.cls-16{clip-path:url(#clip-path-5);}.cls-17{opacity:0.17;}.cls-18{clip-path:url(#clip-path-6);}.cls-19{fill:#e57492;}.cls-20{clip-path:url(#clip-path-7);}.cls-21{clip-path:url(#clip-path-8);}.cls-22{clip-path:url(#clip-path-9);}.cls-23{clip-path:url(#clip-path-10);}.cls-24{clip-path:url(#clip-path-11);}</style><clipPath id="clip-path"><path id="_Clipping_Path_" data-name="&lt;Clipping Path&gt;" class="cls-1" d="M462.27,1582.24s-98.22-331.89-82.4-340.67,403.54-9.13,403.54-9.13-44.46,349.06-56.81,349.8S495,1583.76,462.27,1582.24Z"/></clipPath><clipPath id="clip-path-2"><path id="_Clipping_Path_2" data-name="&lt;Clipping Path&gt;" class="cls-2" d="M688.1,514.27s-4.4,729.65,13.19,731.64,1299.51,10,1310.5,0,15.39-737.63,0-737.63S688.1,514.27,688.1,514.27Z"/></clipPath><clipPath id="clip-path-3"><rect id="_Rectangle_" data-name="&lt;Rectangle&gt;" class="cls-1" x="1955.81" y="1168.64" width="357.03" height="412.98" rx="12.08" ry="12.08"/></clipPath><clipPath id="clip-path-4"><path id="_Clipping_Path_3" data-name="&lt;Clipping Path&gt;" class="cls-3" d="M2050.18,1168.64s-4.74-340,1.58-343.92,54.49-7.9,58.43,1.58,0,342.34,0,342.34Z"/></clipPath><clipPath id="clip-path-5"><path id="_Rectangle_2" data-name="&lt;Rectangle&gt;" class="cls-2" d="M2149.26,674.23h132A3.73,3.73,0,0,1,2285,678v490.67a0,0,0,0,1,0,0H2145.52a0,0,0,0,1,0,0V678A3.73,3.73,0,0,1,2149.26,674.23Z"/></clipPath><clipPath id="clip-path-6"><path id="_Clipping_Path_4" data-name="&lt;Clipping Path&gt;" class="cls-4" d="M964.57,415.94l-53,6.85c-29.17-13.67-57.41-22.52-83.74-19.76s-41.65,30.46-35.12,49.11c5.74,16.4,53.33,33.22,73.86,33.62s51.72-4.34,63.17-14.5l0,0h34.76Z"/></clipPath><clipPath id="clip-path-7"><path id="_Clipping_Path_5" data-name="&lt;Clipping Path&gt;" class="cls-1" d="M911.59,422.8s-17,1.51-20.26,1.59c-11.89.29-23.81.94-23.81.94s-7.41-24-18.3-19.12c-16,7.24,2.29,18.47,2.29,18.47s-28.44-4.74-31.21-4.9,21.29,50.59-4.39,66-54.27,7.29-57.84-32.68,37.37-78.31,75.06-77S911.59,422.8,911.59,422.8Z"/></clipPath><clipPath id="clip-path-8"><path id="_Clipping_Path_6" data-name="&lt;Clipping Path&gt;" class="cls-4" d="M1031.3,787.85s-7.91,10.64-10.53,15.91-3.46,31.6-2.91,31.51,6.4-.4,7.61-3.88l6.47-22.23s.44,23.84-.35,25.53-14.52,29-13.31,29.92,6.41,4,10.46-2.78,13.63-24.47,14.81-27.29-18.76,37.2-18,37.52,5.91,3,7.93.36,19.87-31,20.46-33.3-11.12,27.22-10.51,27.21,2.95,3,6.14-1,13.92-25.66,14.43-26.8.35-14.92.35-14.92,2.67,16.19,2,18.3-5.54,14.37-3.26,14.8c1.73.33,4.74-3,7.11-7.34s5.38-10.85,5.15-17-11.61-40.77-11.61-40.77Z"/></clipPath><clipPath id="clip-path-9"><path id="_Clipping_Path_7" data-name="&lt;Clipping Path&gt;" class="cls-1" d="M1866.81,422.92S1527.45,395.08,1457,380.28s-129.19,17.36-129.19,17.36v72.14s182.37,155.37,264.14,157.42,252.82-43.61,254.19-51.11,0-51.79-6.81-54.52-233.06,23.17-237.15,18.4c-2.66-3.1-41-41.56-74.58-70.19h339.25Z"/></clipPath><clipPath id="clip-path-10"><path id="_Clipping_Path_8" data-name="&lt;Clipping Path&gt;" class="cls-1" d="M1874.3,524.8s5.8-9.26,16.65-10.77,14.37,0,14.37,0,29.12,78.9,23.83,80.57-17.23,1.95-20.85-1.39-31-41.48-31-41.48S1879,531.1,1874.3,524.8Z"/></clipPath><clipPath id="clip-path-11"><path id="_Clipping_Path_9" data-name="&lt;Clipping Path&gt;" class="cls-1" d="M1899.59,444.84a18,18,0,0,1,15.48-10.55c11.54-.63,38.53,13.73,40.93,14.74s34.91,9.76,35.48,10c7,3.52.76,11.82.76,11.82l-90.53-1.07Z"/></clipPath></defs><title>7404asset</title><g id="Layer_2" data-name="Layer 2"><g id="Layer_1-2" data-name="Layer 1"><path class="cls-5" d="M823.71,1404.52c-108.75-32.29-213.43-74.26-304.1-132.1C128,1022.55,214.06,443.78,521.39,162.55,617.76,74.37,742.61,12.83,873.73,1.93c146.75-12.21,300.38,33.84,410.83,132.48C1384.92,224,1443.86,347,1574.41,400.11c151.41,61.6,319.33,37.47,478,55.72,311.94,35.87,515.8,309.2,446.9,621.1-79.85,361.47-412.11,441.93-734.16,454.52-186.72,7.3-373.44-11.43-557.28-43.18C1085,1467,951.52,1442.46,823.71,1404.52Z"/><path class="cls-2" d="M461.14,968.35a59.6,59.6,0,0,1-98.24-35.72c-3.8-24.71,6.71-54.4-10.75-72.28-8.77-9-22.72-12.07-30.16-22.19-6.24-8.5-6.38-19.87-6.26-30.42l.62-56.17c-8.33-10.39-25.14-9.77-35.09-18.62s-12-23.07-13.74-36.12a1080.84,1080.84,0,0,0-21.85-114.64c29.2,8.58,58.11,17.89,85.79,30.54,15.45,7.06,31.6,15.68,39.35,30.8s5.3,33.34,5.07,50.43c-.08,5.52.14,11.22,2.48,16.23,6,12.9,22.56,15.86,34.9,23A50.76,50.76,0,0,1,438,771.2c1.48,14.19-3.13,28.67-.45,42.68,5.94,31.07,43.17,45.41,58,73.32C511.15,916.39,486,946.53,461.14,968.35Z"/><path class="cls-6" d="M537.76,1246a1.06,1.06,0,0,1-1-.88c-5.86-33.92-26.33-125.61-61.89-229.89-26.1-76.53-56.33-148.86-89.83-215-41.88-82.64-89-155.77-140.15-217.35a1.06,1.06,0,0,1,1.64-1.36c51.22,61.71,98.47,135,140.42,217.77,33.55,66.22,63.82,138.65,90,215.28,35.6,104.39,56.1,196.21,62,230.17a1.06,1.06,0,0,1-.87,1.23Z"/><path class="cls-2" d="M0,880.77c10,8.07,14.29,21.1,19.39,32.92s12.88,24.18,25.4,27.21c13.57,3.29,27.83-5.68,41.46-2.63,11,2.47,18.86,12.17,24.69,21.86s10.9,20.34,19.91,27.18c14,10.62,33.4,9.24,50.79,6.84s36.33-5.06,51.5,3.78c18.46,10.76,25.34,35.25,43.66,46.23,7.8,4.67,17,6.44,26.06,7.11A123.71,123.71,0,0,0,380,1031c-1.3-24.63-9.86-51.25-25.34-70.45S315.93,928,291.3,926.71c-7.86-.42-15.8.35-23.56-.95-32.61-5.43-49.56-43.29-79.78-56.7a58.85,58.85,0,0,0-41.16-2.3c-13.11,4.14-24.81,12.92-38.48,14.37-13.36,1.42-26.25-4.37-39.18-8C44.33,866.16,24.23,872,0,880.77Z"/><path class="cls-6" d="M528.62,1237.25a1.06,1.06,0,0,1-1-.8c-15.52-60.69-50.27-118.84-100.47-168.16C384,1025.9,328.57,989.21,262.44,959.22c-71.15-32.27-153.23-56.74-258.31-77a1.06,1.06,0,0,1,.4-2.09c105.25,20.3,187.48,44.81,258.79,77.15,66.35,30.09,122,66.93,165.28,109.49,50.48,49.6,85.42,108.09,101,169.15a1.06,1.06,0,0,1-.77,1.29A1,1,0,0,1,528.62,1237.25Z"/><path class="cls-2" d="M570.43,879.69a54.25,54.25,0,0,1-64.53-52.44c-.18-12,3.6-23.67,7.72-34.94,1.41-3.85,2.89-7.88,2.38-12-.41-3.23-2-6.17-3.81-8.9-6.68-10.26-16-19.18-19.5-30.91-6.25-20.82,7.65-43.23,3.3-64.52-1.52-7.42-5.18-14.2-7.79-21.31-9.19-25-4.38-54.72,12.25-75.57,23.41,9.39,38.68,34.35,38.91,59.57.12,12.57-3.34,25.89,2,37.27,3.2,6.8,9.11,11.85,14.66,16.93,9.71,8.89,19.08,19.08,22.51,31.79,5.39,20-4.93,42,1.76,61.58,6.64,19.42,28.28,31,34.15,50.64a44.55,44.55,0,0,1,1.46,16.34c-.68,8.43-3.46,17.13-9.81,22.72C596.22,884.68,583.36,877.19,570.43,879.69Z"/><path class="cls-6" d="M579.23,1242.48a1.06,1.06,0,0,1-1.06-1c-4.59-54-3.33-109.18-2.11-162.59,1.68-73.88,3.43-150.27-10.39-223.9-7.14-38.08-18.57-76-29.61-112.61-15.37-51-31.26-103.68-35.8-157.56a1.06,1.06,0,1,1,2.12-.18c4.52,53.66,20.38,106.26,35.72,157.13,11.06,36.69,22.5,74.64,29.67,112.83C581.61,928.48,579.87,1005,578.18,1079c-1.22,53.35-2.47,108.52,2.11,162.36a1.06,1.06,0,0,1-1,1.15Z"/><path id="_Clipping_Path_10" data-name="&lt;Clipping Path&gt;" class="cls-1" d="M462.27,1582.24s-98.22-331.89-82.4-340.67,403.54-9.13,403.54-9.13-44.46,349.06-56.81,349.8S495,1583.76,462.27,1582.24Z"/><g class="cls-7"><path class="cls-6" d="M558,1206.76s-113.43,144.91-107,148.78,325.08,69.6,324.95,65.74,32.4-188.84,32.4-188.84Z"/></g><rect class="cls-1" x="1212.62" y="1297.19" width="277.43" height="235.77"/><rect class="cls-6" x="1107" y="1532.96" width="495.37" height="50.15" rx="20.85" ry="20.85"/><path class="cls-8" d="M654.27,475a3.47,3.47,0,0,1,3.09-1.91c56-.38,1341.22-8.93,1398.16,0,22.45,3.53,16.87,858.08,0,890.73-12.4,24-1384.11,2.9-1400,0C635.83,1360.21,626.1,531.09,654.27,475Z"/><path id="_Clipping_Path_11" data-name="&lt;Clipping Path&gt;" class="cls-2" d="M688.1,514.27s-4.4,729.65,13.19,731.64,1299.51,10,1310.5,0,15.39-737.63,0-737.63S688.1,514.27,688.1,514.27Z"/><g class="cls-9"><polygon class="cls-10" points="1530.03 491.73 1031.84 1265.21 663.59 1265.21 688.1 514.26 1530.03 491.73"/><polygon class="cls-10" points="1145.57 1271.52 1624.4 487.58 1834.52 487.58 1373.2 1267.42 1145.57 1271.52"/><polygon class="cls-10" points="1923.39 490.49 1459.79 1272.19 1746.97 1268.56 2055.37 700.94 2049.15 495.43 1923.39 490.49"/></g><circle class="cls-1" cx="1351.33" cy="1319.34" r="33.72"/><path class="cls-11" d="M1033.32,829.52q2.48-11.57,9.72-17.58a25.42,25.42,0,0,1,15.92-6.2,27.66,27.66,0,0,1,16.54,5.17q7.85,5.38,11.17,16.54.41,26.89.41,53.14t.83,52.73q18.19,0,35.36-.41t32.88-.41q11.17,3.32,16.54,10.55a23.92,23.92,0,0,1,5.17,15.09,22.07,22.07,0,0,1-6.2,14.47q-6,6.62-17.58,9.1-16.13,0-32.26.21t-32.26-.21q.82,20.68,1,44.87t.62,44.87q-.83,13.65-8.89,20.26a27.65,27.65,0,0,1-18,6.62q-9.92,0-18.82-6.82T1035,1071.44q-.42-21.09.62-44.45t.21-44.46q-17.78-.41-38.25-1.86a247.45,247.45,0,0,1-39.7-6,155.38,155.38,0,0,1-35.36-12.82,72.45,72.45,0,0,1-26.05-21.92,55.06,55.06,0,0,1-10.34-27.71,90.14,90.14,0,0,1,2.89-30.6,157.6,157.6,0,0,1,12.41-31.84,341.92,341.92,0,0,1,18-31q9.71-14.89,19.44-27.91t17.16-23q16.53-22.33,33.91-43.42t34.74-42.59q9.09-7.44,18.82-7.65A27.28,27.28,0,0,1,1060.2,679a25.43,25.43,0,0,1,9.72,14.06q2.68,9.1-1.45,20.26-14.06,17.37-33.08,39.49T998,799.12a553.22,553.22,0,0,0-33.5,49.21q-15.1,25-21.3,48.59-2.48,8.28,1.86,14.27t12.82,9.92a96.24,96.24,0,0,0,19.64,6.41,211.68,211.68,0,0,0,22.12,3.72q11,1.24,20.26,1.86t14.27,1q-.83-26.05-.83-52.31Z"/><path class="cls-11" d="M1233.89,1020.16q-5.38-17.78-10.75-44.46a518.68,518.68,0,0,1-8.06-57.69,568.09,568.09,0,0,1-1.86-63.68,336.15,336.15,0,0,1,7.24-62.44,202.11,202.11,0,0,1,19.64-54.17q13.23-24.4,35.15-38.46a194.92,194.92,0,0,1,56.24-24.81,182.87,182.87,0,0,1,56.65-5.79,166,166,0,0,1,52.73,11.79,143.32,143.32,0,0,1,43.83,27.5,132.18,132.18,0,0,1,30.19,41.77q11.37,24.4,12.2,54.59.41,28.53,2.07,61t.21,65.13a348.19,348.19,0,0,1-8.48,63.06,166.48,166.48,0,0,1-23.16,54.79,103.29,103.29,0,0,1-36.6,33.5,165.57,165.57,0,0,1-49.62,18,196.15,196.15,0,0,1-54.79,2.69,178.73,178.73,0,0,1-52.73-12.61,144.42,144.42,0,0,1-43.42-27.5A95.63,95.63,0,0,1,1233.89,1020.16Zm69.06-273.35q-10.76,8.28-19.23,24.19a83.3,83.3,0,0,0-9.72,33.7q-1.66,24.81-3.31,50.24t-1.24,50.24a356,356,0,0,0,4.14,48.8,176.2,176.2,0,0,0,13.65,45.9,62.92,62.92,0,0,0,18.4,24.4,91.4,91.4,0,0,0,27.29,15.3,106.44,106.44,0,0,0,32,6,120.35,120.35,0,0,0,33.08-3.31,106.63,106.63,0,0,0,30.4-12.61,83,83,0,0,0,24.19-22.33q7-8.68,11.37-24.19a214.78,214.78,0,0,0,6.41-34.53q2.06-19,2.48-39.29t0-38.46q-.42-18.19-.83-32.46t-.41-20.88a94.37,94.37,0,0,0-88.7-96.77,110,110,0,0,0-39.29,5Q1323.21,731.92,1302.95,746.81Z"/><path class="cls-11" d="M1722.27,829.52q2.48-11.57,9.72-17.58a25.42,25.42,0,0,1,15.92-6.2,27.66,27.66,0,0,1,16.54,5.17q7.85,5.38,11.17,16.54.41,26.89.41,53.14t.83,52.73q18.19,0,35.36-.41t32.88-.41q11.17,3.32,16.54,10.55a23.92,23.92,0,0,1,5.17,15.09,22.07,22.07,0,0,1-6.2,14.47q-6,6.62-17.58,9.1-16.13,0-32.26.21t-32.26-.21q.82,20.68,1,44.87t.62,44.87q-.83,13.65-8.89,20.26a27.65,27.65,0,0,1-18,6.62q-9.92,0-18.82-6.82t-10.55-20.06q-.42-21.09.62-44.45t.21-44.46q-17.78-.41-38.25-1.86a247.45,247.45,0,0,1-39.7-6,155.38,155.38,0,0,1-35.36-12.82,72.45,72.45,0,0,1-26.05-21.92,55.06,55.06,0,0,1-10.34-27.71,90.14,90.14,0,0,1,2.89-30.6,157.61,157.61,0,0,1,12.41-31.84,342,342,0,0,1,18-31q9.71-14.89,19.44-27.91t17.16-23q16.53-22.33,33.91-43.42t34.74-42.59q9.09-7.44,18.82-7.65a27.28,27.28,0,0,1,16.75,4.76,25.43,25.43,0,0,1,9.72,14.06q2.68,9.1-1.45,20.26-14.06,17.37-33.08,39.49t-37.43,46.32a553.22,553.22,0,0,0-33.5,49.21q-15.1,25-21.3,48.59-2.48,8.28,1.86,14.27t12.82,9.92a96.24,96.24,0,0,0,19.64,6.41,211.67,211.67,0,0,0,22.12,3.72q11,1.24,20.26,1.86t14.27,1q-.83-26.05-.83-52.31Z"/><path class="cls-12" d="M952.66,1369.46,820.07,996.7l33.67,5.41a5.31,5.31,0,0,1,4.15,3.43l132.69,364.28a.12.12,0,0,1-.12.17Z"/><path class="cls-3" d="M526.4,1385.29c5.6-1,280.68-391.45,293.66-388.59s164.14,461.73,158.52,460.84S512.49,1387.76,526.4,1385.29Z"/><path class="cls-11" d="M777.3,1322.14a15.71,15.71,0,0,1-6.51,3.72,11.59,11.59,0,0,1-6.33-.06,12.71,12.71,0,0,1-5.48-3.41,16,16,0,0,1-3.72-6.51q2-24.61,3.08-50t2.74-50.48q1.66-25.09,4.79-49.41a346.74,346.74,0,0,1,9.23-46.81q.5-1.82,3.37-3.27a23.06,23.06,0,0,1,7-2.06,51,51,0,0,1,9-.48,47.51,47.51,0,0,1,9.32,1.16,28.3,28.3,0,0,1,8,3.06,12.56,12.56,0,0,1,5.08,5.24q2.6,3.58,3.11,12.33a164.15,164.15,0,0,1-.39,21.06q-.9,12.32-3.29,27.36t-5.65,30.9q-3.26,15.86-7.17,31.82t-8.28,30.16q-4.37,14.2-8.76,25.86a133.73,133.73,0,0,1-8.48,18.83A3.65,3.65,0,0,1,777.3,1322.14Zm-28.48,62.23a29.07,29.07,0,0,1-7.28-8,21.38,21.38,0,0,1-3.17-9.27,16.1,16.1,0,0,1,2-9.19,20.76,20.76,0,0,1,8-7.81q7.72-4.69,15.46-3.57t11.92,9.39a30.47,30.47,0,0,1,3.77,15.49q-.16,8.32-7.25,14.38a14.15,14.15,0,0,1-11.7,3.85A22.15,22.15,0,0,1,748.82,1384.38Z"/><rect id="_Rectangle_3" data-name="&lt;Rectangle&gt;" class="cls-1" x="1955.81" y="1168.64" width="357.03" height="412.98" rx="12.08" ry="12.08"/><g class="cls-13"><path class="cls-6" d="M2322.89,1227.12S2183.05,1424,1930,1478.51V1599h401.74S2342.2,1234.17,2322.89,1227.12Z"/></g><path id="_Clipping_Path_12" data-name="&lt;Clipping Path&gt;" class="cls-3" d="M2050.18,1168.64s-4.74-340,1.58-343.92,54.49-7.9,58.43,1.58,0,342.34,0,342.34Z"/><g class="cls-14"><polygon class="cls-15" points="2091.49 873.21 2091.49 1175.35 2068.94 1175.35 2068.94 873.82 2091.49 873.21"/><path class="cls-2" d="M2039.11,886.27s70.09-5.32,79.86-.43c0,0-.49-69.86-4.4-71.32s-70.83-1.84-72.3,5.92S2039.11,886.27,2039.11,886.27Z"/></g><path id="_Rectangle_4" data-name="&lt;Rectangle&gt;" class="cls-2" d="M2149.26,674.23h132A3.73,3.73,0,0,1,2285,678v490.67a0,0,0,0,1,0,0H2145.52a0,0,0,0,1,0,0V678A3.73,3.73,0,0,1,2149.26,674.23Z"/><g class="cls-16"><rect class="cls-10" x="2134.33" y="656.16" width="47.85" height="530.48"/><rect class="cls-8" x="2145.52" y="712.16" width="17.57" height="6.12"/><rect class="cls-8" x="2145.52" y="740.34" width="17.57" height="6.12"/><rect class="cls-8" x="2145.52" y="768.52" width="17.57" height="6.12"/><rect class="cls-8" x="2145.52" y="796.71" width="17.57" height="6.12"/><rect class="cls-8" x="2145.52" y="824.89" width="17.57" height="6.12"/><rect class="cls-8" x="2145.52" y="853.08" width="17.57" height="6.12"/><rect class="cls-8" x="2145.52" y="881.26" width="17.57" height="6.12"/><rect class="cls-8" x="2145.52" y="909.44" width="17.57" height="6.12"/><rect class="cls-8" x="2145.52" y="937.63" width="17.57" height="6.12"/><rect class="cls-8" x="2145.52" y="965.81" width="17.57" height="6.12"/><rect class="cls-8" x="2145.52" y="993.99" width="17.57" height="6.12"/><rect class="cls-8" x="2145.52" y="1022.18" width="17.57" height="6.12"/><rect class="cls-8" x="2145.52" y="1050.36" width="17.57" height="6.12"/><rect class="cls-8" x="2145.52" y="1078.55" width="17.57" height="6.12"/><rect class="cls-8" x="2145.52" y="1106.73" width="17.57" height="6.12"/><rect class="cls-8" x="2145.52" y="1134.91" width="17.57" height="6.12"/><path class="cls-17" d="M2254.83,655.57c-38.7,33.16-52.28,92.46-31.85,139.15,9.72,22.22,26.34,42,29.46,66.09,3,23.33-7.24,46-15.36,68.12-8,21.76-14.16,44.76-12.53,67.89,2.66,37.83,25.86,73.22,22.07,110.95-3.64,36.24-31.83,67.79-30.2,104.18.46,0-.49,1.6,0,1.6H2307l0-560.3,11.15.11Z"/></g><path class="cls-6" d="M2556,1587.36H266.47a4.25,4.25,0,0,1,0-8.5H2556a4.25,4.25,0,0,1,0,8.5Z"/><path id="_Clipping_Path_13" data-name="&lt;Clipping Path&gt;" class="cls-4" d="M964.57,415.94l-53,6.85c-29.17-13.67-57.41-22.52-83.74-19.76s-41.65,30.46-35.12,49.11c5.74,16.4,53.33,33.22,73.86,33.62s51.72-4.34,63.17-14.5l0,0h34.76Z"/><g class="cls-18"><path class="cls-19" d="M848.16,488.28s10.19-19.92,9.73-35.22-21.48-39.12-21.48-39.12l-17.44.89s5.69,55.84.64,65.68h0Z"/></g><path class="cls-19" d="M929.76,471.25s10.49-16.11-13.89-32.37c0,0,21.75,3.52,29.22,18S951,471.63,951,471.63Z"/><path id="_Clipping_Path_14" data-name="&lt;Clipping Path&gt;" class="cls-1" d="M911.59,422.8s-17,1.51-20.26,1.59c-11.89.29-23.81.94-23.81.94s-7.41-24-18.3-19.12c-16,7.24,2.29,18.47,2.29,18.47s-28.44-4.74-31.21-4.9,21.29,50.59-4.39,66-54.27,7.29-57.84-32.68,37.37-78.31,75.06-77S911.59,422.8,911.59,422.8Z"/><g class="cls-20"><path class="cls-6" d="M794.08,493.08s19.54-16.37,18.58-34.46-6.8-46.42-3.93-48.3,33,10.13,33,10.13-5.54-8.13,4.11-12.29h0s15.3,16.75,14.22,18.5-36.23-1.76-36.23-1.76,13.79,33.86,3.92,53.87-33.63,14.3-33.63,14.3"/></g><path class="cls-5" d="M910.48,471.63s-8.09-2.32-8.09-16.37v-1.4S910.61,468.8,910.48,471.63Z"/><path class="cls-19" d="M844.7,454.49S877,472,880,470.18s-2.45-21.55-2.45-21.55,3.49-.23,4.31,2.91,5.36,21.66,0,22S849.94,460.82,844.7,454.49Z"/><path id="_Clipping_Path_15" data-name="&lt;Clipping Path&gt;" class="cls-4" d="M1031.3,787.85s-7.91,10.64-10.53,15.91-3.46,31.6-2.91,31.51,6.4-.4,7.61-3.88l6.47-22.23s.44,23.84-.35,25.53-14.52,29-13.31,29.92,6.41,4,10.46-2.78,13.63-24.47,14.81-27.29-18.76,37.2-18,37.52,5.91,3,7.93.36,19.87-31,20.46-33.3-11.12,27.22-10.51,27.21,2.95,3,6.14-1,13.92-25.66,14.43-26.8.35-14.92.35-14.92,2.67,16.19,2,18.3-5.54,14.37-3.26,14.8c1.73.33,4.74-3,7.11-7.34s5.38-10.85,5.15-17-11.61-40.77-11.61-40.77Z"/><g class="cls-21"><path class="cls-19" d="M1014.81,813c.5,1.8,24.75-11.65,57.79-6.49,0,0-4.45-20.06-8-21.87s-32-1.8-36.28.24S1012.52,804.7,1014.81,813Z"/></g><path class="cls-3" d="M1327.78,393a4.38,4.38,0,0,0-3.61-4.31l-171.89-30.91c-144.19-12.33-187.71,51.49-187.71,51.49v62l16.87-.07c12.49,36.47,48,141,51.64,160,4.4,23.08-24,162.06-21,163.9s66.62,9.68,72.5,8.7,35.27-154,33.31-172.54c-1.5-14.2-5.9-111.6-16.72-160.52l226.64-.9Z"/><path class="cls-15" d="M1101.14,470.69s-4.29-22.73-23.36-38.5c0,0,101.89,20.38,131.47,22.35s118.53-5.85,118.53-5.85v21.1Z"/><path class="cls-19" d="M1838.9,531.87s35.83-8.51,36.72-6.87,6,18.06,4,24-37.17,18.81-37.17,18.81Z"/><path id="_Clipping_Path_16" data-name="&lt;Clipping Path&gt;" class="cls-1" d="M1866.81,422.92S1527.45,395.08,1457,380.28s-129.19,17.36-129.19,17.36v72.14s182.37,155.37,264.14,157.42,252.82-43.61,254.19-51.11,0-51.79-6.81-54.52-233.06,23.17-237.15,18.4c-2.66-3.1-41-41.56-74.58-70.19h339.25Z"/><g class="cls-22"><path class="cls-6" d="M1608.59,586.26a27.22,27.22,0,0,1-2.92-.13l-.58-.08a1.59,1.59,0,0,1,.55-3.14l.38.06a36,36,0,0,0,4.6.07,1.59,1.59,0,1,1,.1,3.19Q1609.56,586.26,1608.59,586.26Zm7.41-.32a1.59,1.59,0,0,1-.11-3.18c1.62-.11,3.38-.26,5.29-.43a1.59,1.59,0,1,1,.28,3.18c-1.93.17-3.71.32-5.35.43Zm10.63-.93a1.59,1.59,0,0,1-.16-3.18l5.29-.56a1.59,1.59,0,0,1,.35,3.17l-5.31.56Zm-26.31-.6a1.59,1.59,0,0,1-.62-.13c-1.44-.61-3.1-1.38-4.93-2.3a1.59,1.59,0,0,1,1.43-2.85c1.77.89,3.37,1.63,4.75,2.22a1.59,1.59,0,0,1-.62,3.06Zm36.91-.55a1.59,1.59,0,0,1-.18-3.18l5.28-.62a1.59,1.59,0,1,1,.38,3.17l-5.3.62Zm10.58-1.27a1.59,1.59,0,0,1-.19-3.18l5.28-.66a1.59,1.59,0,0,1,.4,3.16l-5.29.66Zm10.56-1.34a1.59,1.59,0,0,1-.2-3.18l5.28-.69a1.59,1.59,0,0,1,.42,3.16l-5.28.69Zm10.56-1.4a1.59,1.59,0,0,1-.21-3.17L1674,576a1.59,1.59,0,1,1,.43,3.16l-5.28.71Zm-78.17-.18a1.59,1.59,0,0,1-.76-.19q-2.23-1.21-4.69-2.61a1.59,1.59,0,1,1,1.58-2.77q2.43,1.38,4.63,2.58a1.59,1.59,0,0,1-.76,3Zm88.72-1.26a1.59,1.59,0,0,1-.22-3.17l5.27-.73a1.59,1.59,0,0,1,.44,3.16l-5.27.73Zm10.54-1.47a1.59,1.59,0,0,1-.22-3.17l5.27-.75a1.59,1.59,0,0,1,.45,3.16l-5.27.75Zm10.54-1.5a1.59,1.59,0,0,1-.22-3.17l5.26-.76a1.59,1.59,0,1,1,.46,3.16l-5.27.76Zm-119.07-1a1.58,1.58,0,0,1-.81-.22q-2.22-1.31-4.59-2.74a1.59,1.59,0,1,1,1.65-2.73q2.35,1.42,4.56,2.72a1.59,1.59,0,0,1-.81,3Zm129.6-.49a1.59,1.59,0,0,1-.23-3.17l5.26-.77a1.59,1.59,0,0,1,.46,3.15l-5.27.77Zm10.53-1.54a1.59,1.59,0,0,1-.23-3.17l5.26-.78a1.59,1.59,0,1,1,.47,3.15l-5.27.78Zm10.55-1.56a1.59,1.59,0,0,1-.23-3.17l5.27-.79a1.59,1.59,0,1,1,.47,3.15l-5.27.79Zm10.52-1.58a1.59,1.59,0,0,1-.23-3.17l5.26-.79a1.59,1.59,0,1,1,.48,3.15l-5.26.79Zm-170.33-.33a1.59,1.59,0,0,1-.83-.24l-4.53-2.81a1.59,1.59,0,0,1,1.69-2.7l4.52,2.8a1.59,1.59,0,0,1-.84,3Zm180.85-1.26a1.59,1.59,0,0,1-.24-3.17l5.26-.8a1.59,1.59,0,0,1,.48,3.15l-5.26.8Zm10.52-1.6a1.59,1.59,0,0,1-.24-3.17l5.26-.81a1.59,1.59,0,1,1,.48,3.15L1764,566Zm10.52-1.62a1.59,1.59,0,0,1-.24-3.17l5.26-.81a1.59,1.59,0,0,1,.49,3.15l-5.26.81Zm-210.93-1.17a1.59,1.59,0,0,1-.85-.25l-4.5-2.86a1.59,1.59,0,1,1,1.72-2.69l4.48,2.85a1.59,1.59,0,0,1-.85,2.94Zm221.45-.46a1.59,1.59,0,0,1-.24-3.17l5.26-.82a1.59,1.59,0,0,1,.49,3.15l-5.26.82Zm10.52-1.64A1.59,1.59,0,0,1,1795,558l5.26-.82a1.59,1.59,0,0,1,.49,3.15l-5.26.82Zm10.52-1.65a1.59,1.59,0,0,1-.25-3.17l5.26-.83a1.59,1.59,0,1,1,.5,3.15l-5.26.83Zm10.52-1.66a1.59,1.59,0,0,1-.25-3.17l5.26-.83a1.59,1.59,0,0,1,.5,3.15l-5.26.83Zm-262-.34a1.59,1.59,0,0,1-.86-.26l-4.47-2.9a1.59,1.59,0,1,1,1.74-2.67l4.46,2.89a1.59,1.59,0,0,1-.87,2.93Zm272.5-1.33a1.59,1.59,0,0,1-.25-3.17l5.26-.84a1.59,1.59,0,0,1,.5,3.15l-5.27.84Zm10.53-1.68a1.59,1.59,0,0,1-.25-3.17l5.27-.84a1.59,1.59,0,1,1,.5,3.15l-5.27.84Zm10.55-1.69a1.59,1.59,0,0,1-.25-3.17l5.32-.86a1.59,1.59,0,0,1,.51,3.15l-5.32.86Zm-302.51-1.11a1.59,1.59,0,0,1-.87-.26l-4.45-2.93a1.59,1.59,0,0,1,1.76-2.66l4.44,2.92a1.59,1.59,0,0,1-.88,2.93Zm-8.88-5.87a1.58,1.58,0,0,1-.88-.27l-4.43-3A1.59,1.59,0,0,1,1533,540l4.42,2.95a1.59,1.59,0,0,1-.88,2.92Zm-8.85-5.91a1.59,1.59,0,0,1-.89-.27l-4.42-3a1.59,1.59,0,1,1,1.78-2.64l4.41,3a1.59,1.59,0,0,1-.89,2.92Zm-8.82-5.95a1.59,1.59,0,0,1-.89-.27l-4.41-3a1.59,1.59,0,0,1,1.79-2.64l4.4,3a1.59,1.59,0,0,1-.89,2.91Zm-8.8-6a1.59,1.59,0,0,1-.9-.28l-4.39-3a1.59,1.59,0,0,1,1.8-2.63l4.38,3a1.59,1.59,0,0,1-.9,2.91Zm-8.78-6a1.58,1.58,0,0,1-.9-.28l-4.4-3a1.59,1.59,0,0,1,1.81-2.63l4.39,3a1.59,1.59,0,0,1-.9,2.91Zm-8.78-6a1.59,1.59,0,0,1-.9-.28l-4.38-3A1.59,1.59,0,1,1,1489,510l4.38,3a1.59,1.59,0,0,1-.91,2.91Zm-8.75-6.05a1.59,1.59,0,0,1-.91-.28l-4.37-3a1.59,1.59,0,1,1,1.82-2.62l4.37,3a1.59,1.59,0,0,1-.91,2.9Zm-8.74-6.07a1.59,1.59,0,0,1-.91-.29l-4.37-3a1.59,1.59,0,0,1,1.82-2.62l4.37,3a1.59,1.59,0,0,1-.91,2.9Zm-8.73-6.09a1.59,1.59,0,0,1-.91-.29l-4.33-3a1.61,1.61,0,0,1-.41-2.23,1.58,1.58,0,0,1,2.21-.4l4.36,3a1.59,1.59,0,0,1-.91,2.9Zm-8.72-6.1a1.59,1.59,0,0,1-.91-.29l-4.36-3.06a1.59,1.59,0,0,1,1.83-2.61l4.36,3.06a1.59,1.59,0,0,1-.92,2.9Zm-8.71-6.12a1.59,1.59,0,0,1-.92-.29l-4.35-3.06a1.59,1.59,0,1,1,1.84-2.61l4.35,3.06a1.59,1.59,0,0,1-.92,2.9Zm-8.71-6.13a1.59,1.59,0,0,1-.92-.29l-4.35-3.07a1.59,1.59,0,0,1,1.84-2.61l4.35,3.07a1.59,1.59,0,0,1-.92,2.9Zm-8.7-6.14a1.59,1.59,0,0,1-.92-.29l-4.35-3.07a1.59,1.59,0,1,1,1.84-2.6l4.35,3.07a1.59,1.59,0,0,1-.92,2.9Zm-8.7-6.15a1.59,1.59,0,0,1-.92-.29l-4.35-3.08a1.59,1.59,0,1,1,1.84-2.6l4.35,3.08a1.59,1.59,0,0,1-.92,2.9Zm-8.7-6.16a1.59,1.59,0,0,1-.92-.29l-4.35-3.08a1.59,1.59,0,0,1,1.84-2.6l4.35,3.08a1.59,1.59,0,0,1-.92,2.9Zm-8.71-6.16a1.58,1.58,0,0,1-.92-.29l-4.36-3.08a1.59,1.59,0,1,1,1.84-2.61l4.36,3.08a1.59,1.59,0,0,1-.92,2.9Zm-8.74-6.15a1.59,1.59,0,0,1-.91-.29c-2-1.39-3.48-2.42-4.39-3a1.59,1.59,0,0,1,1.76-2.66c.92.61,2.43,1.65,4.45,3.06a1.59,1.59,0,0,1-.91,2.9Z"/><path class="cls-6" d="M1339.77,388.18s3,95.23,1.49,96.72-18.3-10.83-18.3-10.83-2-75.94-.37-80.66S1339.77,388.18,1339.77,388.18Z"/><path class="cls-6" d="M1527.56,469.79s-73-60.07-84.19-63c0,0,73.67,16.65,130.7,32.88s298.44,12.9,298.44,12.9v24.14l-344.95-6.95"/></g><path id="_Clipping_Path_17" data-name="&lt;Clipping Path&gt;" class="cls-1" d="M1874.3,524.8s5.8-9.26,16.65-10.77,14.37,0,14.37,0,29.12,78.9,23.83,80.57-17.23,1.95-20.85-1.39-31-41.48-31-41.48S1879,531.1,1874.3,524.8Z"/><g class="cls-23"><path class="cls-6" d="M1882.48,562.23s7.74-8.82,11.46-8.62a4,4,0,0,1,3.72,2.9,2.19,2.19,0,0,1-.43,2.16c-2.17,2.48-8.47,9.52-9.85,9.18C1885.71,567.42,1882.48,562.23,1882.48,562.23Z"/><path class="cls-6" d="M1890.27,573.66s7.74-8.82,11.46-8.62a4,4,0,0,1,3.72,2.9,2.19,2.19,0,0,1-.43,2.16c-2.17,2.48-8.47,9.52-9.85,9.18C1893.5,578.85,1890.27,573.66,1890.27,573.66Z"/><path class="cls-6" d="M1897.42,512.08s27.32,81.76,27.13,85.18c0,0,9.11-.57,9.11-2.85s-22.39-82-25.23-82.33A102.44,102.44,0,0,0,1897.42,512.08Z"/></g><path class="cls-19" d="M1866.81,439.17s33.54,4.66,34.17,6.34.75,24.31.75,24.31l-34.92.06Z"/><path id="_Clipping_Path_18" data-name="&lt;Clipping Path&gt;" class="cls-1" d="M1899.59,444.84a18,18,0,0,1,15.48-10.55c11.54-.63,38.53,13.73,40.93,14.74s34.91,9.76,35.48,10c7,3.52.76,11.82.76,11.82l-90.53-1.07Z"/><g class="cls-24"><path class="cls-6" d="M1908.84,434.27c1.1,1,40,19.52,45.8,20.26S1996,464.86,1996,464.86s1.92-4.87-1.24-6.7-37.56-10-40.3-11.57-35.91-14.91-38.65-14.46A46,46,0,0,0,1908.84,434.27Z"/><path class="cls-6" d="M1918.67,471.66c.71-2.57,3.26-15,5.19-15.4s6.64.86,6.5,1.57-1.14,14.26-4.28,14.26S1918.67,471.66,1918.67,471.66Z"/><path class="cls-6" d="M1937.1,475.23c.71-2.57,3.26-15,5.19-15.4s6.64.86,6.5,1.57-1.14,14.26-4.28,14.26S1937.1,475.23,1937.1,475.23Z"/></g></g></g></svg>