<svg xmlns="http://www.w3.org/2000/svg" viewBox="0 0 542.53 374.97"><defs><style>.cls-1,.cls-15,.cls-18,.cls-19{fill:#005cfb;}.cls-1,.cls-2,.cls-20,.cls-6{stroke:#5a96fc;}.cls-1,.cls-14,.cls-18,.cls-21,.cls-4,.cls-5,.cls-6,.cls-8{stroke-miterlimit:10;}.cls-11,.cls-16,.cls-2,.cls-20,.cls-21,.cls-4,.cls-5,.cls-6,.cls-8{fill:none;}.cls-11,.cls-12,.cls-16,.cls-19,.cls-2,.cls-20{stroke-linecap:round;stroke-linejoin:round;}.cls-3{fill:#5a96fc;}.cls-4{stroke:#005cfb;}.cls-16,.cls-18,.cls-19,.cls-5{stroke:#fff;}.cls-12,.cls-14,.cls-7{fill:#fff;}.cls-8{stroke:#b3cefd;}.cls-9{fill:#b3cefd;}.cls-10{fill:#ff7e1a;}.cls-11,.cls-12,.cls-14,.cls-21{stroke:#000;}.cls-13{fill:#ffe873;}.cls-17{fill:#ffb8a0;}.cls-20{stroke-width:2px;}</style></defs><title>7Asset 1</title><g id="Layer_2" data-name="Layer 2"><g id="Layer_3" data-name="Layer 3"><path class="cls-1" d="M115.17,211.77l21.18-.19a4.27,4.27,0,0,0,4.24-4.31l-.2-21.59a4.27,4.27,0,0,0-4.31-4.24l-18.33.17,0,3.3.22,23.68A3.06,3.06,0,0,1,115.17,211.77Z"/><path class="cls-1" d="M118,208.59a3.06,3.06,0,0,1-2.82,3.19s-3,.35-3-3.13l3.79,0A13.38,13.38,0,0,1,118,208.59Z"/><line class="cls-2" x1="137.09" y1="206.63" x2="122.17" y2="206.77"/><line class="cls-2" x1="137.06" y1="203.27" x2="122.14" y2="203.41"/><line class="cls-2" x1="136.98" y1="194.71" x2="122.06" y2="194.85"/><line class="cls-2" x1="136.95" y1="191.36" x2="122.03" y2="191.49"/><line class="cls-2" x1="137.02" y1="198.99" x2="122.1" y2="199.13"/><rect class="cls-3" x="121.6" y="185.15" width="10.46" height="2.73" rx="1.36" ry="1.36" transform="translate(255.35 371.87) rotate(179.48)"/><rect class="cls-3" x="355.46" y="247.36" width="36.29" height="31.59" rx="3.81" ry="3.81"/><line class="cls-4" x1="363.43" y1="263.36" x2="363.43" y2="274.08"/><line class="cls-4" x1="367.42" y1="263.36" x2="367.42" y2="274.08"/><line class="cls-4" x1="370.99" y1="265.25" x2="370.99" y2="274.08"/><line class="cls-4" x1="374.35" y1="271.98" x2="374.35" y2="274.08"/><line class="cls-4" x1="378.35" y1="266.09" x2="378.35" y2="274.08"/><line class="cls-4" x1="381.71" y1="253.7" x2="381.71" y2="274.08"/><line class="cls-4" x1="385.28" y1="253.7" x2="385.28" y2="274.08"/><path class="cls-5" d="M360.87,266.34c2-4,4.3-5.65,6.14-4.87,4.41,1.89,5.88,9.45,8.4,9.24,5.43-.45,1.05-17,10.08-17.85"/><line class="cls-6" x1="199.76" y1="305.83" x2="199.79" y2="299.17"/><line class="cls-6" x1="208.34" y1="305.87" x2="208.39" y2="291.58"/><line class="cls-6" x1="215.64" y1="305.9" x2="215.7" y2="290.65"/><line class="cls-6" x1="223.9" y1="305.93" x2="223.98" y2="285.29"/><line class="cls-6" x1="231.2" y1="305.96" x2="231.31" y2="277.66"/><line class="cls-6" x1="237.55" y1="305.98" x2="237.69" y2="270.41"/><rect class="cls-6" x="181.51" y="259.52" width="70.72" height="55.65" rx="3.99" ry="3.99" transform="matrix(1, 0, 0, 1, 1.14, -0.85)"/><path class="cls-5" d="M194,304.08l17-15.33a1.86,1.86,0,0,1,2.56.06l2.35,2.34a1.86,1.86,0,0,0,2.69-.07l18.5-20.28"/><path class="cls-5" d="M190,265.14l-.16,40.06a3.45,3.45,0,0,0,3.44,3.46l48.87.19"/><path class="cls-7" d="M238.33,271.7l-2.64-2a.41.41,0,0,1,.07-.7l3.37-1.62a.41.41,0,0,1,.58.45l-.73,3.66A.41.41,0,0,1,238.33,271.7Z"/><path class="cls-3" d="M458.3,120.6H400l-9.06,7-.57-7H375.8a4,4,0,0,1-4-4V100.7a4,4,0,0,1,4-4h82.5a4,4,0,0,1,4,4v15.93A4,4,0,0,1,458.3,120.6Z"/><line class="cls-8" x1="407.96" y1="112.61" x2="456.65" y2="112.61"/><line class="cls-8" x1="407.96" y1="108.08" x2="456.65" y2="108.08"/><line class="cls-8" x1="407.96" y1="103.26" x2="456.65" y2="103.26"/><rect class="cls-9" x="376.94" y="100.17" width="25.56" height="16.98" rx="1.78" ry="1.78"/><path d="M120.46,277.62c-3,1-3.16,4.9-1.85,9.51s10.64,22.37,14.74,21.71-2-21.82-2-21.82Z"/><path d="M184.25,255.51c-2.61,1.83-1.63,5.6.94,9.64s16.57,18.41,20.31,16.61-8.14-20.34-8.14-20.34Z"/><path class="cls-10" d="M170.16,219.25s20.69,4.41,22.16,13.07c1.23,7.26-8.38,22.95-8.38,22.95s16.5,13.74,17.79,13.64c1.76-1,7.22-6.65,11.56-14.76,4.56-8.52,7.87-19.73,4.33-31-8.41-26.91-35.79-29.16-35.79-29.16Z"/><path class="cls-11" d="M201.72,268.91c1.76-1,7.22-6.65,11.56-14.76,4.56-8.52,7.87-19.73,4.33-31-8.41-26.91-35.79-29.16-35.79-29.16"/><path class="cls-11" d="M170.16,219.25s20.69,4.41,22.16,13.07c1.23,7.26-8.38,22.95-8.38,22.95"/><path class="cls-10" d="M183.81,198.06c0,4.33-8.4,18.72-12.65,21.84,0,0,.79,26.71-6.74,45.14s-24.69,28.29-28.23,29.24c0,0-7.87-1.21-12.51-7.84s-2.12-12.05-2.12-12.05,12-10.78,13.4-13.17c4.67-8.31,3.33-57.28,3.33-57.28s15.09,1,25.62-.63A107.32,107.32,0,0,0,183.81,198.06Z"/><path class="cls-11" d="M121.55,274.39s12-10.78,13.4-13.17c4.67-8.31,3.33-57.28,3.33-57.28"/><path class="cls-12" d="M171.57,133.49c6.52-2.48,17.44-5.22,24.57-15.43,6.33-9.06,10.23-23.13,14.14-34.36,3.51-10.09,4.9-10.7,5.86-10.49s.91,5.64.27,7.46c0,0,2.46-6.24,3.52-6.24s1.34,4.22.34,7.58c0,0,2.64-5.14,4.14-4.93.89.13-.51,6.24-.51,6.24s2.9-5.49,3.68-3.58c.59,1.46-1.65,9.94-1.65,9.94s-4.95,26.71-13.84,40c-6.81,10.18-14.64,16.51-27.43,20.6C184.08,150.46,171.57,133.49,171.57,133.49Z"/><path class="cls-13" d="M169.14,133.59a55.65,55.65,0,0,0,8.46-3.23c5.29-2.68,10.86-6.1,10.86-6.1s8.94,15.51,10.39,22.63c0,0-11.22,7.24-15.89,6.12Z"/><path class="cls-13" d="M167.94,133.93c2.38-1.2,3.63-.44,3.63-.44s11.15,11.93,14.92,20.19,10.18,29.71,10.21,39.81c0,0-24.57,14.14-58.48,10.73,0,0,.39-60.58,5-63.61C145.1,139.4,167.94,133.93,167.94,133.93Z"/><path d="M140.77,174.48c-.38,3.76,14.67,18.44,23,18.81s28.22-4.89,30.48-10.54c0,0-26.72,5.27-38.38-.38S140.77,174.48,140.77,174.48Z"/><path class="cls-14" d="M130.39,156.94c.27,5.89,7.27,22,23.69,28.58,10,4,23.85,4.8,42.8-3,.61-.25,7.68-2.71,9.54-5.34s-4.51-.35-3.74-.71a32.38,32.38,0,0,0,3.63-1.82c1.5-1,3.06-2.77,1.46-3.31s-5.13,1.11-5.13,1.11,5.79-2.92,4.72-4.52-6.94.94-6.94.94,6.74-3.52,4.68-4.76c-1.18-.71-3.7.33-5.39.92-2.53.88-5.14,2.27-7,3.05,0,0,4.27-5,2.5-5.52s-7.79,5.47-9,6.59-22.43,2.73-29.45-6-7.18-11.45-9.75-12.73S130,148.33,130.39,156.94Z"/><path class="cls-13" d="M137.25,175.49s11.66-8.37,19.6-12.11c0,0-8.46-13.53-8.7-24.31,0,0-10.76,2.25-14.85,8.19C129.62,152.6,125.21,161.38,137.25,175.49Z"/><path class="cls-14" d="M171.91,125.39c2.06-4.89-7.16-17.61-9.61-20.5s-10.89-.79-14.88,2.78-5.3,12.9-5.3,12.9l2.14,2.73a2.63,2.63,0,0,0-.52,1.89c.15,1.6,2.89,4.07,5.57,4.56l2.73,3.49-.08,5.06s1.79,9.47,12.75,6.31c8.77-2.52,4.27-8.91,4-9.68l-.39-5.55A10.6,10.6,0,0,0,171.91,125.39Z"/><path d="M147.31,122.91s2.19,2.22,3.35,1.85a2.28,2.28,0,0,0,1.33-2.68c-.24-1.91-5.35-7.37-5.35-7.37s.19-6.16,8.36-9.33c5.17-2,6.31-.52,6.31-.52s5.68-8.67,2.82-12.33-8.27-3.2-13.23,1.46c-3.88,3.64-8.32,8.78-8.07,13.17,0,0-5.09.22-5.93,4.17s3.11,5.2,3.11,5.2-3.1-.32-2.93,2.21,3.48,7.93,8,7.35Z"/><path class="cls-3" d="M262.5,184.13c-9.15,3-30.21,18.83-13.95,64.42a2.25,2.25,0,0,0,3.84.71c4-4.74,10.09-18.12,27.09-24.79Z"/><path class="cls-3" d="M312.58,168.53c9.56-1,39.08,3.19,42.81,51.44a2.25,2.25,0,0,1-3.22,2.21c-5.59-2.69-17.86-7.2-36.1-6.36Z"/><path class="cls-15" d="M280.63,231.58a317.14,317.14,0,0,1-37.33-72.45c-10.39-29.26-14.35-56.13-11.79-79.86,5-46,17-61.66,20.06-62a1.26,1.26,0,0,1,.38-.05c2.44,0,19.92,8,44,45.87,25.31,39.8,27.57,79.66,23.21,159.64l0,.38-38.33,8.79Z"/><path class="cls-7" d="M251.95,17.68c2.82,0,20.39,9.14,43.6,45.63,25.63,40.31,27.4,81,23.13,159.35L281,231.29c-28.5-41.32-54.55-100.91-49-152,5.16-47.85,17.82-61.59,19.67-61.59a.67.67,0,0,1,.27,0m0-1a1.76,1.76,0,0,0-.51.07c-1.93.36-5.64,5-9.28,13.43-3.57,8.33-8.41,23.59-11.16,49-2.57,23.81,1.41,50.75,11.82,80.08a317.64,317.64,0,0,0,37.39,72.57l.39.56.66-.15,37.63-8.63.73-.17,0-.75c4.37-80.1,2.1-120-23.28-159.94C274,27.61,256,16.68,251.95,16.68Z"/><path class="cls-5" d="M276.48,225.67s26.13-9.61,43.25-10.21"/><path class="cls-3" d="M295.55,63.32C271.5,25.24,253.33,17,251.67,17.73c-1.61,0-12.13,10.33-17.61,44.6-.82,5.12-1.52,10.76-2.07,17A88.08,88.08,0,0,0,246.18,79a115.57,115.57,0,0,0,18.31-3.16C286.25,70.27,295.55,63.32,295.55,63.32Z"/><path class="cls-3" d="M289.14,167c-3.34-4.33,1.47,34,6.44,55.64C298,233,303,239,303.86,239.1s2.14-6.86.4-17.66C302.26,209,295.56,175.32,289.14,167Z"/><circle class="cls-3" cx="272.68" cy="113.22" r="21.94"/><path class="cls-16" d="M266.14,98.2s15.61-4.51,22.2,7.29"/><path class="cls-11" d="M211.08,89.11s1.48-6.21,3-6.51,2.62,7.38.84,9.75"/><path class="cls-11" d="M188.46,124.26s9.7,17.12,10.39,22.63"/><path class="cls-11" d="M148.27,151.68c2.39,3.59,6.58,8.07,8.58,11.7l-19.6,12.11"/><path class="cls-11" d="M169.14,133.59c3.29,2.37,12.55,9.72,16.93,18.81"/><path class="cls-11" d="M138.21,204.23s28.1,4.92,58.48-10.73"/><path class="cls-11" d="M149.76,140.32s4.48,13.45,20.33,4.48"/><path class="cls-17" d="M201.73,156.79"/><path class="cls-11" d="M171.16,219.9c-.14.1,4.16-6.12,4.16-6.12a15.2,15.2,0,0,0,5.83-13.34"/><path class="cls-11" d="M136.18,294.28s22-9,28.23-29.24a164.88,164.88,0,0,0,7-37.71"/><path class="cls-18" d="M286.6,229.68s24.09,85.09,24.78,99.31"/><path class="cls-18" d="M313.66,224.13s13.2,45.63,18.41,54.65"/><path class="cls-18" d="M304.67,349.89c-13.51-8.69-.79-28.13,13.05-18.9"/><path class="cls-18" d="M307.95,246.66s22.26,74.75,33.1,91.23"/><path class="cls-11" d="M530.69,312.68"/><path d="M438.74,221.65l13.53,19.14a32.61,32.61,0,0,0,25.46,14,18.15,18.15,0,0,0,6.43-.68c1.94-.72,2.09,2.15,4.39,3.75,0,0,11.59,9.9,4.83,13.48-8.76,4.64-31.78,6.3-40.8,2.86-15.8-6-22-18.22-24.85-23.58a34.44,34.44,0,0,0-4.06-6.08Z"/><path d="M387.2,237.89s17.57,39.3,30.91,49.59c11.44,8.83,31,12.43,38.6,10.53l-3.39-16.28L458,277.1s-3.6-.65-8-1.71a33,33,0,0,1-20.72-15.27l-5-8.37s22.26-15.41,13.67-31.21l-29.46,12.54Z"/><path class="cls-12" d="M423.57,144.13l-1.72-2.61s-8.92-1.58-8.32-3.37,5.75-1.58,5.75-1.58-5-6.74-5-9.11,4.16-.79,5.15.79c0,0,6.63-3.52,11-1.24,3.76,2,8.14,11.53,8.14,11.53Z"/><path class="cls-12" d="M318.36,168.82c-2.77-4.56-5.07-11.6-3.68-15s11.23-7.37,11.23-7.37-1-4,.4-6.14,6.28,12.62,8.49,19.48Z"/><path class="cls-12" d="M394.09,164.74l.4-6.7s-6-6.54-11-7.16-12.68,2.28-13,5.83,0,15.4,4.18,18.09a17.52,17.52,0,0,0,5.45,2c.5,1.09,2.22,4.73,3.27,5.61,1.4,1.17,16.08-6,16.31-6.72S397.1,172.55,394.09,164.74Z"/><path d="M374.24,157.08c-2.52-.88-10.19-2.08-9-4.93s3.76-9.12,11.1-7.47,17.82,4.85,17.71,9.34c0,0,.66-2,2.63-.22s2.91,16.38,1.71,19-10.29,5.15-12.91,4.44-4.79-1.43-6-4.61l-.88-7.23s-2.74-.11-3.4-1.86A35.41,35.41,0,0,1,374.24,157.08Z"/><path class="cls-10" d="M422.85,189.43l-.77-1.26c4.88-2.82,14.45-8.83,18-14.53,5.61-9,.11-38-2.14-37.75-3.08.28-16.35,6.08-16.35,6.08.57,1.14,3.25,18,2.74,18.66-1.79,2.38-13.75,8.76-13.75,8.76s-23.76,10.94-32.35,13.82c-11.84,4-15.66,4-24.09-1.1-7-4.26-19-22.43-19-22.43-6.74,2.31-15.91,7.29-16.77,9.15,0,0,2.69,9.14,14,23.13,17.19,21.33,42,18.48,42,18.48,4.14,9.15,18.39,40.86,18.39,40.86,14.17.52,49-24.78,49-24.78Z"/><path class="cls-11" d="M319.47,172.43s13.17,27.9,33.95,35.32c9.6,3.43,20.93,2.69,20.93,2.69"/><path class="cls-12" d="M378.63,165.4c1.79-3.4,3.91-1.28,3.7,1s-1.48,6.77-3.17,5.93"/><path class="cls-13" d="M454.87,276.88c-2.69,1-7.27,4.54-6,8.72s5.88,13.27,8,15.17,5.71,5.74,9.89,4.44,4.83-6.9,4.64-8.37c-.74-5.76-6.53-15.4-10.25-18.76C458.45,275.59,456.39,276.33,454.87,276.88Z"/><path class="cls-13" d="M482.46,255.13C479,257,497.85,282.35,503,277.93c6.95-6-2.93-19.52-8.45-26a5,5,0,0,0-7.17-.7Z"/><path class="cls-11" d="M318.36,168.82s10.62-8.54,20.46-10.38"/><path class="cls-11" d="M420.6,143.06a134.37,134.37,0,0,1,17.33-7.18"/><path class="cls-11" d="M420.54,162.92s8.36-5.1,12.36-2.33"/><path class="cls-11" d="M416.3,177.19c.61.92,25.44,49.33,25.44,49.33"/><path class="cls-11" d="M335.43,194.72s3.38-1.84,8.3.61c7.17,3.59,5.23,9.84,5.23,9.84"/><path class="cls-11" d="M437.21,176.27s-4.61-10.15,4.92-12"/><path class="cls-11" d="M461.22,278.08c-3.42-.65-9.26,4.57-7.41,8s7.59,18.36,13,19.17"/><line class="cls-11" x1="458.11" y1="286.35" x2="465.49" y2="281.73"/><line class="cls-11" x1="459.96" y1="289.73" x2="467.34" y2="285.12"/><line class="cls-11" x1="462.42" y1="293.42" x2="469.8" y2="288.81"/><line class="cls-11" x1="463.96" y1="297.41" x2="471.33" y2="292.8"/><path class="cls-11" d="M454.73,297.72s-7.07,9.53-2.46,8,3.07-7.69,3.07-7.69"/><path class="cls-11" d="M487.33,251.19c-1.24.72,12.5,26.33,15.62,26.75"/><line class="cls-11" x1="492.55" y1="254.68" x2="495.93" y2="251.91"/><line class="cls-11" x1="494.7" y1="258.37" x2="498.09" y2="255.6"/><line class="cls-11" x1="496.55" y1="262.06" x2="499.93" y2="259.29"/><line class="cls-11" x1="498.39" y1="265.75" x2="501.77" y2="262.98"/><line class="cls-11" x1="500.54" y1="269.43" x2="503.93" y2="266.67"/><path class="cls-11" d="M491.32,272.82c0,6.46,1.23,7.38,2.46,6.46s-.31-5.84-.31-5.84"/><path class="cls-11" d="M377.76,180.34s1.13,2.26,9.62-.19,13.39-6.41,13.77-9.24"/><rect class="cls-6" x="322.3" y="46.66" width="26.7" height="37.37" rx="2.38" ry="2.38" transform="translate(401 -270.31) rotate(90)"/><path class="cls-3" d="M354.34,54.38A2.38,2.38,0,0,0,352,52h-32.6A2.38,2.38,0,0,0,317,54.38v1.74h37.29Z"/><rect class="cls-3" x="321.07" y="59.08" width="13.69" height="11.98" rx="1.45" ry="1.45"/><line class="cls-2" x1="337.31" y1="59.94" x2="350.74" y2="59.94"/><line class="cls-2" x1="337.31" y1="63.43" x2="350.74" y2="63.43"/><line class="cls-2" x1="337.31" y1="67.29" x2="350.74" y2="67.29"/><line class="cls-2" x1="337.31" y1="70.78" x2="350.74" y2="70.78"/><line class="cls-2" x1="321.7" y1="74.27" x2="350.74" y2="74.27"/><rect class="cls-6" x="83.49" y="234.12" width="17.07" height="34.75" rx="1.52" ry="1.52" transform="translate(343.52 159.47) rotate(90)"/><path class="cls-3" d="M109.4,244.49a1.52,1.52,0,0,0-1.52-1.52H76.17a1.52,1.52,0,0,0-1.52,1.52v1.11h34.69Z"/><rect class="cls-3" x="77.27" y="247.49" width="8.75" height="7.66" rx="0.92" ry="0.92"/><line class="cls-2" x1="87.65" y1="248.04" x2="107.1" y2="248.04"/><line class="cls-2" x1="87.65" y1="250.27" x2="107.1" y2="250.27"/><line class="cls-2" x1="87.65" y1="252.74" x2="107.1" y2="252.74"/><line class="cls-2" x1="87.65" y1="254.97" x2="107.1" y2="254.97"/><line class="cls-2" x1="77.67" y1="257.2" x2="107.1" y2="257.2"/><rect class="cls-6" x="72.66" y="35.88" width="17.89" height="25.04" rx="1.6" ry="1.6" transform="translate(130.01 -33.2) rotate(90)"/><path class="cls-3" d="M94.13,41.06a1.6,1.6,0,0,0-1.6-1.6H70.68a1.6,1.6,0,0,0-1.6,1.6v1.17h25Z"/><rect class="cls-3" x="71.83" y="44.21" width="9.17" height="8.02" rx="0.97" ry="0.97"/><line class="cls-2" x1="82.72" y1="44.78" x2="91.72" y2="44.78"/><line class="cls-2" x1="82.72" y1="47.12" x2="91.72" y2="47.12"/><line class="cls-2" x1="82.72" y1="49.71" x2="91.72" y2="49.71"/><line class="cls-2" x1="82.72" y1="52.05" x2="91.72" y2="52.05"/><line class="cls-2" x1="72.25" y1="54.38" x2="91.72" y2="54.38"/><circle class="cls-7" cx="299.95" cy="38.03" r="1.3"/><circle class="cls-7" cx="44.1" cy="199.22" r="1.3"/><circle class="cls-7" cx="461.23" cy="352.94" r="1.3"/><circle class="cls-7" cx="281.81" cy="294.12" r="1.3"/><circle class="cls-7" cx="364.96" cy="9.43" r="1.3"/><circle class="cls-7" cx="1.3" cy="275.33" r="1.3"/><circle class="cls-7" cx="183.8" cy="83.4" r="1.3"/><circle class="cls-7" cx="511.95" cy="95.48" r="1.3"/><circle class="cls-7" cx="521.33" cy="211.2" r="1.3"/><line class="cls-19" x1="513.75" y1="6.57" x2="513.75" y2="0.5"/><line class="cls-19" x1="510.72" y1="3.53" x2="516.78" y2="3.53"/><line class="cls-19" x1="92.73" y1="137" x2="92.73" y2="130.93"/><line class="cls-19" x1="89.69" y1="133.97" x2="95.76" y2="133.97"/><line class="cls-19" x1="36.34" y1="40.46" x2="36.34" y2="34.39"/><line class="cls-19" x1="33.31" y1="37.43" x2="39.38" y2="37.43"/><circle class="cls-20" cx="149.92" cy="330.93" r="5.65" transform="translate(-171.85 162.24) rotate(-37.96)"/><line class="cls-20" x1="153.67" y1="335.98" x2="158.53" y2="342.2"/><path class="cls-18" d="M300,345.15c-3.36-3.36-12.47-.48-12,5.75"/><line class="cls-5" x1="536.91" y1="249.72" x2="542.53" y2="249.72"/><line class="cls-5" x1="388.61" y1="301.24" x2="394.22" y2="301.24"/><line class="cls-5" x1="112.83" y1="83.17" x2="118.44" y2="83.17"/><line class="cls-5" x1="507.61" y1="145.45" x2="513.22" y2="145.45"/><line class="cls-2" x1="477.27" y1="44.55" x2="486.53" y2="44.55"/><line class="cls-2" x1="65.67" y1="95.44" x2="65.67" y2="100.64"/><line class="cls-2" x1="43.08" y1="309.72" x2="43.08" y2="314.92"/><line class="cls-2" x1="407.83" y1="326.93" x2="417.09" y2="326.93"/><path class="cls-7" d="M107.16,320.43"/><line class="cls-19" x1="457.77" y1="90.97" x2="457.77" y2="87.25"/><line class="cls-19" x1="465.68" y1="97.48" x2="469.86" y2="97.48"/><line class="cls-19" x1="462.89" y1="93.3" x2="466.61" y2="89.58"/><path class="cls-19" d="M455.84,30.49a11.91,11.91,0,1,1-11.91-11.91V30.49Z"/><path class="cls-3" d="M459.93,26.55A11.91,11.91,0,0,0,448,14.64V26.55S459.93,26.86,459.93,26.55Z"/><polyline class="cls-2" points="439.88 35.7 431.36 44.23 415.32 44.23"/><rect class="cls-3" x="472.38" y="7.66" width="7.56" height="6.34" rx="0.9" ry="0.9"/><rect class="cls-3" x="404.83" y="40.99" width="7.56" height="6.34" rx="0.9" ry="0.9"/><polyline class="cls-2" points="459.96 15.87 464.61 11.21 469.27 11.21"/><path class="cls-6" d="M477.16,216.49H456.81a4.11,4.11,0,0,1-4.11-4.11V191.63a4.11,4.11,0,0,1,4.11-4.11h17.62v25.93A2.94,2.94,0,0,0,477.16,216.49Z"/><path class="cls-6" d="M474.43,213.45a2.94,2.94,0,0,0,2.74,3s2.86.31,2.86-3h-3.64A12.86,12.86,0,0,0,474.43,213.45Z"/><line class="cls-2" x1="456.05" y1="211.74" x2="470.39" y2="211.74"/><line class="cls-2" x1="456.05" y1="208.51" x2="470.39" y2="208.51"/><line class="cls-2" x1="456.05" y1="200.28" x2="470.39" y2="200.28"/><line class="cls-2" x1="456.05" y1="197.06" x2="470.39" y2="197.06"/><line class="cls-2" x1="456.05" y1="204.4" x2="470.39" y2="204.4"/><rect class="cls-3" x="460.71" y="191.01" width="10.06" height="2.62" rx="1.31" ry="1.31"/><circle class="cls-19" cx="474.05" cy="202.37" r="3.07" transform="translate(-24.19 334.43) rotate(-37.96)"/><line class="cls-16" x1="476.09" y1="205.11" x2="478.73" y2="208.49"/><path class="cls-18" d="M370.73,352.73c1.06-5.31,8.51-12.82,17.51-10.08,12.2,3.71,8.49,16.45,8.49,16.45"/><path class="cls-18" d="M389.83,363.34s5.84-7.43,13.26-5.84"/><line class="cls-19" x1="360.13" y1="323.3" x2="360.13" y2="317.24"/><line class="cls-19" x1="357.1" y1="320.27" x2="363.17" y2="320.27"/><path class="cls-16" d="M254.28,21.79a119.36,119.36,0,0,1,18.55,16.93"/><path class="cls-16" d="M276.31,43.36s5.1,5.8,7.65,9"/><circle class="cls-10" cx="212.13" cy="58.6" r="14.41"/><path class="cls-5" d="M211.4,65.1l4.69-1.66a.67.67,0,0,0,.42-.81,5.35,5.35,0,0,1,.17-3.21c1-2.9,1.07-6.45-1.37-8.35a6.41,6.41,0,0,0-10.2,5.66c.29,3.75,3.56,5.07,4.09,5.38A7.13,7.13,0,0,1,211.4,65.1Z"/><path class="cls-5" d="M212.52,64.35l-2.12-5.88.49.12a2,2,0,0,0,2-.62l.39-.45,2.11,5.85"/><path class="cls-5" d="M211.4,65.1l.62,1.81c.23.67,1.22.92,2.22.56l1.79-.65c1-.36,1.59-1.18,1.35-1.83l-.65-1.79Z"/><circle class="cls-13" cx="338.48" cy="126.46" r="14.41"/><path class="cls-21" d="M338.43,133.5l4.69-1.66a.67.67,0,0,0,.42-.81,5.35,5.35,0,0,1,.17-3.21c1-2.9,1.07-6.45-1.37-8.35a6.41,6.41,0,0,0-10.2,5.66c.29,3.75,3.56,5.07,4.09,5.38A7.13,7.13,0,0,1,338.43,133.5Z"/><path class="cls-21" d="M339.55,132.74l-2.12-5.88.49.12a2,2,0,0,0,2-.62l.39-.45,2.11,5.85"/><path class="cls-21" d="M338.43,133.5l.62,1.81c.23.67,1.22.92,2.22.56l1.79-.65c1-.36,1.59-1.18,1.35-1.83l-.65-1.79Z"/><path class="cls-18" d="M316.88,374.4a14.26,14.26,0,0,1,10.64-10.64c9-2.13,16.49,10.64,16.49,10.64"/><path class="cls-6" d="M156.2,61.26H144.9a1.53,1.53,0,0,1-1.53-1.53V48.42a1.53,1.53,0,0,1,1.53-1.53h2.29s-.79,4.88,3.29,4.88c3.42,0,2.76-4.88,2.76-4.88h3a1.53,1.53,0,0,1,1.53,1.53v3.09s4.57-.79,4.57,3c0,3.42-4.57,3.16-4.57,3.16v2A1.53,1.53,0,0,1,156.2,61.26Z"/><path class="cls-6" d="M234.84,374.47h-11.3a1.53,1.53,0,0,1-1.53-1.53v-11.3a1.53,1.53,0,0,1,1.53-1.53h2.29S225,365,229.11,365c3.42,0,2.76-4.88,2.76-4.88h3a1.53,1.53,0,0,1,1.53,1.53v3.09s4.57-.79,4.57,3c0,3.42-4.57,3.16-4.57,3.16v2A1.53,1.53,0,0,1,234.84,374.47Z"/><path class="cls-6" d="M511.82,293.69h11.3a1.53,1.53,0,0,1,1.53,1.53v11.3a1.53,1.53,0,0,1-1.53,1.53h-2.29s.79-4.88-3.29-4.88c-3.42,0-2.76,4.88-2.76,4.88h-3a1.53,1.53,0,0,1-1.53-1.53v-3.09s-4.57.79-4.57-3c0-3.42,4.57-3.16,4.57-3.16v-2A1.53,1.53,0,0,1,511.82,293.69Z"/><path class="cls-7" d="M390.43,69.67l1.73,0a.36.36,0,0,0,.36-.37l0-2.51a.36.36,0,0,0-.37-.36l-1.79,0a7.18,7.18,0,0,0-1-2.25l1.28-1.34a.36.36,0,0,0,0-.51l-1.82-1.73a.36.36,0,0,0-.51,0L386.89,62a7.16,7.16,0,0,0-2-.77v-2a.36.36,0,0,0-.36-.36H382a.36.36,0,0,0-.36.36v2a7.17,7.17,0,0,0-2.23,1l-1.49-1.43a.36.36,0,0,0-.51,0l-1.74,1.81a.36.36,0,0,0,0,.51l1.49,1.42a7.17,7.17,0,0,0-.83,2.07l-2,0a.36.36,0,0,0-.36.37l0,2.51a.36.36,0,0,0,.37.36l2,0a7.17,7.17,0,0,0,.94,2.26l-1.32,1.39a.36.36,0,0,0,0,.51l1.82,1.73a.36.36,0,0,0,.51,0l1.27-1.34a7.17,7.17,0,0,0,2.08.87V77.1a.36.36,0,0,0,.36.36h2.51a.36.36,0,0,0,.36-.36V75.34a7.17,7.17,0,0,0,2.45-1l1.23,1.18a.36.36,0,0,0,.51,0l1.74-1.81a.36.36,0,0,0,0-.51L389.55,72A7.17,7.17,0,0,0,390.43,69.67Zm-2.9.39a4.56,4.56,0,0,1-2.24,2.34l-.43.18a4.54,4.54,0,0,1-3.23-.08l-.17-.07a4.56,4.56,0,0,1-2.27-2.31l-.11-.26a4.55,4.55,0,0,1,0-3.24l0-.09a4.56,4.56,0,0,1,2.24-2.33l.22-.1a4.54,4.54,0,0,1,3.23-.08l.09,0a4.55,4.55,0,0,1,2.42,2.15l.14.29a4.54,4.54,0,0,1,.15,3.23C387.62,69.83,387.58,69.94,387.53,70.05Z"/><path class="cls-7" d="M93.77,293l1.73,0a.36.36,0,0,0,.36-.37l0-2.51a.36.36,0,0,0-.37-.36l-1.79,0a7.18,7.18,0,0,0-1-2.25l1.28-1.34a.36.36,0,0,0,0-.51l-1.82-1.73a.36.36,0,0,0-.51,0l-1.32,1.39a7.16,7.16,0,0,0-2-.77v-2a.36.36,0,0,0-.36-.36H85.32a.36.36,0,0,0-.36.36v2a7.17,7.17,0,0,0-2.23,1l-1.49-1.43a.36.36,0,0,0-.51,0L79,286a.36.36,0,0,0,0,.51l1.49,1.42a7.17,7.17,0,0,0-.83,2.07l-2,0a.36.36,0,0,0-.36.37l0,2.51a.36.36,0,0,0,.37.36l2,0a7.17,7.17,0,0,0,.94,2.26l-1.32,1.39a.36.36,0,0,0,0,.51l1.82,1.73a.36.36,0,0,0,.51,0l1.27-1.34a7.17,7.17,0,0,0,2.08.87v1.81a.36.36,0,0,0,.36.36h2.51a.36.36,0,0,0,.36-.36v-1.76a7.17,7.17,0,0,0,2.45-1l1.23,1.18a.36.36,0,0,0,.51,0L94.12,297a.36.36,0,0,0,0-.51l-1.23-1.18A7.17,7.17,0,0,0,93.77,293Zm-2.9.39a4.56,4.56,0,0,1-2.24,2.34l-.43.18a4.54,4.54,0,0,1-3.23-.08l-.17-.07a4.56,4.56,0,0,1-2.27-2.31l-.11-.26a4.55,4.55,0,0,1,0-3.24l0-.09a4.56,4.56,0,0,1,2.24-2.33l.22-.1a4.54,4.54,0,0,1,3.23-.08l.09,0a4.55,4.55,0,0,1,2.42,2.15l.14.29A4.54,4.54,0,0,1,91,293C91,293.15,90.91,293.26,90.87,293.37Z"/><path class="cls-7" d="M247.43,172.62l2.4,0a.5.5,0,0,0,.49-.51l-.05-3.49a.5.5,0,0,0-.51-.49l-2.48,0a10,10,0,0,0-1.45-3.13l1.77-1.87a.5.5,0,0,0,0-.71L245.06,160a.5.5,0,0,0-.71,0L242.51,162a10,10,0,0,0-2.82-1.07v-2.72a.5.5,0,0,0-.5-.5h-3.49a.5.5,0,0,0-.5.5V161a10,10,0,0,0-3.1,1.35l-2.07-2a.5.5,0,0,0-.71,0l-2.42,2.52a.5.5,0,0,0,0,.71l2.07,2a10,10,0,0,0-1.16,2.87l-2.83,0a.5.5,0,0,0-.49.51l.05,3.49a.5.5,0,0,0,.51.49l2.75,0a10,10,0,0,0,1.31,3.14L227.28,178a.5.5,0,0,0,0,.71l2.53,2.41a.5.5,0,0,0,.71,0l1.77-1.87a10,10,0,0,0,2.88,1.21V183a.5.5,0,0,0,.5.5h3.49a.5.5,0,0,0,.5-.5v-2.45a10,10,0,0,0,3.4-1.42l1.71,1.64a.5.5,0,0,0,.71,0l2.42-2.52a.5.5,0,0,0,0-.71l-1.71-1.64A10,10,0,0,0,247.43,172.62Zm-4,.54a6.33,6.33,0,0,1-3.11,3.25,6.32,6.32,0,0,1-5.1.14l-.23-.1a6.33,6.33,0,0,1-3.15-3.21c-.05-.12-.1-.24-.15-.37a6.32,6.32,0,0,1,.07-4.5l.05-.13a6.33,6.33,0,0,1,3.11-3.24l.31-.13a6.32,6.32,0,0,1,4.5-.11l.13,0a6.33,6.33,0,0,1,3.36,3q.1.2.19.4a6.31,6.31,0,0,1,.2,4.49C243.52,172.85,243.47,173,243.4,173.16Z"/></g></g></svg>