<svg xmlns="http://www.w3.org/2000/svg" viewBox="0 0 418.36 418.84"><defs><style>.cls-1{fill:#bdc7ff;}.cls-2{fill:#73382d;stroke:#73382d;stroke-width:0.07px;}.cls-16,.cls-19,.cls-2,.cls-21,.cls-24,.cls-29,.cls-34,.cls-4,.cls-41,.cls-44,.cls-5,.cls-50,.cls-51,.cls-53,.cls-7{stroke-miterlimit:10;}.cls-3{fill:#00954f;}.cls-16,.cls-19,.cls-21,.cls-29,.cls-39,.cls-4,.cls-41,.cls-5,.cls-51,.cls-53,.cls-54,.cls-7{fill:none;}.cls-4{stroke:#bfbf5b;}.cls-16,.cls-17,.cls-19,.cls-21,.cls-24,.cls-29,.cls-32,.cls-33,.cls-34,.cls-39,.cls-4,.cls-41,.cls-44,.cls-49,.cls-5,.cls-52,.cls-53,.cls-54,.cls-7{stroke-linecap:round;}.cls-4,.cls-7{stroke-width:0.47px;}.cls-32,.cls-33,.cls-34,.cls-39,.cls-44,.cls-49,.cls-5{stroke:#3d3f54;}.cls-17,.cls-32,.cls-33,.cls-34,.cls-39,.cls-44,.cls-49,.cls-5,.cls-50,.cls-51,.cls-52,.cls-53,.cls-54{stroke-width:0.68px;}.cls-6{fill:#00c76a;}.cls-7{stroke:#ffff79;}.cls-33,.cls-44,.cls-8{fill:#3d3f54;}.cls-9{fill:#707078;}.cls-10{fill:#a9a8b5;}.cls-11{fill:#5b5a61;}.cls-12{fill:#68676f;}.cls-13{fill:#f1f0ff;}.cls-14{fill:#fb4b62;}.cls-15,.cls-24{fill:#fff;}.cls-16,.cls-17,.cls-21,.cls-24,.cls-29,.cls-50,.cls-51,.cls-52{stroke:#4e506b;}.cls-16{stroke-width:0.46px;}.cls-17,.cls-26{fill:#4e506b;}.cls-17,.cls-32,.cls-33,.cls-39,.cls-49,.cls-52,.cls-54{stroke-linejoin:round;}.cls-18{fill:#edf0ff;}.cls-19{stroke:#dfe3fc;}.cls-19,.cls-21,.cls-24{stroke-width:0.71px;}.cls-20{fill:#d1d5ed;}.cls-22{fill:gray;}.cls-23,.cls-50{fill:#ffe7a0;}.cls-25{fill:#8ab5ff;}.cls-27{fill:#999;}.cls-28,.cls-32,.cls-34{fill:#ffbf9d;}.cls-29{stroke-width:0.91px;}.cls-30{fill:#ff957d;}.cls-31{fill:#d13e52;}.cls-35{fill:#8fa0ff;}.cls-36{fill:#ffcebd;}.cls-37{fill:#ffa79c;}.cls-38{fill:#556efa;}.cls-40{fill:#ffae73;}.cls-41{stroke:#fff;stroke-width:1.48px;}.cls-42{fill:#b3b3b3;}.cls-43{fill:#de7771;}.cls-45{fill:#543234;}.cls-46,.cls-49,.cls-52{fill:#b87e61;}.cls-47{fill:#e2c479;}.cls-48{fill:#994e3d;}.cls-53,.cls-54{stroke:#543234;}</style></defs><title>7langingAsset</title><g id="Layer_2" data-name="Layer 2"><g id="OBJECTS"><g id="BACKGROUND"><circle class="cls-1" cx="67.45" cy="81.04" r="44.06"/><circle class="cls-1" cx="333.39" cy="131.5" r="33.64"/><path class="cls-1" d="M379.09,272.75c-2.93-25.2-12.59-50.43-30.06-69.15-16.35-17.53-39.73-19.37-57.41-34.23-19-15.93-11.06-42.82-6.09-63.31,6.15-25.4,6.27-52.49-8-75.56-27.77-45-87.89-35.57-116.45-1.59-17.75,21.12-22.21,56-30.08,81.89-11.37,37.44-34.6,61.87-66.92,82.13-22.47,14.09-46,28.53-55.91,54.34-13.58,35.37-1.83,75.47,23.46,102.54,24.13,25.83,57.94,40.54,92,49.82A384.19,384.19,0,0,0,234,413c30.2-.75,60.92-5.27,87.88-18.91,20.11-10.18,40.09-26.14,50.29-46.65,5.07-10.19,5.38-23.29,6.79-34.55A167.73,167.73,0,0,0,379.09,272.75Z"/></g><path class="cls-2" d="M19,294.85H39.79a0,0,0,0,1,0,0v8.45a6.27,6.27,0,0,1-6.27,6.27H25.29A6.27,6.27,0,0,1,19,303.3v-8.45A0,0,0,0,1,19,294.85Z"/><ellipse class="cls-3" cx="41.11" cy="273.07" rx="12.41" ry="7.87" transform="translate(-218.98 180.28) rotate(-61.8)"/><ellipse class="cls-4" cx="41.11" cy="273.07" rx="11.31" ry="7.1" transform="translate(-218.98 180.28) rotate(-61.8)"/><line class="cls-4" x1="38.42" y1="265.41" x2="40.75" y2="273.14"/><line class="cls-4" x1="38.67" y1="277.85" x2="48.04" y2="275.02"/><line class="cls-4" x1="43.63" y1="268.74" x2="48.8" y2="267.18"/><line class="cls-4" x1="36.5" y1="281.76" x2="45.97" y2="278.9"/><line class="cls-4" x1="38.33" y1="278.05" x2="35.56" y2="268.86"/><line class="cls-4" x1="41.53" y1="272.08" x2="49.29" y2="269.74"/><line class="cls-4" x1="36.05" y1="281.59" x2="33.46" y2="273.01"/><line class="cls-5" x1="26.58" y1="300.19" x2="44.11" y2="267.48"/><line class="cls-5" x1="35.71" y1="275.24" x2="37.26" y2="280.37"/><line class="cls-5" x1="40.36" y1="274.87" x2="45.17" y2="273.42"/><line class="cls-5" x1="42.18" y1="266.21" x2="43.04" y2="269.04"/><ellipse class="cls-3" cx="19.77" cy="266.42" rx="7.87" ry="12.41" transform="translate(-79.3 18.32) rotate(-17.52)"/><ellipse class="cls-4" cx="19.77" cy="266.42" rx="7.1" ry="11.31" transform="translate(-79.3 18.32) rotate(-17.52)"/><line class="cls-4" x1="12.41" y1="263" x2="19.58" y2="266.72"/><line class="cls-4" x1="21.49" y1="271.5" x2="26.01" y2="262.82"/><line class="cls-4" x1="18.43" y1="261.59" x2="20.92" y2="256.81"/><line class="cls-4" x1="22.77" y1="275.79" x2="27.34" y2="267.01"/><line class="cls-4" x1="21.4" y1="271.88" x2="12.88" y2="267.46"/><line class="cls-4" x1="19.36" y1="265.42" x2="23.09" y2="258.24"/><line class="cls-4" x1="22.34" y1="275.99" x2="14.39" y2="271.86"/><line class="cls-5" x1="29.04" y1="295.76" x2="17.86" y2="260.37"/><line class="cls-5" x1="17.55" y1="271.8" x2="22.31" y2="274.28"/><line class="cls-5" x1="20.54" y1="268.21" x2="22.86" y2="263.75"/><line class="cls-5" x1="15.61" y1="260.86" x2="18.23" y2="262.23"/><ellipse class="cls-6" cx="31.37" cy="262.07" rx="7.46" ry="11.78"/><ellipse class="cls-7" cx="31.37" cy="262.07" rx="6.74" ry="10.73"/><line class="cls-7" x1="25.68" y1="256.87" x2="31.1" y2="262.3"/><line class="cls-7" x1="31.47" y1="267.16" x2="38.04" y2="260.6"/><line class="cls-7" x1="31.54" y1="257.33" x2="35.16" y2="253.7"/><line class="cls-7" x1="31.41" y1="271.41" x2="38.05" y2="264.77"/><line class="cls-7" x1="31.28" y1="267.49" x2="24.84" y2="261.04"/><line class="cls-7" x1="31.28" y1="261.05" x2="36.71" y2="255.62"/><line class="cls-7" x1="30.96" y1="271.47" x2="24.94" y2="265.46"/><line class="cls-5" x1="31.37" y1="297.54" x2="31.37" y2="256.05"/><line class="cls-5" x1="27.82" y1="266.31" x2="31.42" y2="269.91"/><line class="cls-5" x1="31.55" y1="263.92" x2="34.92" y2="260.54"/><line class="cls-5" x1="29.19" y1="255.86" x2="31.17" y2="257.84"/><ellipse class="cls-6" cx="12.03" cy="279.07" rx="5.92" ry="9.35" transform="translate(-209.99 109.57) rotate(-50.17)"/><ellipse class="cls-7" cx="12.03" cy="279.07" rx="5.35" ry="8.51" transform="translate(-209.99 109.57) rotate(-50.17)"/><line class="cls-7" x1="5.97" y1="279.89" x2="12.03" y2="279.34"/><line class="cls-7" x1="15.19" y1="281.59" x2="14.52" y2="274.25"/><line class="cls-7" x1="9.22" y1="276.55" x2="8.86" y2="272.5"/><line class="cls-7" x1="17.74" y1="283.79" x2="17.07" y2="276.37"/><line class="cls-7" x1="15.28" y1="281.87" x2="8.08" y2="282.52"/><line class="cls-7" x1="11.36" y1="278.6" x2="10.82" y2="272.53"/><line class="cls-7" x1="17.55" y1="284.09" x2="10.83" y2="284.7"/><line class="cls-5" x1="29.82" y1="293.9" x2="8.36" y2="276.01"/><line class="cls-5" x1="12.81" y1="283.38" x2="16.83" y2="283.02"/><line class="cls-5" x1="13.25" y1="279.89" x2="12.91" y2="276.12"/><line class="cls-5" x1="7.14" y1="277.24" x2="9.35" y2="277.03"/><ellipse class="cls-6" cx="45.45" cy="280.26" rx="10.36" ry="6.56" transform="translate(-181.81 110.07) rotate(-43.96)"/><ellipse class="cls-7" cx="45.45" cy="280.26" rx="9.44" ry="5.93" transform="translate(-181.81 110.07) rotate(-43.96)"/><line class="cls-7" x1="45.27" y1="273.49" x2="45.15" y2="280.23"/><line class="cls-7" x1="42.29" y1="283.43" x2="50.46" y2="283.58"/><line class="cls-7" x1="48.56" y1="277.47" x2="53.06" y2="277.55"/><line class="cls-7" x1="39.56" y1="285.98" x2="47.82" y2="286.13"/><line class="cls-7" x1="41.97" y1="283.51" x2="42.11" y2="275.5"/><line class="cls-7" x1="46.04" y1="279.58" x2="52.8" y2="279.7"/><line class="cls-7" x1="39.25" y1="285.74" x2="39.38" y2="278.26"/><line class="cls-5" x1="26.97" y1="298.08" x2="49.26" y2="276.59"/><line class="cls-5" x1="40.6" y1="280.6" x2="40.52" y2="285.08"/><line class="cls-5" x1="44.39" y1="281.5" x2="48.59" y2="281.58"/><line class="cls-5" x1="48.05" y1="275.09" x2="48.01" y2="277.55"/><ellipse class="cls-3" cx="15.13" cy="292.77" rx="7.26" ry="11.45" transform="matrix(0.04, -1, 1, 0.04, -278.01, 295.95)"/><ellipse class="cls-4" cx="15.13" cy="292.77" rx="6.56" ry="10.43" transform="translate(-278.01 295.96) rotate(-87.67)"/><line class="cls-4" x1="9.85" y1="298.09" x2="15.33" y2="293.04"/><line class="cls-4" x1="20.08" y1="292.87" x2="13.96" y2="286.23"/><line class="cls-4" x1="10.52" y1="292.42" x2="7.14" y2="288.76"/><line class="cls-4" x1="24.2" y1="293.1" x2="18.01" y2="286.39"/><line class="cls-4" x1="20.38" y1="293.07" x2="13.87" y2="299.08"/><line class="cls-4" x1="14.13" y1="292.82" x2="9.07" y2="287.32"/><line class="cls-4" x1="24.24" y1="293.54" x2="18.16" y2="299.15"/><line class="cls-5" x1="27.07" y1="293.26" x2="9.28" y2="292.53"/><line class="cls-5" x1="19.11" y1="296.38" x2="22.75" y2="293.03"/><line class="cls-5" x1="16.93" y1="292.67" x2="13.78" y2="289.25"/><line class="cls-5" x1="9" y1="294.64" x2="11.01" y2="292.79"/><ellipse class="cls-6" cx="25.6" cy="280.95" rx="6.56" ry="10.36" transform="translate(-99.22 27.95) rotate(-21.05)"/><ellipse class="cls-7" cx="25.6" cy="280.95" rx="5.93" ry="9.44" transform="translate(-99.22 27.95) rotate(-21.05)"/><line class="cls-7" x1="19.29" y1="278.48" x2="25.45" y2="281.22"/><line class="cls-7" x1="27.29" y1="285.1" x2="30.61" y2="277.63"/><line class="cls-7" x1="24.24" y1="277" x2="26.06" y2="272.89"/><line class="cls-7" x1="28.58" y1="288.6" x2="31.93" y2="281.05"/><line class="cls-7" x1="27.24" y1="285.42" x2="19.91" y2="282.17"/><line class="cls-7" x1="25.2" y1="280.14" x2="27.95" y2="273.97"/><line class="cls-7" x1="28.23" y1="288.79" x2="21.39" y2="285.76"/><line class="cls-5" x1="31.31" y1="295.75" x2="23.7" y2="276.01"/><line class="cls-5" x1="24.03" y1="285.55" x2="28.12" y2="287.37"/><line class="cls-5" x1="26.33" y1="282.41" x2="28.03" y2="278.57"/><line class="cls-5" x1="21.85" y1="276.54" x2="24.1" y2="277.54"/><ellipse class="cls-6" cx="44" cy="295.07" rx="6.56" ry="10.36" transform="translate(-254.33 296.68) rotate(-81.83)"/><ellipse class="cls-7" cx="44" cy="295.07" rx="5.93" ry="9.44" transform="translate(-254.33 296.68) rotate(-81.83)"/><line class="cls-7" x1="49.23" y1="290.77" x2="43.84" y2="294.81"/><line class="cls-7" x1="39.55" y1="294.52" x2="44.45" y2="301.06"/><line class="cls-7" x1="48.11" y1="295.81" x2="50.81" y2="299.41"/><line class="cls-7" x1="35.87" y1="293.93" x2="40.82" y2="300.54"/><line class="cls-7" x1="39.3" y1="294.31" x2="45.71" y2="289.51"/><line class="cls-7" x1="44.9" y1="295.12" x2="48.95" y2="300.53"/><line class="cls-7" x1="35.87" y1="293.53" x2="41.86" y2="289.05"/><line class="cls-5" x1="31.56" y1="293.28" x2="49.24" y2="295.82"/><line class="cls-5" x1="40.75" y1="291.45" x2="37.17" y2="294.13"/><line class="cls-5" x1="42.37" y1="294.99" x2="44.88" y2="298.35"/><line class="cls-5" x1="49.68" y1="293.95" x2="47.71" y2="295.43"/><ellipse class="cls-6" cx="27.25" cy="300.81" rx="10.36" ry="6.56" transform="translate(-258.73 203.62) rotate(-66.05)"/><ellipse class="cls-7" cx="27.25" cy="300.81" rx="9.44" ry="5.93" transform="translate(-258.73 203.63) rotate(-66.05)"/><line class="cls-7" x1="29.97" y1="307.02" x2="27.54" y2="300.73"/><line class="cls-7" x1="28.99" y1="296.69" x2="21.37" y2="299.62"/><line class="cls-7" x1="25.42" y1="304.57" x2="21.22" y2="306.19"/><line class="cls-7" x1="30.55" y1="293.3" x2="22.85" y2="296.27"/><line class="cls-7" x1="29.26" y1="296.5" x2="32.14" y2="303.97"/><line class="cls-7" x1="26.96" y1="301.67" x2="20.66" y2="304.09"/><line class="cls-7" x1="30.94" y1="293.41" x2="33.63" y2="300.39"/><line class="cls-5" x1="31.28" y1="291.4" x2="25.1" y2="305.65"/><line class="cls-5" x1="31.62" y1="298.67" x2="30.01" y2="294.5"/><line class="cls-5" x1="27.77" y1="299.27" x2="23.85" y2="300.78"/><line class="cls-5" x1="26.78" y1="306.59" x2="25.9" y2="304.29"/><rect class="cls-8" x="133.65" y="315.26" width="2.54" height="96.47"/><rect class="cls-8" x="147.08" y="315.26" width="2.54" height="96.47"/><rect class="cls-8" x="30.91" y="315.26" width="2.54" height="96.47"/><rect class="cls-8" x="42.32" y="315.26" width="2.54" height="96.47"/><rect class="cls-9" x="43.35" y="317.97" width="106.28" height="6.86" transform="translate(192.97 642.8) rotate(180)"/><rect class="cls-10" x="37.19" y="309.18" width="125.83" height="8.79" transform="translate(200.21 627.14) rotate(180)"/><rect class="cls-11" x="25.93" y="317.97" width="46.79" height="6.86" transform="translate(98.66 642.8) rotate(180)"/><line class="cls-5" x1="60.91" y1="321.02" x2="32.46" y2="321.19"/><rect class="cls-12" x="21.63" y="309.18" width="58.58" height="8.79" transform="translate(101.84 627.14) rotate(180)"/><path class="cls-13" d="M84,261.84h55.54a3.36,3.36,0,0,1,3.27,2.62l9.32,41.07a2.61,2.61,0,0,1-2.55,3.19H93.86a4.33,4.33,0,0,1-4.22-3.37l-8.94-39.4A3.36,3.36,0,0,1,84,261.84Z"/><circle class="cls-8" cx="113.89" cy="263.13" r="0.79"/><path class="cls-14" d="M86.75,264.45h50.79a3.07,3.07,0,0,1,3,2.39l8.52,37.56a2.39,2.39,0,0,1-2.33,2.92H95.79a4,4,0,0,1-3.86-3.08l-8.18-36A3.07,3.07,0,0,1,86.75,264.45Z"/><path class="cls-15" d="M97.4,273.75h32.32L135.22,298H103.3a.5.5,0,0,1-.49-.39Z"/><polygon class="cls-14" points="127.02 294.99 124.32 283.3 126.64 283.3 129.34 294.99 127.02 294.99"/><polygon class="cls-14" points="122.88 286.33 124.88 294.99 122.56 294.99 120.56 286.33 122.88 286.33"/><polygon class="cls-14" points="118.42 286.33 120.42 294.99 118.11 294.99 116.1 286.33 118.42 286.33"/><polygon class="cls-14" points="114.64 289.24 115.97 294.99 113.65 294.99 112.32 289.24 114.64 289.24"/><polygon class="cls-14" points="110.7 291.49 111.51 294.99 109.19 294.99 108.38 291.49 110.7 291.49"/><polyline class="cls-16" points="103.27 280.52 106.79 295.03 131.15 295.03"/><path class="cls-16" d="M107.48,291.73l18-11.54"/><polyline class="cls-16" points="124.07 280.06 125.52 280.06 125.52 281.47"/><polygon class="cls-17" points="130.52 277.28 129.72 273.75 97.4 273.75 98.2 277.28 130.52 277.28"/><path class="cls-13" d="M175.45,309.13H92.8A3.15,3.15,0,0,1,89.65,306v-.78h80.88A5,5,0,0,1,175.45,309.13Z"/><path class="cls-15" d="M112.59,309.13a3.93,3.93,0,0,1,3.93-3.93h54a5,5,0,0,1,4.92,3.93Z"/><path class="cls-15" d="M251.64,411.62h53.58a15.75,15.75,0,0,0,.23-1.76h.16l-.16,0a15.56,15.56,0,0,0,0-1.75,19.77,19.77,0,0,0-8-15.13l-.31-2.29a24.79,24.79,0,0,0-6.38-11l-5-3.88a24.7,24.7,0,0,0-12.52-3.39,18.69,18.69,0,0,0-9.56,2.14,19,19,0,0,0-1.89.74l-.13-.14L258,372.3a18.12,18.12,0,0,0-9.18-2.48,13.71,13.71,0,0,0-7,1.57c-.26.08-.5.2-.74.3C213.37,321.53,217,209.85,217,209.85H197.84s4,125-29.27,169.91A11.21,11.21,0,0,0,163,378a7.59,7.59,0,0,0-4,0,11.22,11.22,0,0,0-5.6,1.79l-3.05,2.36-2.08,2.69a19.07,19.07,0,0,0-7.3-1.47,15,15,0,0,0-7.65,1.71,14.88,14.88,0,0,0-6.39,4.1A15.08,15.08,0,0,0,124,393a14,14,0,0,0-8.27-2.66c-7.6,0-14.87,6.68-14.52,14.52a15.93,15.93,0,0,0,1.84,6.77Z"/><path class="cls-15" d="M119.75,371.67c-7.1,0-7.11,11,0,11S126.86,371.67,119.75,371.67Z"/><path class="cls-15" d="M269.9,341.28a8.6,8.6,0,0,0-5.85-2.42,8.5,8.5,0,0,0-8.27,8.27,8.36,8.36,0,0,0,2.42,5.85,8.6,8.6,0,0,0,5.85,2.42,8.5,8.5,0,0,0,8.27-8.27A8.36,8.36,0,0,0,269.9,341.28Z"/><path class="cls-18" d="M139.8,393.57c-7.81,0-7.82,12.13,0,12.13S147.61,393.57,139.8,393.57Z"/><path class="cls-18" d="M172.66,390.35c-4.73,0-4.74,7.35,0,7.35S177.4,390.35,172.66,390.35Z"/><path class="cls-18" d="M187.22,407.93l2.6,2a12.78,12.78,0,0,0,5.06,1.67H198a15.53,15.53,0,0,0,7.44-3.68,14.32,14.32,0,0,0,3.77-9.1l-.46-3.42a12.86,12.86,0,0,0-3.31-5.68l-2.6-2a12.81,12.81,0,0,0-6.49-1.76,14.32,14.32,0,0,0-9.1,3.77,14.32,14.32,0,0,0-3.77,9.1l.46,3.42A12.86,12.86,0,0,0,187.22,407.93Z"/><path class="cls-18" d="M226.91,411.62h7.76c6.8-3.47,5.52-16-3.88-16S220.11,408.15,226.91,411.62Z"/><path class="cls-18" d="M250.43,384.92c-4.49,0-4.5,7,0,7S254.93,384.92,250.43,384.92Z"/><path class="cls-18" d="M256,306.38c-16.32,0-16.35,25.37,0,25.37S272.39,306.38,256,306.38Z"/><path class="cls-18" d="M302.25,355.83a7.54,7.54,0,0,0-10.66,0,8.39,8.39,0,0,0-2.21,5.33,7.62,7.62,0,0,0,2.21,5.33,7.54,7.54,0,0,0,10.66,0,8.38,8.38,0,0,0,2.21-5.33A7.62,7.62,0,0,0,302.25,355.83Z"/><path class="cls-18" d="M160.26,341.89a5.7,5.7,0,0,0-8.06,0,5.7,5.7,0,0,0,0,8.06,5.7,5.7,0,0,0,8.06,0,5.7,5.7,0,0,0,0-8.06Z"/><path class="cls-18" d="M271.27,380.45a14,14,0,1,0,14,14A14.19,14.19,0,0,0,271.27,380.45Z"/><path class="cls-18" d="M301,411.62a5.16,5.16,0,0,0,.09-1.16,6.69,6.69,0,0,0-1.94-4.68,6.62,6.62,0,0,0-9.36,0,7.36,7.36,0,0,0-1.94,4.68,8.75,8.75,0,0,0,.13,1.16Z"/><path class="cls-18" d="M219.56,370.13c-13.72,0-13.74,21.32,0,21.32S233.31,370.13,219.56,370.13Z"/><path class="cls-19" d="M205.2,220a789.37,789.37,0,0,1-11.7,136.22"/><path class="cls-19" d="M213.4,261.34A302.38,302.38,0,0,0,227.79,352"/><line class="cls-19" x1="209.54" y1="237.7" x2="209.54" y2="303.85"/><path class="cls-19" d="M176.36,375.23a125.06,125.06,0,0,0,13.43-36.95"/><path class="cls-20" d="M156.63,389.08c-9.46,0-9.48,14.71,0,14.71S166.11,389.08,156.63,389.08Z"/><path class="cls-20" d="M241.61,336.13c-3.31,0-3.32,5.15,0,5.15S244.93,336.13,241.61,336.13Z"/><path class="cls-15" d="M280.09,294.26c-3.55,0-3.55,5.51,0,5.51S283.64,294.26,280.09,294.26Z"/><line class="cls-19" x1="205.69" y1="311.71" x2="205.69" y2="358.13"/><path class="cls-19" d="M213.53,323.2a133.76,133.76,0,0,0,11.82,45.61"/><path class="cls-14" d="M231.05,153.93,247.61,162s2.65,37.39-13.25,60.14l-5.3-52.54Z"/><path class="cls-21" d="M234.2,191.41l2.7,20.51"/><path class="cls-14" d="M184.4,153.93,167.84,162s-2.65,37.39,13.25,60.14l5.3-52.54Z"/><path class="cls-21" d="M171.78,164.36a81.24,81.24,0,0,0,2,28.15"/><rect class="cls-22" x="198.53" y="197.89" width="18.39" height="25.19"/><path class="cls-23" d="M221.27,201.42H194.19c-4.81,0-8.94-4.14-9.88-9.87a347.64,347.64,0,0,1,0-114.13c.94-5.73,5.07-9.87,9.88-9.87h27.08c4.81,0,8.94,4.14,9.88,9.87a347.63,347.63,0,0,1,0,114.13C230.2,197.28,226.07,201.42,221.27,201.42Z"/><line class="cls-21" x1="210.63" y1="196.28" x2="210.63" y2="178.69"/><line class="cls-21" x1="207.73" y1="201.81" x2="207.73" y2="67.67"/><circle class="cls-24" cx="207.73" cy="127.27" r="19.36"/><circle class="cls-25" cx="207.73" cy="127.27" r="13.01"/><path class="cls-23" d="M213.77,125.33a6,6,0,0,0-6.13-6,6.13,6.13,0,0,0-5.95,6.2,6,6,0,0,0,3.59,5.36,1.48,1.48,0,0,1,.89,1.35v3.34h3.11V132.2a1.49,1.49,0,0,1,.9-1.36A6,6,0,0,0,213.77,125.33Z"/><path class="cls-21" d="M206.95,132.3a16.65,16.65,0,0,0-1.43-5.46"/><path class="cls-21" d="M208.34,132.3a16.65,16.65,0,0,1,1.43-5.46"/><path class="cls-26" d="M207.73,136.54h0a1.37,1.37,0,0,1-1.37-1.37v-.28a1.37,1.37,0,0,1,1.37-1.37h0a1.37,1.37,0,0,1,1.37,1.37v.28A1.37,1.37,0,0,1,207.73,136.54Z"/><rect class="cls-27" x="205.95" y="132.49" width="3.56" height="3.12" rx="0.44" ry="0.44"/><path class="cls-14" d="M184.31,77.42l19.18-49.14c2.36-6.06,9.53-5.79,11.58.43l16.07,48.71s-4.81-9.37-23.27-9.37C190.72,68.05,184.31,77.42,184.31,77.42Z"/><path class="cls-21" d="M192.12,65.7l13.6-32.15"/><rect class="cls-22" x="187.63" y="216.32" width="40.2" height="11.71"/><path class="cls-26" d="M194.65,206.79H220.8a7,7,0,0,1,7,7v5.07a0,0,0,0,1,0,0H187.6a0,0,0,0,1,0,0v-5.07A7,7,0,0,1,194.65,206.79Z"/><line class="cls-21" x1="192.17" y1="227.76" x2="192.17" y2="214.75"/><line class="cls-21" x1="202.54" y1="227.76" x2="202.54" y2="214.75"/><line class="cls-21" x1="212.91" y1="227.76" x2="212.91" y2="214.75"/><line class="cls-21" x1="223.29" y1="227.76" x2="223.29" y2="214.75"/><path class="cls-15" d="M176.48,166.86a6,6,0,0,0-4.39,1.73,11.68,11.68,0,0,0-1-1.12l-2.27-1.75a11.16,11.16,0,0,0-5.66-1.53,12.48,12.48,0,0,0-7.93,3.28A12.48,12.48,0,0,0,152,175.4l.4,3c0,.08.06.15.08.22a8.43,8.43,0,0,0-4.57,5.42,10.16,10.16,0,0,0-.25,2.74,5.5,5.5,0,0,0-2.13,9.1,5.51,5.51,0,0,0,7.8,0,5.6,5.6,0,0,0,.94-1.28,8.63,8.63,0,0,0,7.88-2.28l.12-.12,1.32-1.71a6.3,6.3,0,0,0,1-3.15,4.36,4.36,0,0,0,.13-.81,13.58,13.58,0,0,0,6.42-3.2,8.41,8.41,0,0,0,2.32-3.61c.1-.19.17-.39.26-.58a6.5,6.5,0,0,0,2.79.59C184.76,179.73,184.77,166.86,176.48,166.86Z"/><path class="cls-15" d="M187.22,157.61c-7.57,0-7.58,11.76,0,11.76S194.8,157.61,187.22,157.61Z"/><path class="cls-15" d="M194.69,152.16c-5,0-5,7.72,0,7.72S199.66,152.16,194.69,152.16Z"/><path class="cls-15" d="M211.5,160.18a0,0,0,0,0,0,.09A0,0,0,0,0,211.5,160.18Z"/><path class="cls-15" d="M255.85,141.92a5.37,5.37,0,0,0-5.5,5.55,7.63,7.63,0,0,0-4.31-1.22,7.32,7.32,0,0,0-7.52,6.44,5.9,5.9,0,0,0-3.52,1.64,5.7,5.7,0,0,0,0,8.06,5.7,5.7,0,0,0,8.06,0,5.41,5.41,0,0,0,.56-.67,8.42,8.42,0,0,0,2.42.34c5.63,0,8.15-4.85,7.54-9.17a5.83,5.83,0,0,0,2.26.43C263.18,153.32,263.19,141.92,255.85,141.92Z"/><path class="cls-15" d="M257.25,142a0,0,0,0,0,0,.09A0,0,0,0,0,257.25,142Z"/><path class="cls-15" d="M268,113.7a11.69,11.69,0,0,0-1.24.07,7.86,7.86,0,0,0-10.89.25,8.79,8.79,0,0,0-2.32,5.59,8,8,0,0,0,2.32,5.59,9,9,0,0,0,2.8,1.78,9.82,9.82,0,0,0,2.56,4.38c-5.48,3.44-4.17,14,4,14,6.84,0,8.86-7.49,6-11.91C280.89,130.38,279.83,113.7,268,113.7Z"/><path class="cls-15" d="M250,116.1a5,5,0,0,0-7,0,5,5,0,0,0,0,7,5,5,0,0,0,7,0,5,5,0,0,0,0-7Z"/><path class="cls-15" d="M285.26,105.11c-5.44,0-5.45,8.46,0,8.46S290.71,105.11,285.26,105.11Z"/><path class="cls-15" d="M182.55,88a1.29,1.29,0,0,0,0,2.57A1.29,1.29,0,0,0,182.55,88Z"/><path class="cls-15" d="M175.68,83.07a4,4,0,0,0-.55-2,6,6,0,0,0-1.66-2.58l0-.06a8,8,0,0,0-11.38,0A6,6,0,0,0,160.38,81a6.06,6.06,0,0,0-.69,3.1,8,8,0,0,0,1.1,4.06,8.1,8.1,0,0,0,6.95,4h.07l2.13-.29,1.91-.81,1.62-1.25a6,6,0,0,0,1.66-2.58,4,4,0,0,0,.55-2A4,4,0,0,0,175.68,83.07Z"/><path class="cls-15" d="M157.34,70.54a3.31,3.31,0,1,0,3.31,3.31A3.35,3.35,0,0,0,157.34,70.54Z"/><path class="cls-15" d="M160.61,65.65a.74.74,0,0,0,0,1.47A.74.74,0,0,0,160.61,65.65Z"/><path class="cls-15" d="M174.15,51.43c-6.62,0-6.63,10.29,0,10.29S180.78,51.43,174.15,51.43Z"/><path class="cls-15" d="M192.35,48.39a1.66,1.66,0,0,0,0,3.31A1.66,1.66,0,0,0,192.35,48.39Z"/><path class="cls-15" d="M211,37.71c-6.86,0-6.87,10.66,0,10.66S217.9,37.71,211,37.71Z"/><path class="cls-15" d="M235.31,34.5c-3.78,0-3.79,5.88,0,5.88S239.1,34.5,235.31,34.5Z"/><path class="cls-28" d="M4.39,395.11c-.23-1.44,1.21-2.16,2.3-3.09,1.18-.3,2.54-2.24,3.31-3.1,2.2-2.46,9.17-12.49,9.17-12.49l7.24,2.16S19,389.06,18.6,389.89a13.88,13.88,0,0,0,.72,8.52,2.22,2.22,0,0,1-.1,1.88h0a2.28,2.28,0,0,1-3.08,1Z"/><path class="cls-8" d="M51.7,345.39l15-47.34,3.44-13.57c3.8-15-18.7-21.41-23-6.54a23.17,23.17,0,0,0-.69,3.36l-2.18,16.46L39,332l-8.77,12.25L12.68,384.41c2,1.76,3.76,3.6,7,3.88Z"/><path class="cls-17" d="M1.06,401.57l26.8,14a1.35,1.35,0,0,0,1.82-.57h0a1.35,1.35,0,0,0-.57-1.82l-26.8-14a1.35,1.35,0,0,0-1.82.57h0A1.35,1.35,0,0,0,1.06,401.57Z"/><path class="cls-14" d="M19.42,395.95l3.75,8.22s7,4.61,7.84,8.46c0,0-.42,2.1-1.49,1.54L2.1,399.82a1.36,1.36,0,0,1-.53-1.92L7.65,388s2.64.43,1.92,4.14S19.42,395.95,19.42,395.95Z"/><path class="cls-17" d="M14.31,396.59c-1.93-.4-4.13-.83-5.55-2.31s.71-3-.53-4.62c-.3-.39-.58-.78-.91-1.13l.32-.53s2.64.43,1.92,4.14,9.85,3.81,9.85,3.81l.36.79A27.91,27.91,0,0,1,14.31,396.59Z"/><path class="cls-29" d="M21,398.93a2.13,2.13,0,0,0-1.78,0"/><path class="cls-29" d="M22,401.07a1.54,1.54,0,0,0-1.61,0"/><path class="cls-29" d="M23.06,403.29a1.63,1.63,0,0,0-1.69.15"/><path class="cls-16" d="M14.54,396.16c2.59-.88,3.77,2.19,4.18,4.11a7.38,7.38,0,0,0,1.3,3.36,17.17,17.17,0,0,0,1.42,1.29,2.61,2.61,0,0,1,.93,1.63"/><path class="cls-16" d="M6.63,402.46A9.88,9.88,0,0,0,4.09,394"/><path class="cls-16" d="M23.62,404.67l-2,.4"/><line class="cls-16" x1="30.46" y1="413.77" x2="6.96" y2="401.47"/><path class="cls-16" d="M6,396.27a9.26,9.26,0,0,0,2.73-4.61"/><path class="cls-28" d="M54.12,410.6c-.87-1.17.07-2.47.61-3.8.91-.82,1.22-3.16,1.5-4.28.81-3.2,2.33-15.32,2.33-15.32L66,385.76s-1.76,12.74-1.68,13.63a13.89,13.89,0,0,0,4.59,7.22,2.22,2.22,0,0,1,.78,1.72h0a2.28,2.28,0,0,1-2.28,2.28Z"/><path class="cls-17" d="M73,344.62l2.44-47.34-.81-21.43c0-15.48-23.34-16.23-23.87-.76a23.16,23.16,0,0,0,.14,3.43l2.74,23.93,1.95,36.2-2.1,14.92,3,43.72c2.57.64,5,1.44,8,.19Z"/><path class="cls-17" d="M54.17,417.87H84.42a1.35,1.35,0,0,0,1.35-1.35h0a1.35,1.35,0,0,0-1.35-1.35H54.17a1.35,1.35,0,0,0-1.35,1.35h0A1.35,1.35,0,0,0,54.17,417.87Z"/><path class="cls-14" d="M67.83,404.38,75,409.92s8.33.85,10.86,3.86c0,0,.6,2.05-.6,2.05H54.28a1.36,1.36,0,0,1-1.36-1.45l.79-11.58s2.54-.84,3.62,2.78S67.83,404.38,67.83,404.38Z"/><path class="cls-17" d="M63.59,407.32c-1.9.55-4,1.18-6,.53s-.78-3-2.61-3.85c-.45-.2-.88-.42-1.33-.58l0-.62s2.54-.84,3.62,2.78,10.5-1.2,10.5-1.2l.69.54A27.91,27.91,0,0,1,63.59,407.32Z"/><path class="cls-29" d="M70.58,406.31a2.13,2.13,0,0,0-1.58.8"/><path class="cls-29" d="M72.49,407.72a1.54,1.54,0,0,0-1.43.75"/><path class="cls-29" d="M74.46,409.2a1.63,1.63,0,0,0-1.43.92"/><path class="cls-16" d="M63.6,406.83c1.89-2,4.36.19,5.61,1.71a7.38,7.38,0,0,0,2.71,2.38,17.14,17.14,0,0,0,1.86.49,2.61,2.61,0,0,1,1.58,1"/><path class="cls-16" d="M59.51,416.08a9.88,9.88,0,0,0-6.18-6.35"/><path class="cls-16" d="M75.6,410.16,74,411.44"/><line class="cls-16" x1="85.87" y1="415.05" x2="59.34" y2="415.05"/><path class="cls-16" d="M56.07,410.89a9.25,9.25,0,0,0,.28-5.35"/><path class="cls-28" d="M101.16,183.85,82,210.82l-24.58-5.88s-10.23,2.58-9.45,8.21c.44,3.15,21,10.86,37,8.93,7.23-8.73,21.26-37.45,21.26-37.45Z"/><path class="cls-30" d="M57.43,204.95l18,4.31a27.67,27.67,0,0,1-1.31,12.86c-13.16-1.24-25.83-6.5-26.17-9C47.19,207.52,57.43,204.95,57.43,204.95Z"/><path class="cls-31" d="M71.06,223.26c-13.5-1.46-24.72-7.44-25-9.8-.85-6.11,3.43-11.59,9.24-11.92l16.1,5.56C73.42,212.45,72.82,217.88,71.06,223.26Z"/><path class="cls-5" d="M71.31,206.85c2.12,5.19,1.28,11.08-.65,16.35"/><polygon class="cls-28" points="100.1 185.61 102.99 178.29 108.76 177.03 111.72 178.46 111.95 183.55 105.54 185.19 100.1 185.61"/><path class="cls-32" d="M107.57,177.29a14.7,14.7,0,0,1,6.61.66c.24.08.53.24.51.5s-.42.38-.72.38h-3.12"/><rect class="cls-8" x="105.5" y="171.36" width="4.56" height="16.03" transform="translate(-24.76 17.43) rotate(-8.3)"/><path class="cls-8" d="M105,173.26l-1.44.26a3.42,3.42,0,0,1-4-2.75h0a3.42,3.42,0,0,1,2.75-4l1.44-.26Z"/><path class="cls-15" d="M101.57,165.57l4.18-.76c4.11-.75,12.33-4.28,14.09-8.07l2.14-4.61,5.14,28.23-3.62-3.56c-3-2.93-11.93-3.39-16-2.64l-4.18.76Z"/><rect class="cls-14" x="103.46" y="165.14" width="1.88" height="9.51" transform="translate(-28.73 21.43) rotate(-10.31)"/><path class="cls-14" d="M105.59,164.84l.15,0a12.84,12.84,0,0,0,1.83-.49l1.76,9.66a12.8,12.8,0,0,0-1.88.19l-.15,0Z"/><path class="cls-14" d="M127.59,181h0a1,1,0,0,0,.79-1.14l-5.15-28.32a1,1,0,0,0-1.14-.79h0a1,1,0,0,0-.79,1.14l5.15,28.32A1,1,0,0,0,127.59,181Z"/><path class="cls-32" d="M111.53,183.68l-4.3,1.14a.91.91,0,0,1-.4,0,.31.31,0,0,1-.26-.27.46.46,0,0,1,.19-.32,9.65,9.65,0,0,1,3.41-1.87"/><path class="cls-32" d="M111.46,182.43a18.49,18.49,0,0,1-5.11.83c0-.52.43-.92.87-1.2a9,9,0,0,1,3.73-1.3"/><path class="cls-32" d="M110.95,180.74a13.43,13.43,0,0,1-3.57.91c-.31,0-.69,0-.86-.23a.61.61,0,0,1,.15-.74,1.78,1.78,0,0,1,.73-.35l3.77-1.16"/><path class="cls-32" d="M104.88,178.69l5.6-.79c.27,0,.68.3.67.56a.89.89,0,0,1-.42.66,2.63,2.63,0,0,1-.74.3l-3,.88a2.81,2.81,0,0,1-2,2.32"/><path class="cls-28" d="M40.61,205.16,48.5,209l9.22-3.85c-.34-.88-1.86-4.53-3.23-7.83l-.24-.58-2.18-5.22-10.14-3-3.78-1.12c0,.06,1,3.17,1.15,3.62A30.8,30.8,0,0,1,40.61,205.16Z"/><path class="cls-30" d="M47.6,193.8a37.54,37.54,0,0,0,7.2,4.29l-.3-.73-.24-.58-2.18-5.22-9.93-2.93A50.23,50.23,0,0,0,47.6,193.8Z"/><path class="cls-28" d="M62.2,189.85a105.08,105.08,0,0,0-1.36-10.44,47.38,47.38,0,0,1-3.32-6.13c-.41-1,0-2.14-.31-2.8-2.56-5-6.86-10.13-12.35-11.47-7.21-1.77-14.62,2.48-16.24,9.63C27.19,175,31.11,183,36,187.32c3.83,3.37,8.74,3.87,13.48,4.13A41.52,41.52,0,0,0,59.58,191,5.27,5.27,0,0,0,62.2,189.85Z"/><path class="cls-33" d="M23.17,167.27a8.16,8.16,0,0,1,3.13-1.89,3.34,3.34,0,0,1-2.22-3.6,5.31,5.31,0,0,1,1.54-3.31,6.24,6.24,0,0,1,1.4-.85c.43-.23,1.47-.48,1.78-.82.46-.52,0-1.74.2-2.44a4.08,4.08,0,0,1,1.3-2.21,4.16,4.16,0,0,1,4.6-.46,3.28,3.28,0,0,1,6.47.51c0-1.77,1.69-1.91,3-2.07a5.19,5.19,0,0,1,4.36,1.58,8.51,8.51,0,0,1,2.07,4,4.27,4.27,0,0,1,3.67.15,5.42,5.42,0,0,1,2.11,6.25,2.71,2.71,0,0,1-2.9,1.63,1.71,1.71,0,0,1,1.23,1.83,2.58,2.58,0,0,1-1.35,1.9,3.61,3.61,0,0,1-4.8-1.4,2,2,0,0,1-1,1.85c-.84.46-1.68.06-2.5-.14a3.63,3.63,0,0,1-2.36-1.44c1.33,2.56,3.46,5.43,3.92,8.3.1.63.46,2.11.58,2.94a8.74,8.74,0,0,0-4.67,4.64,16,16,0,0,0-1.26,6.75,6.14,6.14,0,0,1-3.13.93A7.89,7.89,0,0,1,35,188.71l-.69-.41L32,186.83a10.6,10.6,0,0,1-1.58-1.13A5.44,5.44,0,0,1,29,180a4.25,4.25,0,0,1-4.41-7.13A2.65,2.65,0,0,1,22,170.63,4,4,0,0,1,23.17,167.27Z"/><path class="cls-28" d="M57.64,173.8s2,3.77,4.78,4.31-3,2.73-3,2.73Z"/><path class="cls-34" d="M46.56,177.85A6.68,6.68,0,0,0,42.82,176c-1.56,0-2.34,1.57-2.34,2.94a7.47,7.47,0,0,0,2.63,5.34,5.28,5.28,0,0,0,3.94,1"/><path class="cls-5" d="M43.2,179.51a2.8,2.8,0,0,1,2.21,1.57,1.07,1.07,0,0,0,1.14,1.77"/><path class="cls-5" d="M53.48,170.18a2.92,2.92,0,0,0-1.82,2.24"/><ellipse class="cls-8" cx="54.83" cy="174.2" rx="0.8" ry="1.2" transform="translate(-87.74 60.07) rotate(-33.85)"/><path class="cls-14" d="M75.37,250.22c-1.7-11.62-3.8-22.6-8.75-33.42-1.55-3.4-3.54-7-5.32-10.24-1.56-2.85-4.09-3.56-7-4.31a24.92,24.92,0,0,0-16.38.93.32.32,0,0,0-.13.08c-4.42,4.92-3.15,13.34-2,18.59,2,9.59,4.44,17.4,5.62,26.41a102.64,102.64,0,0,1,.33,25.59,12.8,12.8,0,0,0-.15,3.66,51.73,51.73,0,0,0,19.61,3.91c3.4.08,6.25-.44,10-.69,1-.07,9.21-1.22,9-2.67-1.1-6.83-2.9-12.53-3.65-19.25C76.15,255.95,75.81,253.19,75.37,250.22Z"/><path class="cls-5" d="M38.58,203c8.41-3.18,15.43-2,22.83,3"/><path class="cls-28" d="M103.33,218.91s4.34-5.17,5.86-5.68,7.88-.58,7.79.62-4.8,2.57-6.42,4-2.4,3.25-3.8,3.93a18,18,0,0,1-3.09,1.08Z"/><path class="cls-28" d="M103.33,218.91a24.37,24.37,0,0,0,1.94-4.41.25.25,0,0,1,.35-.18c.42.18,1,.66.51,1.9A6,6,0,0,1,103.33,218.91Z"/><path class="cls-28" d="M103.68,219,71.3,234.84,51.89,208.9c-4.29-3.11-6-2-9,2.82-1.63,2.69-2.25,3.24-2.23,6.41,6,11.05,16.18,25.89,28.14,32.1,6.77-.2,38-29,38-29Z"/><path class="cls-30" d="M60.67,242.76c-.31.31-.63.6-1,.89-7.95-7.28-14.59-17.41-19-25.52,0-3.17.59-3.73,2.23-6.41,2.92-4.8,4.66-5.93,9-2.82l16.27,21.74A36.67,36.67,0,0,1,60.67,242.76Z"/><path class="cls-14" d="M51.18,239.44c-6.24-6.59-10.94-14-12.27-21.07a17.2,17.2,0,0,1,2.14-9.1,9.34,9.34,0,0,1,13.38-3.09L67.13,224C63.95,230.41,57.69,235.82,51.18,239.44Z"/><path class="cls-5" d="M39.37,220.57A111.94,111.94,0,0,0,51,239.42"/><path class="cls-5" d="M43.75,206.78a7.56,7.56,0,0,1,4.14-2.37c3.58-.71,6.11,1.58,8.25,4.35s4.06,5.6,5.86,8.43"/><path class="cls-5" d="M38,222l3.38,2.75"/><path class="cls-8" d="M60.34,181.32a14.84,14.84,0,0,1,.3,1.54,7.86,7.86,0,0,1,.16,2,4.35,4.35,0,0,1-5.05-2.71C55.38,181.1,58.62,181.66,60.34,181.32Z"/><path class="cls-35" d="M260.08,384H404.2a14.16,14.16,0,0,1,14.16,14.16v13.63a0,0,0,0,1,0,0H245.92a0,0,0,0,1,0,0V398.11A14.16,14.16,0,0,1,260.08,384Z"/><path class="cls-8" d="M310.88,321.88h34.38l-2.08-55.61A15.81,15.81,0,0,0,327.39,251h0a15.81,15.81,0,0,0-15.8,15.6Z"/><path class="cls-36" d="M316.83,300.72c5.22-5.5,5.53-13.95,4.29-21.76l14.48.18a29.11,29.11,0,0,0-2.15,9.48,32.65,32.65,0,0,0,.1,7.58c.31,1.91,1.23,3.66,1.36,5.61a8.75,8.75,0,0,1-2.18,5.7,21.77,21.77,0,0,1-4.91,4.94,11.55,11.55,0,0,1-6.36,2.2,5.54,5.54,0,0,1-3.48-1A6.54,6.54,0,0,1,315.9,310a13.7,13.7,0,0,1,.23-7.58A17.06,17.06,0,0,1,316.83,300.72Z"/><path class="cls-37" d="M334.36,281.36a20.17,20.17,0,0,1-7.08,8.33,16.5,16.5,0,0,1-4.87,2.13c-.37,0-.74,0-1.13,0a28.39,28.39,0,0,0,.3-8.91L335.18,279Z"/><path class="cls-38" d="M315.34,298.13s8.16,5,5.44,12.07c-2.06,5.37-10.7,29.91-13.62,33.5-8.22,10.09-22,15.29-32.61,17.21a16.92,16.92,0,0,1-2.2-1.52,10.17,10.17,0,0,1-1.54-2.14s25.55-21.55,26.68-24.82S307.77,292.81,315.34,298.13Z"/><path class="cls-39" d="M297.29,332.48c2.53-8.25,3.12-12.2,6.19-20.15,1.36-3.52,6.22-13.93,9.81-14.5"/><path class="cls-39" d="M300.7,335a6.2,6.2,0,0,0-3.53-2.12"/><path class="cls-39" d="M300.07,336.74a9.25,9.25,0,0,0-2-3.36,1.22,1.22,0,0,0-1-.5"/><path class="cls-39" d="M297.13,332.83c-3.38,3.83-12.26,11.78-15.36,14.61S274.19,354.32,271,357"/><path class="cls-39" d="M270.89,357.08a7.07,7.07,0,0,0,4.3,3.93"/><path class="cls-39" d="M273.24,355.06c.71,1.87,2.84,3.81,4.45,5"/><path class="cls-39" d="M273.82,356.29,271.47,358"/><path class="cls-39" d="M275.13,357.9l-2.32,1.6"/><path class="cls-39" d="M276.5,359.23l-1.94,1.4"/><path class="cls-39" d="M275.23,361c1-.33,1.59-.45,2.6-.78"/><path class="cls-40" d="M275.35,357a4.63,4.63,0,0,0-5.38.85,8.32,8.32,0,0,0-1.69,3.18,1.82,1.82,0,0,0-.13,1,1.25,1.25,0,0,0,.91.82,3.7,3.7,0,0,0,1.27,0c1.53-.13,6.14.29,7.1-1C278.55,360.38,276.64,357.68,275.35,357Z"/><path class="cls-40" d="M278.72,359.61c.21.1.42.18.64.26s.28.11.31.25-.13.29-.27.37a4.65,4.65,0,0,1-2.24.57c-.62,0-1.63.23-2.11-.27s-.19-1.38.18-1.84a1.18,1.18,0,0,1,1.8-.3A14.91,14.91,0,0,0,278.72,359.61Z"/><path class="cls-8" d="M335,386.6H308.69c-6.86-3.15-11.48-9.69-11.24-17.2l5-9.19h42.32c7,6.51,6.16,14.73,1.77,20.71l-.05.07A14.23,14.23,0,0,1,335,386.6Z"/><path class="cls-36" d="M313.38,389.14c.86-1.69,2-3.25,2.84-4.91,4.54,1.87,13,5.47,17.69,6.33a16.5,16.5,0,0,0,2.11.25c1.26.06,2.76.54,3.07,1.74s-.59,2-1.37,2.76l-5,4.68c-1,.94-2.21,1.92-3.69,1.69-1.75-.27-2.49-1.79-3.48-3a19.45,19.45,0,0,0-4.81-4c-1.39-.86-6.72-3.2-7.83-4.4C313,389.86,313.2,389.5,313.38,389.14Z"/><path class="cls-17" d="M338.35,389.72a16.38,16.38,0,0,1-2.37,0,45.66,45.66,0,0,1-8.7-1.83,18.86,18.86,0,0,1-4.72,8.69,16.23,16.23,0,0,1,3.43,3.4c1.06,1.5,1.19,4.11,3.37,4.36,1.84.21,4-1.79,5.33-3.06C341.9,394.08,338.35,389.72,338.35,389.72Z"/><path class="cls-17" d="M333,390.34l-3.35-1.09a3.63,3.63,0,0,0-4.13,1.42l-1.4,2.08a3.63,3.63,0,0,0,.58,4.73l2.73,2.46Z"/><path class="cls-15" d="M328.68,404.11l2.16,1.62a2.68,2.68,0,0,0,3.91-.77l6.34-10.61a2.68,2.68,0,0,0-.84-3.62l-1.9-1,.07,3-1.65,1a11.16,11.16,0,0,0-3.31,3.22h0a11.16,11.16,0,0,0-1.67,4l-.48,2.35Z"/><path class="cls-41" d="M327,397.92a21.36,21.36,0,0,1,4.52-7.2"/><path class="cls-41" d="M324.85,397a12.46,12.46,0,0,1,4.27-6.72"/><path class="cls-8" d="M252.1,354.35c2.61-3.75,12.17-3.63,16.12-1.33l54.23,30.9c-4.42,5.41-2,4.76-5.88,10.62L258.36,372C249.93,367.47,249.07,358.71,252.1,354.35Z"/><path class="cls-35" d="M308.32,331.5s-3.4-18.37-3.43-17.56c2-6,7.45-15.58,7.45-15.58s5.3-3.57,7.88-4.38c.3-1.94.07-4.07.56-4.92a25.05,25.05,0,0,0,13.56-.64c.71-.46-.72,4-.36,5,.27.72,1.83,1.52,2.51,2.12,2.31,2,4.58,4.14,6.87,6.21a8.59,8.59,0,0,1,2.71,3.5c.68,2.07-5.6,34.66-5.6,34.66l.32,31.71-26.9,5.49L298.78,366.7Z"/><path class="cls-39" d="M330.17,328c-6.28,9.91-12.67,16.31-23.38,19.84"/><path class="cls-39" d="M333.22,294.45a15.61,15.61,0,0,1-12.51-.91"/><path class="cls-39" d="M320.82,332.46a21.19,21.19,0,0,1-11,5.39"/><path class="cls-22" d="M318.2,369.42H274.33l-.78-3.46h40.32A4.44,4.44,0,0,1,318.2,369.42Z"/><path class="cls-42" d="M239.21,342.19h39a3.57,3.57,0,0,1,2.86,1.52l15.3,23.86c.61.95.07,1.85-1.11,1.85H256.14a4.6,4.6,0,0,1-3.68-2l-14.68-22.89C237,343.35,237.69,342.19,239.21,342.19Z"/><path class="cls-15" d="M260.65,353.84a4.8,4.8,0,0,0,4.31,2.73c1.83,0,2.86-1.22,2.3-2.73a4.8,4.8,0,0,0-4.31-2.73C261.12,351.1,260.09,352.33,260.65,353.84Z"/><path class="cls-36" d="M265.86,389.8c-1.43.37-2.9.94-3,2.69a5,5,0,0,0,.84,2.71,25,25,0,0,0,3.85,5.17c1.27,1.31,3.06,2.86,5,2.64,2.18-.25,2.91-2.18,4-3.68a18.61,18.61,0,0,1,5.3-4.7c2-1.26,4.36-2,5.2-4.45a8.88,8.88,0,0,0,.06-4.17,2.65,2.65,0,0,0-1-2.1,2.94,2.94,0,0,0-2.38.18c-3.89,1.46-7.73,3-11.71,4.23-1.94.58-3.91,1-5.87,1.43Z"/><path class="cls-17" d="M264.16,389.12a16.38,16.38,0,0,0,2.37,0,45.65,45.65,0,0,0,8.7-1.83,18.86,18.86,0,0,0,4.72,8.69,16.23,16.23,0,0,0-3.43,3.4c-1.06,1.5-1.19,4.11-3.37,4.36-1.84.21-4-1.79-5.33-3.06C260.61,393.48,264.16,389.12,264.16,389.12Z"/><path class="cls-17" d="M269.53,389.74l3.35-1.09a3.63,3.63,0,0,1,4.13,1.42l1.4,2.08a3.63,3.63,0,0,1-.58,4.73l-2.73,2.46Z"/><path class="cls-15" d="M273.83,403.51l-2.16,1.62a2.68,2.68,0,0,1-3.91-.77l-6.34-10.61a2.68,2.68,0,0,1,.84-3.62l1.9-1-.07,3,1.65,1a11.16,11.16,0,0,1,3.31,3.22h0a11.16,11.16,0,0,1,1.67,4l.48,2.35Z"/><path class="cls-41" d="M275.49,397.32a21.36,21.36,0,0,0-4.52-7.2"/><path class="cls-41" d="M277.66,396.42a12.46,12.46,0,0,0-4.27-6.72"/><path class="cls-17" d="M277.57,384.4,322.77,361c6.89-2.7,17.28-4.27,20,2.61,0,0,5.22,12-7.68,16.38l-53,15.65Z"/><path class="cls-36" d="M311.35,364.33s-6.85-1.71-8.45-1.21-7,4.34-6.22,5.31,5.64-.77,7.9-.54,4,1.29,5.64,1a18.8,18.8,0,0,0,3.28-1Z"/><path class="cls-43" d="M311.35,364.33a25.48,25.48,0,0,1-4.35-2.55.26.26,0,0,0-.41.06c-.24.41-.45,1.19.73,1.92A6.27,6.27,0,0,0,311.35,364.33Z"/><path class="cls-35" d="M340.5,299.25s9.66,4.77,10.71,12.6c.8,5.94,5.76,38,2.78,41.84-8.4,10.66-29.92,15.32-41.09,14.38a17.66,17.66,0,0,1-1.8-2.13,10.6,10.6,0,0,1-1-2.57s31.37-15.74,30.77-19.29S330.93,298.17,340.5,299.25Z"/><path class="cls-39" d="M336,317.46c1.55,9.13,2.91,17.72,4.76,26.76"/><path class="cls-39" d="M345.14,344.85a6.46,6.46,0,0,0-4.29-.17"/><path class="cls-39" d="M345.41,346.72a9.65,9.65,0,0,0-3.54-2.05,1.27,1.27,0,0,0-1.15,0"/><path class="cls-39" d="M340.77,344.61c-2.44,3.86-26.44,16.72-30.38,18.51"/><path class="cls-39" d="M310.25,363.22a7.37,7.37,0,0,0,3.26,5.12"/><path class="cls-39" d="M313.17,361.83c.21,2.07,1.83,4.6,3.12,6.24"/><path class="cls-39" d="M313.42,363.22l-2.85,1.12"/><path class="cls-39" d="M314.3,365.2l-2.77,1"/><path class="cls-39" d="M315.32,366.91l-2.34.88"/><path class="cls-39" d="M313.55,368.39l3.33-.16s24.1.44,37.41-15.14"/><path class="cls-36" d="M330.15,285.47a39.52,39.52,0,0,1-6.83,2.32,28.57,28.57,0,0,1-4.15.53l-1,0-1.09-.08c-2.66-2-4.35-4.85-4.66-9.85.09-6.24,1.42-13.55,2.5-15.61,1.9-3.64,8.72-12.56,19.71-7.1,3.31,1.64,6,4.28,6.79,8,.74,3.49-.1,7-1.21,10.28a.66.66,0,0,0-.44.44C338.35,279.2,334.46,282.86,330.15,285.47Z"/><path class="cls-5" d="M317.83,266.66a4.3,4.3,0,0,0-3.19-.66"/><path class="cls-5" d="M327.73,269.18a4.9,4.9,0,0,0-3.56-1.11"/><polyline class="cls-39" points="319.43 270.39 317.9 275.47 315.93 276.04 318.08 277.85"/><path class="cls-8" d="M316.48,280a6.53,6.53,0,0,0,4-.59s.86,2.41-1.54,2.74A2,2,0,0,1,316.48,280Z"/><circle class="cls-8" cx="324.02" cy="272.16" r="1.06" transform="translate(-6.79 536.02) rotate(-78.61)"/><circle class="cls-8" cx="315.35" cy="270.11" r="1.06" transform="translate(-11.74 525.87) rotate(-78.61)"/><path class="cls-44" d="M335.88,274.86c-.13-.14-.25-.28-.36-.43a11.23,11.23,0,0,1-2-7.32,33.4,33.4,0,0,1,1.5-7.59c-5.23,6.42-14.26,7-22.47,5.92-.34,0,2.9-6.45,3.43-7.24,1.61-2.41,4.56-4.32,7.07-5.67,0,0,12.21-4,17.71,6.21a16.8,16.8,0,0,1-.86,17.95c-.5-.57-1.48-.29-2.16-.54A4.85,4.85,0,0,1,335.88,274.86Z"/><path class="cls-36" d="M336,273.43a3.19,3.19,0,0,1,3.89.48,3,3,0,0,1,.48,2.14,7.17,7.17,0,0,1-3.83,5.54,4.52,4.52,0,0,1-1.82.57,2.27,2.27,0,0,1-2.27-3.4C333.1,276.9,334.06,274.51,336,273.43Z"/><path class="cls-5" d="M338,276.89a.94.94,0,0,0-.71-1.15,1.53,1.53,0,0,0-1.38.49,4.51,4.51,0,0,0-.79,1.3.86.86,0,1,1-.4,1.6"/><path class="cls-5" d="M334.37,275.16a2.84,2.84,0,0,1,2.26-2.24c1.1-.21,2.78.19,3.29,1.29.83,1.8-.18,4-1.36,5.35a6.71,6.71,0,0,1-5.61,2.35"/><path class="cls-45" d="M406,167.77c-.39,4.27-2.16,8.28-3.51,12.36s-2.27,8.53-.94,12.62a12.74,12.74,0,0,0,9.26,8.31,7,7,0,0,1,2.43.76,1.7,1.7,0,0,1,.72,2.17c-12,2.3-24.21,4.61-36.24,2.71a21.4,21.4,0,0,1-8.39-2.82,9.59,9.59,0,0,1-4.61-7.14,5.3,5.3,0,0,0,6.14-.36,8.88,8.88,0,0,0,3.06-5.58,38.2,38.2,0,0,0,.29-6.47,54.92,54.92,0,0,1,8.13-28.24,12.61,12.61,0,0,1,4.19-4.6,9.85,9.85,0,0,1,8.37-.16C401.58,154,406.63,160.5,406,167.77Z"/><path class="cls-46" d="M374.24,411.76c.94-1.11.09-2.47-.37-3.83-.85-.87-1-3.23-1.23-4.37-.61-3.25-1.37-15.43-1.37-15.43l-7.31-1.9s1,12.82.83,13.71a13.88,13.88,0,0,1-5,6.92,2.22,2.22,0,0,0-.89,1.66h0a2.28,2.28,0,0,0,2.13,2.42Z"/><path class="cls-8" d="M359.51,344.73l.51-47.4L362.16,276c.92-15.45,24.3-14.74,23.87.73a23.19,23.19,0,0,1-.36,3.41l-4.22,23.71-4.19,36,1.17,15-5.75,43.45c-2.6.48-5.08,1.13-8-.31Z"/><path class="cls-17" d="M374.3,418.5H344.05a1.35,1.35,0,0,1-1.35-1.35h0a1.35,1.35,0,0,1,1.35-1.35H374.3a1.35,1.35,0,0,1,1.35,1.35h0A1.35,1.35,0,0,1,374.3,418.5Z"/><path class="cls-47" d="M360.64,405l-7.13,5.54s-8.33.85-10.86,3.86c0,0-.6,2.05.6,2.05h30.94a1.36,1.36,0,0,0,1.36-1.45l-.79-11.58s-2.54-.85-3.62,2.78S360.64,405,360.64,405Z"/><path class="cls-17" d="M364.88,408c1.9.55,4,1.18,6,.53s.78-3,2.61-3.85c.45-.2.88-.42,1.33-.58l0-.62s-2.54-.85-3.62,2.78-10.5-1.2-10.5-1.2l-.69.54A27.91,27.91,0,0,0,364.88,408Z"/><path class="cls-29" d="M357.89,406.95a2.13,2.13,0,0,1,1.58.8"/><path class="cls-29" d="M356,408.36a1.54,1.54,0,0,1,1.43.75"/><path class="cls-29" d="M354,409.83a1.63,1.63,0,0,1,1.43.92"/><path class="cls-16" d="M364.86,407.47c-1.89-2-4.36.19-5.61,1.71a7.38,7.38,0,0,1-2.71,2.38,17.13,17.13,0,0,1-1.86.49,2.61,2.61,0,0,0-1.58,1"/><path class="cls-16" d="M369,416.71a9.88,9.88,0,0,1,6.18-6.35"/><path class="cls-16" d="M352.87,410.79l1.6,1.29"/><line class="cls-16" x1="342.59" y1="415.68" x2="369.13" y2="415.68"/><path class="cls-16" d="M372.39,411.52a9.26,9.26,0,0,1-.28-5.35"/><path class="cls-46" d="M405.7,410.88c.79-1.22-.23-2.46-.85-3.75-1-.75-1.42-3.07-1.78-4.17-1-3.14-3.34-15.13-3.34-15.13l-7.5-1s2.59,12.59,2.58,13.49a13.88,13.88,0,0,1-4.1,7.5,2.22,2.22,0,0,0-.67,1.76h0a2.28,2.28,0,0,0,2.42,2.12Z"/><path class="cls-17" d="M382.52,346.28,377,299.21l-.6-21.44c-1.07-15.44,22.22-17.73,23.77-2.33a23.19,23.19,0,0,1,.08,3.43l-1.15,24.05.45,36.25,3.08,14.75-.14,43.83c-2.52.81-4.89,1.77-8,.72Z"/><path class="cls-17" d="M405.61,418.5H375.37a1.35,1.35,0,0,1-1.35-1.35h0a1.35,1.35,0,0,1,1.35-1.35h30.25a1.35,1.35,0,0,1,1.35,1.35h0A1.35,1.35,0,0,1,405.61,418.5Z"/><path class="cls-23" d="M392,405l-7.13,5.54s-8.33.85-10.86,3.86c0,0-.6,2.05.6,2.05H405.5a1.36,1.36,0,0,0,1.36-1.45l-.79-11.58s-2.54-.85-3.62,2.78S392,405,392,405Z"/><path class="cls-17" d="M396.19,408c1.9.55,4,1.18,6,.53s.78-3,2.61-3.85c.45-.2.88-.42,1.33-.58l0-.62s-2.54-.85-3.62,2.78S392,405,392,405l-.69.54A27.91,27.91,0,0,0,396.19,408Z"/><path class="cls-29" d="M389.2,406.95a2.13,2.13,0,0,1,1.58.8"/><path class="cls-29" d="M387.29,408.36a1.54,1.54,0,0,1,1.43.75"/><path class="cls-29" d="M385.33,409.83a1.63,1.63,0,0,1,1.43.92"/><path class="cls-16" d="M396.18,407.47c-1.89-2-4.36.19-5.61,1.71a7.38,7.38,0,0,1-2.71,2.38A17.14,17.14,0,0,1,386,412a2.61,2.61,0,0,0-1.58,1"/><path class="cls-16" d="M400.27,416.71a9.88,9.88,0,0,1,6.18-6.35"/><path class="cls-16" d="M384.19,410.79l1.6,1.29"/><line class="cls-16" x1="373.91" y1="415.68" x2="400.44" y2="415.68"/><path class="cls-16" d="M403.71,411.52a9.25,9.25,0,0,1-.28-5.35"/><path class="cls-46" d="M369,210.31l-10,15.21L345.12,204l-5.86,1.43,17.39,34.45a3,3,0,0,0,5.09.32l18-25.85Z"/><path class="cls-48" d="M373.43,223.41l6.3-9L369,210.31l-3.93,6Q369.33,219.77,373.43,223.41Z"/><path class="cls-23" d="M378,218.58l-12.56-4,6.07-11.19a7.58,7.58,0,0,1,10.48-2.2h0a7.58,7.58,0,0,1,1.49,10.6Z"/><path class="cls-39" d="M357.49,228.36c.65-1.1.85-1.73,1.49-2.83"/><polygon class="cls-46" points="345.13 204.01 339.58 197.31 333.08 197.97 330.45 200.49 331.96 205.92 339.27 205.44 345.13 204.01"/><path class="cls-49" d="M334.42,197.84a16.25,16.25,0,0,0-6.72,3c-.23.17-.47.43-.37.7s.57.26.88.16l3.29-1.06"/><path class="cls-49" d="M332.45,205.91l4.91-.28a1,1,0,0,0,.44-.09.34.34,0,0,0,.19-.37c0-.13-.18-.21-.31-.27a10.68,10.68,0,0,0-4.23-.8"/><path class="cls-49" d="M332.1,204.58a20.45,20.45,0,0,0,5.66-.88c-.14-.56-.77-.82-1.33-1a10,10,0,0,0-4.36-.08"/><path class="cls-49" d="M332.06,202.62a14.84,14.84,0,0,0,4.07-.27c.34-.07.74-.21.83-.54a.67.67,0,0,0-.41-.73,2,2,0,0,0-.89-.12l-4.36.08"/><rect class="cls-50" x="307.08" y="179.82" width="29.63" height="42.1" transform="translate(-31.75 63.38) rotate(-10.72)"/><rect class="cls-15" x="310.68" y="183.14" width="22.43" height="35.45" transform="translate(-31.75 63.38) rotate(-10.72)"/><rect class="cls-26" x="312.67" y="190.83" width="15.26" height="2.31" transform="translate(-30.12 62.93) rotate(-10.72)"/><line class="cls-51" x1="313.71" y1="196.75" x2="328.35" y2="193.98"/><line class="cls-51" x1="314.35" y1="200.14" x2="328.99" y2="197.36"/><line class="cls-51" x1="314.99" y1="203.52" x2="329.63" y2="200.75"/><line class="cls-51" x1="315.63" y1="206.9" x2="330.27" y2="204.13"/><line class="cls-51" x1="316.27" y1="210.28" x2="330.91" y2="207.51"/><line class="cls-51" x1="316.91" y1="213.66" x2="331.55" y2="210.89"/><path class="cls-52" d="M337.72,198.38l-6.16,1.1c-.27.12-.62.54-.51.82a1,1,0,0,0,.67.54,2.91,2.91,0,0,0,.89.06l3.47-.11a3.11,3.11,0,0,0,2.93,1.74"/><path class="cls-46" d="M393.43,197.63c0-.14-1.83-7.35.88-20.09-3.76.07-9.27.32-13.1.2,1,7.05,1.74,16.72-2,21.07l-4.89,3.38-4.37,15.15,28.76,1.43,1.49-17.68Z"/><path class="cls-48" d="M381.77,191.91c4.9-1.7,9.74-8.65,10.07-14.49-3.55.1-7,.43-10.63.31A55.14,55.14,0,0,1,381.77,191.91Z"/><path class="cls-23" d="M403.51,215.26s1.61-11.1.51-12.2-7.43-4.38-9.3-5.35a.55.55,0,0,0-.78.36l-3.57,14.24-8.77,2.86-6.67-2.83,3.13-12.55a.55.55,0,0,0-.81-.61l-3.9,2.23-5.95,21.19.62,15.31-6.42,34.47s11,4.35,15.73,5c7.06.9,26-2.9,26-2.9l-4.91-34.3Z"/><path class="cls-39" d="M369.72,226.08A46.86,46.86,0,0,0,384.28,248"/><path class="cls-39" d="M369.52,241.18a111.74,111.74,0,0,0,13.23,24.73"/><path class="cls-46" d="M390.34,184.36a45.07,45.07,0,0,1-7.95,2.11,32.55,32.55,0,0,1-4.77.28l-1.09-.13-1.23-.18c-2.87-2.52-4.57-5.85-4.54-11.56.59-7.09,2.67-15.29,4-17.55,2.44-4,10.89-13.6,23-6.55,3.64,2.13,6.5,5.33,7.1,9.61.57,4-.66,7.93-2.17,11.59a.75.75,0,0,0-.53.47C400.15,177.86,395.44,181.73,390.34,184.36Z"/><path class="cls-45" d="M377.51,157.12a7,7,0,0,0,1.88-1.83,1.85,1.85,0,0,0-.31-2.38,1.71,1.71,0,0,0-1.6-.1,4.08,4.08,0,0,0-1.33,1,14.13,14.13,0,0,0-3.87,11.41C373.5,162.08,374.79,159.31,377.51,157.12Z"/><path class="cls-53" d="M378,163a4.9,4.9,0,0,0-3.58-1"/><path class="cls-53" d="M389,166.64a5.59,5.59,0,0,0-4-1.54"/><polyline class="cls-54" points="379.06 166.17 376.93 171.83 374.64 172.32 376.94 174.55"/><circle class="cls-45" cx="374.5" cy="167.66" r="1.18"/><circle class="cls-45" cx="383.46" cy="169.66" r="1.18"/><path class="cls-45" d="M375.83,178.49a7.44,7.44,0,0,0,4.6-.73s1,2.74-1.71,3.14A2.28,2.28,0,0,1,375.83,178.49Z"/><path class="cls-45" d="M402.23,175.28c-1.83,2.38-3.65,4.72-4,7.64a12.36,12.36,0,0,1-9.41-8.91c-.8-3.16-.33-6.69-1.95-9.53a14.13,14.13,0,0,0-4.64-4.34,15.9,15.9,0,0,1-4.75-4.23c-1.16-1.82-1.5-4.93.19-6.57,1.89-1.84,5.76-2.92,8.28-3.44a14.51,14.51,0,0,1,8.42.59c3.22,1.33,5.68,4,7.68,6.9a25.48,25.48,0,0,1,3.89,7.85,13.9,13.9,0,0,1-.28,8.65A23.07,23.07,0,0,1,402.23,175.28Z"/><polygon class="cls-46" points="396.55 214.26 401.85 241.53 373.55 264.12 379.93 266.16 413.2 246.04 406.67 210.23 396.55 214.26"/><polygon class="cls-48" points="408.81 221.98 406.67 210.23 396.55 214.26 398.41 223.83 408.81 221.98"/><path class="cls-23" d="M409,217.25l-11.69,6.09-3.66-12.19a7.58,7.58,0,0,1,5.83-9h0a7.58,7.58,0,0,1,8.57,6.42Z"/><line class="cls-39" x1="394.42" y1="213.01" x2="397.22" y2="223.08"/><path class="cls-39" d="M393,215.15l2.25,1.37"/><polygon class="cls-46" points="373.55 264.12 366.49 267.1 364.11 271.5 363.82 275.25 369.2 271.36 373.69 270.99 377.12 268.72 379.93 266.16 373.55 264.12"/><path class="cls-49" d="M366.31,267.18a10.56,10.56,0,0,0-4,5.23c-.23.61-.22,1.46.66,1.39a1.35,1.35,0,0,0,.76-.35,4.73,4.73,0,0,0,.65-.75,17.86,17.86,0,0,1,1.94-2.18"/><path class="cls-49" d="M366.82,268.53a10.56,10.56,0,0,0-4,5.23c-.23.61-.22,1.46.66,1.39a1.35,1.35,0,0,0,.76-.35,4.72,4.72,0,0,0,.65-.75,17.86,17.86,0,0,1,3.62-3.6"/><path class="cls-49" d="M368.53,269.58c-1.58,1.36-3,2.73-3.59,4.81-.11.4-.16.91.16,1.17a.78.78,0,0,0,.79,0,2.3,2.3,0,0,0,.65-.52c.6-.61,1.12-1.32,1.77-1.89a15.11,15.11,0,0,1,2.35-1.42"/><path class="cls-49" d="M370.45,270.66a6,6,0,0,0-1.88,2.08,6.52,6.52,0,0,0-1,2.47.56.56,0,0,0,.1.45.41.41,0,0,0,.46.05,1.21,1.21,0,0,0,.37-.31,14.12,14.12,0,0,1,2.86-2.85,12,12,0,0,1,3.2-1.41"/></g></g></svg>