<svg xmlns="http://www.w3.org/2000/svg" xmlns:xlink="http://www.w3.org/1999/xlink" viewBox="0 0 1416.51 1332.91"><defs><style>.cls-1{fill:none;}.cls-2{isolation:isolate;}.cls-3{fill:#c2e6ff;}.cls-4{fill:#0944f4;}.cls-5{fill:#fff;}.cls-6{mix-blend-mode:soft-light;}.cls-7{clip-path:url(#clip-path);}</style><clipPath id="clip-path"><path class="cls-1" d="M1162.27,40.7C1024-63.07,727.15,59,485.39,104.59S-100,405,124.29,825.2s402.79,474.5,802.51,397.58,581.55-395.86,444.44-597.91S1296,141.1,1162.27,40.7Z"/></clipPath></defs><title>7loginAsset</title><g class="cls-2"><g id="Layer_2" data-name="Layer 2"><g id="OBJECT"><path class="cls-3" d="M1162.27,40.7C1024-63.07,727.15,59,485.39,104.59S-100,405,124.29,825.2s402.79,474.5,802.51,397.58,581.55-395.86,444.44-597.91S1296,141.1,1162.27,40.7Z"/><path class="cls-4" d="M724.65,1169.24a123.38,123.38,0,0,0,33.88-53.61l-29.14-9.07a91.17,91.17,0,0,0,4.08-23.67l30.49,1.22A123.06,123.06,0,0,0,750,1022.24l-27,14.19a91.41,91.41,0,0,0-13.84-19.63l22.42-20.7A123.25,123.25,0,0,0,678,962.22l-9.07,29.13a91.41,91.41,0,0,0-23.67-4.07l1.22-30.49a123.08,123.08,0,0,0-61.87,13.95l14.19,27a91.17,91.17,0,0,0-19.63,13.84l-20.7-22.43a123.38,123.38,0,0,0-33.88,53.61l29.14,9.07a91.17,91.17,0,0,0-4.08,23.67l-30.49-1.22a123.13,123.13,0,0,0,13.94,61.86l27-14.19a91.4,91.4,0,0,0,13.84,19.62l-22.42,20.7a123.25,123.25,0,0,0,53.61,33.88l9.08-29.13a91.4,91.4,0,0,0,23.66,4.08l-1.22,30.49a123.11,123.11,0,0,0,61.86-14l-14.19-27a91.17,91.17,0,0,0,19.63-13.84Zm-56.39-61.09a39,39,0,0,1-8.4,5.92,39.52,39.52,0,0,1-19.89,4.48,39.32,39.32,0,1,1,28.29-10.41Z"/><path d="M641.4,1203.22q-2.41,0-4.82-.09l-1.5-.06,1.22-30.51a93,93,0,0,1-21.11-3.64l-9.08,29.14-1.43-.45a124.76,124.76,0,0,1-54.27-34.3l-1-1.1,22.43-20.7A93,93,0,0,1,559.48,1124l-27,14.19-.7-1.33a124.65,124.65,0,0,1-14.11-62.62l.06-1.5,30.5,1.22a92.74,92.74,0,0,1,3.64-21.12l-29.15-9.08.45-1.43a124.88,124.88,0,0,1,34.3-54.27l1.1-1,20.71,22.44a92.75,92.75,0,0,1,17.51-12.35l-14.19-27,1.33-.7a124.64,124.64,0,0,1,62.62-14.12l1.5.06-1.22,30.51a93,93,0,0,1,21.12,3.63L677,960.35l1.43.45a124.73,124.73,0,0,1,54.27,34.3l1,1.1-22.43,20.7a93,93,0,0,1,12.35,17.52l27-14.19.7,1.33a124.58,124.58,0,0,1,14.12,62.62l-.06,1.5-30.5-1.22a92.69,92.69,0,0,1-3.64,21.12l29.15,9.08-.45,1.43a124.89,124.89,0,0,1-34.3,54.27l-1.1,1-20.71-22.44a92.7,92.7,0,0,1-17.51,12.35l14.19,27-1.33.7A124.64,124.64,0,0,1,641.4,1203.22Zm-3.2-3A121.47,121.47,0,0,0,696.48,1187l-14.18-27,1.33-.7a89.71,89.71,0,0,0,19.3-13.61l1.1-1,20.7,22.42a122,122,0,0,0,31.92-50.5l-29.13-9.07.45-1.43a89.77,89.77,0,0,0,4-23.28l.06-1.5,30.48,1.22a121.62,121.62,0,0,0-13.14-58.27l-27,14.18-.7-1.33a90,90,0,0,0-13.61-19.31l-1-1.1L729.45,996a121.79,121.79,0,0,0-50.5-31.92l-9.07,29.12-1.43-.45a89.93,89.93,0,0,0-23.28-4l-1.5-.06,1.22-30.49a121.48,121.48,0,0,0-58.28,13.14l14.18,27-1.33.7a89.64,89.64,0,0,0-19.3,13.61l-1.1,1-20.7-22.42a121.92,121.92,0,0,0-31.92,50.5l29.13,9.07-.45,1.43a89.71,89.71,0,0,0-4,23.28l-.06,1.5-30.48-1.22a121.69,121.69,0,0,0,13.14,58.27l27-14.18.7,1.33a90,90,0,0,0,13.61,19.3l1,1.1-22.42,20.69a121.82,121.82,0,0,0,50.5,31.92l9.07-29.13,1.43.45a90,90,0,0,0,23.27,4l1.5.06Zm3.31-80.09c-.53,0-1.07,0-1.6,0a40.9,40.9,0,0,1-39.22-42.49,40.29,40.29,0,0,1,1.81-10.52,40.89,40.89,0,0,1,79.89,13.79,40.72,40.72,0,0,1-6.29,20.2,40.86,40.86,0,0,1-6.82,8.21h0a40.51,40.51,0,0,1-8.73,6.15,41,41,0,0,1-19,4.68Zm.07-78.77a37.94,37.94,0,0,0-36.21,26.62,37.32,37.32,0,0,0-1.68,9.74,38,38,0,0,0,4.31,19.13,37.72,37.72,0,0,0,13.3,14.41,37.92,37.92,0,0,0,37.85,1.52,37.53,37.53,0,0,0,8.08-5.7h0a38.12,38.12,0,0,0,10.48-16.58,37.44,37.44,0,0,0,1.68-9.74,37.87,37.87,0,0,0-36.33-39.38Z"/><path class="cls-4" d="M901.06,1248.57a90.55,90.55,0,0,0,13.15-44.65l-22.39-.55a66.91,66.91,0,0,0-1.88-17.53l21.77-5.27a90.32,90.32,0,0,0-22.28-40.87l-16.22,15.45a67.09,67.09,0,0,0-13.71-11.08L871.16,1125a90.46,90.46,0,0,0-44.65-13.15l-.55,22.39a67.09,67.09,0,0,0-17.52,1.88l-5.27-21.77a90.33,90.33,0,0,0-40.87,22.28l15.44,16.22a66.91,66.91,0,0,0-11.07,13.71l-19.12-11.67a90.55,90.55,0,0,0-13.15,44.65l22.39.55a66.91,66.91,0,0,0,1.88,17.53l-21.77,5.27a90.38,90.38,0,0,0,22.28,40.87l16.23-15.45a67.08,67.08,0,0,0,13.71,11.07l-11.67,19.12a90.46,90.46,0,0,0,44.65,13.15l.55-22.39a67.09,67.09,0,0,0,17.52-1.88l5.27,21.77a90.36,90.36,0,0,0,40.87-22.28l-15.44-16.22a66.92,66.92,0,0,0,11.07-13.71ZM849,1216.78a28.62,28.62,0,0,1-4.74,5.87,29,29,0,0,1-13.14,7.16,28.86,28.86,0,1,1,17.88-13Z"/><path d="M823.56,1293.15l-1.5,0a92,92,0,0,1-45.4-13.37l-1.28-.78,11.68-19.13a68.57,68.57,0,0,1-11.7-9.45l-16.24,15.46-1-1.09a91.91,91.91,0,0,1-22.64-41.55l-.35-1.46,21.78-5.27a68.46,68.46,0,0,1-1.6-15l-22.41-.55,0-1.5a92.07,92.07,0,0,1,13.37-45.4l.78-1.28,19.13,11.68a68.47,68.47,0,0,1,9.45-11.7l-15.45-16.23,1.09-1a91.85,91.85,0,0,1,41.55-22.65l1.46-.35,5.27,21.79a69.11,69.11,0,0,1,15-1.61l.55-22.4,1.5,0a92,92,0,0,1,45.4,13.37l1.28.78-11.67,19.13a68.69,68.69,0,0,1,11.7,9.45l16.23-15.46,1,1.09a91.84,91.84,0,0,1,22.65,41.55l.35,1.46L891.73,1187a68.44,68.44,0,0,1,1.6,15l22.41.55,0,1.5a92.09,92.09,0,0,1-13.37,45.4l-.78,1.28L882.42,1239a68.37,68.37,0,0,1-9.45,11.7l15.45,16.23-1.09,1a91.87,91.87,0,0,1-41.55,22.65l-1.46.35-5.27-21.79a66.48,66.48,0,0,1-15,1.6Zm-44-15.19a89,89,0,0,0,41.12,12.11l.55-22.38,1.5,0a65.38,65.38,0,0,0,17.13-1.83l1.46-.35,5.26,21.76a88.89,88.89,0,0,0,37.63-20.52l-15.44-16.21,1.09-1a65.35,65.35,0,0,0,10.82-13.41l.78-1.28,19.11,11.66a89.09,89.09,0,0,0,12.11-41.12l-22.38-.55,0-1.5a65.38,65.38,0,0,0-1.83-17.13l-.35-1.46,21.76-5.26a88.88,88.88,0,0,0-20.51-37.64l-16.21,15.44-1-1.09a65.59,65.59,0,0,0-13.4-10.83l-1.28-.78,11.66-19.1A89,89,0,0,0,828,1113.37l-.55,22.37-1.5,0a65.59,65.59,0,0,0-17.13,1.84l-1.46.35-5.26-21.76a88.87,88.87,0,0,0-37.64,20.52l15.44,16.21-1.09,1A65.45,65.45,0,0,0,768,1167.31l-.78,1.28-19.11-11.66A89.08,89.08,0,0,0,736,1198.05l22.38.55,0,1.5a65.41,65.41,0,0,0,1.83,17.13l.35,1.46L738.73,1224a88.93,88.93,0,0,0,20.51,37.63l16.22-15.43,1,1.09a65.62,65.62,0,0,0,13.4,10.83l1.28.78Zm44.8-45.83h-.76a30.59,30.59,0,0,1-15.1-4.45,30.39,30.39,0,0,1,1.29-52.65,30.41,30.41,0,0,1,44.1,19.55,30.38,30.38,0,0,1-8.59,29.17,30.47,30.47,0,0,1-13.82,7.53A30.23,30.23,0,0,1,824.32,1232.12Zm0-57.82a27.43,27.43,0,0,0-27.4,26.74,27,27,0,0,0,.76,7.11,27.51,27.51,0,0,0,6.79,12.46,27.22,27.22,0,0,0,5.56,4.49,27.55,27.55,0,0,0,13.62,4,27.12,27.12,0,0,0,7.11-.76,27.51,27.51,0,0,0,12.46-6.79,27.12,27.12,0,0,0,4.49-5.56h0A27.43,27.43,0,0,0,825,1174.31Z"/><path class="cls-4" d="M1047.88,1073.24a183.88,183.88,0,0,0,50.5-79.9l-43.43-13.52a135.88,135.88,0,0,0,6.08-35.27l45.44,1.82a183.4,183.4,0,0,0-20.78-92.2l-40.27,21.15a136.23,136.23,0,0,0-20.62-29.25l33.41-30.84a183.68,183.68,0,0,0-79.9-50.5l-13.52,43.42a136.23,136.23,0,0,0-35.27-6.07l1.82-45.45a183.42,183.42,0,0,0-92.2,20.79l21.14,40.26A135.87,135.87,0,0,0,831,838.3l-30.85-33.42a183.88,183.88,0,0,0-50.5,79.9l43.43,13.52A135.87,135.87,0,0,0,787,933.57l-45.44-1.82a183.51,183.51,0,0,0,20.78,92.2l40.27-21.14A136.22,136.22,0,0,0,823.27,1032l-33.42,30.85a183.68,183.68,0,0,0,79.9,50.5L883.28,1070a136.22,136.22,0,0,0,35.27,6.08l-1.82,45.45a183.47,183.47,0,0,0,92.2-20.8l-21.14-40.26a135.88,135.88,0,0,0,29.25-20.63Zm-84-91A58.12,58.12,0,0,1,951.32,991a58.9,58.9,0,0,1-29.64,6.68,58.6,58.6,0,1,1,42.16-15.51Z"/><path d="M923.82,1123.13q-3.58,0-7.16-.14l-1.5-.06,1.82-45.45a137.83,137.83,0,0,1-32.72-5.64l-13.53,43.43-1.43-.45a185.2,185.2,0,0,1-80.55-50.91l-1-1.1L821.16,1032A137.8,137.8,0,0,1,802,1004.83L761.74,1026l-.7-1.33a185,185,0,0,1-21-93l.06-1.5L785.6,932a137.42,137.42,0,0,1,5.64-32.72l-43.44-13.53.45-1.43a185.33,185.33,0,0,1,50.91-80.55l1.1-1,30.86,33.43A137.61,137.61,0,0,1,858.26,817l-21.14-40.27,1.33-.7a184.89,184.89,0,0,1,93-21l1.5.06-1.82,45.45a137.88,137.88,0,0,1,32.72,5.63l13.52-43.42,1.43.45a185.18,185.18,0,0,1,80.55,50.91l1,1.1-33.42,30.85A137.8,137.8,0,0,1,1046,873.29l40.27-21.15.7,1.33a184.94,184.94,0,0,1,21,93l-.06,1.5-45.45-1.82a137.47,137.47,0,0,1-5.64,32.72l43.44,13.53-.45,1.43a185.34,185.34,0,0,1-50.91,80.55l-1.1,1-30.86-33.43a137.52,137.52,0,0,1-27.14,19.14l21.15,40.26-1.33.7A185,185,0,0,1,923.82,1123.13Zm-5.54-3.08a181.79,181.79,0,0,0,88.61-20l-21.14-40.25,1.33-.7a134.45,134.45,0,0,0,28.93-20.4l1.1-1,30.85,33.42a182.42,182.42,0,0,0,48.53-76.79l-43.42-13.52.45-1.43a134.49,134.49,0,0,0,6-34.88l.06-1.5L1105,944.8a182,182,0,0,0-20-88.61l-40.26,21.14-.7-1.33a134.83,134.83,0,0,0-20.39-28.93l-1-1.1,33.41-30.84a182.26,182.26,0,0,0-76.79-48.53L965.78,810l-1.43-.45a134.86,134.86,0,0,0-34.88-6l-1.5-.06,1.82-45.44a182,182,0,0,0-88.61,20l21.14,40.26L861,819a134.49,134.49,0,0,0-28.93,20.4l-1.1,1L800.11,807a182.4,182.4,0,0,0-48.53,76.79L795,897.31l-.45,1.43a134.52,134.52,0,0,0-6,34.88l-.06,1.5L743,933.31a182,182,0,0,0,20,88.61l40.27-21.14.7,1.33a134.82,134.82,0,0,0,20.4,28.92l1,1.1L792,1063a182.28,182.28,0,0,0,76.79,48.53l13.52-43.41,1.43.45a134.87,134.87,0,0,0,34.88,6l1.5.06Zm5.7-120.8q-1.18,0-2.36,0a59.88,59.88,0,0,1-15.49-2.67,60.49,60.49,0,0,1-26.34-16.65,60.21,60.21,0,0,1,62.13-98.31,60.73,60.73,0,0,1,26.34,16.65,60.25,60.25,0,0,1-3.41,85.07h0A59.71,59.71,0,0,1,952,992.35a60.41,60.41,0,0,1-28,6.9Zm.11-117.39a57.27,57.27,0,0,0-54.67,40.2,56.38,56.38,0,0,0-2.54,14.71,57.39,57.39,0,0,0,6.51,28.88,56.77,56.77,0,0,0,8.6,12.2,57.25,57.25,0,0,0,68.63,11.84,56.62,56.62,0,0,0,12.2-8.6h0a57.19,57.19,0,0,0-36.5-99.19Q925.21,881.86,924.09,881.86Z"/><path d="M1319.64,193.52h-32.33a84.15,84.15,0,0,1,84.13,84.17V845.61a84.18,84.18,0,0,1-84.13,84.17h32.33a84.18,84.18,0,0,0,84.13-84.17V277.69A84.15,84.15,0,0,0,1319.64,193.52Z"/><path d="M1319.64,931.28h-32.33v-3a82.75,82.75,0,0,0,82.63-82.67V277.69A82.75,82.75,0,0,0,1287.31,195v-3h32.33a85.75,85.75,0,0,1,85.63,85.67V845.61A85.75,85.75,0,0,1,1319.64,931.28Zm-9.83-3h9.83a82.75,82.75,0,0,0,82.63-82.67V277.69A82.75,82.75,0,0,0,1319.64,195h-9.83a85.82,85.82,0,0,1,63.13,82.67V845.61A85.82,85.82,0,0,1,1309.81,928.28Z"/><path class="cls-5" d="M375.5,192h911.6a84.15,84.15,0,0,1,84.13,84.17V844.09a84.18,84.18,0,0,1-84.13,84.17H375.5a84.18,84.18,0,0,1-84.13-84.17V276.17A84.15,84.15,0,0,1,375.5,192Zm0,640.08h911.56a58.76,58.76,0,0,0,58.68-58.72V276.17a58.76,58.76,0,0,0-58.68-58.72H375.55a58.79,58.79,0,0,0-58.72,58.72V773.36A58.79,58.79,0,0,0,375.55,832.08Z"/><path d="M1287.11,929.76H375.51a85.75,85.75,0,0,1-85.63-85.67V276.17a85.75,85.75,0,0,1,85.63-85.67h911.6a85.75,85.75,0,0,1,85.63,85.67V844.09A85.75,85.75,0,0,1,1287.11,929.76ZM375.51,193.5a82.75,82.75,0,0,0-82.63,82.67V844.09a82.75,82.75,0,0,0,82.63,82.67h911.6a82.75,82.75,0,0,0,82.63-82.67V276.17a82.75,82.75,0,0,0-82.63-82.67Zm911.6,640.08H375.55a60.29,60.29,0,0,1-60.22-60.22V276.17A60.29,60.29,0,0,1,375.55,216h911.56a60.26,60.26,0,0,1,60.17,60.22V773.36A60.26,60.26,0,0,1,1287.11,833.58ZM375.55,219a57.28,57.28,0,0,0-57.22,57.22V773.36a57.28,57.28,0,0,0,57.22,57.22h911.56a57.26,57.26,0,0,0,57.17-57.22V276.17A57.26,57.26,0,0,0,1287.11,219Z"/><path class="cls-3" d="M1346,277.69V774.87A58.67,58.67,0,0,1,1312.25,828a57.94,57.94,0,0,1-25,5.61H375.74A58.8,58.8,0,0,1,317,774.87V277.69A58.73,58.73,0,0,1,375.74,219H1287.3A58.67,58.67,0,0,1,1346,277.69Z"/><path d="M1287.3,835.09H375.74a60.29,60.29,0,0,1-60.22-60.22V277.69a60.23,60.23,0,0,1,60.22-60.22H1287.3a60.17,60.17,0,0,1,60.18,60.22V774.87a60.43,60.43,0,0,1-34.59,54.48A59.19,59.19,0,0,1,1287.3,835.09ZM375.74,220.46a57.22,57.22,0,0,0-57.22,57.22V774.87a57.29,57.29,0,0,0,57.22,57.22H1287.3a56.21,56.21,0,0,0,24.31-5.46,57.42,57.42,0,0,0,32.87-51.76V277.69a57.17,57.17,0,0,0-57.18-57.22Z"/><path class="cls-4" d="M1346,277.69v11.77H317V277.69a58.83,58.83,0,0,1,49.25-58h930.51A58.79,58.79,0,0,1,1346,277.69Z"/><path d="M1347.47,291h-1032V277.69A60,60,0,0,1,366,218.25l.24,0H1296.9l.12,0a60,60,0,0,1,50.46,59.43Zm-1029-3h1026V277.69a57,57,0,0,0-47.82-56.45H366.39a57,57,0,0,0-47.87,56.45Z"/><circle class="cls-5" cx="376.78" cy="254.59" r="13.37"/><path d="M376.78,269.47a14.87,14.87,0,1,1,14.87-14.87A14.89,14.89,0,0,1,376.78,269.47Zm0-26.74a11.87,11.87,0,1,0,11.87,11.87A11.88,11.88,0,0,0,376.78,242.72Z"/><circle class="cls-5" cx="445.86" cy="254.59" r="13.37"/><path d="M445.86,269.47a14.87,14.87,0,1,1,14.87-14.87A14.89,14.89,0,0,1,445.86,269.47Zm0-26.74a11.87,11.87,0,1,0,11.87,11.87A11.88,11.88,0,0,0,445.86,242.72Z"/><circle class="cls-5" cx="511.42" cy="254.59" r="13.37"/><path d="M511.43,269.47a14.87,14.87,0,1,1,14.87-14.87A14.89,14.89,0,0,1,511.43,269.47Zm0-26.74a11.87,11.87,0,1,0,11.87,11.87A11.89,11.89,0,0,0,511.43,242.72Z"/><path class="cls-4" d="M950.08,440.34A100.24,100.24,0,1,1,849.83,340.1,100,100,0,0,1,950.08,440.34Z"/><path d="M849.83,542.08A101.74,101.74,0,0,1,748.09,440.34,101.74,101.74,0,1,1,849.83,542.08Zm0-200.48a98.74,98.74,0,0,0-72,166.35,98.74,98.74,0,0,0,139.44,4.48A98.74,98.74,0,0,0,849.83,341.6Z"/><circle class="cls-5" cx="846.62" cy="419.24" r="38.32"/><path d="M846.62,459.06a39.82,39.82,0,1,1,39.82-39.82A39.86,39.86,0,0,1,846.62,459.06Zm0-76.63a36.82,36.82,0,1,0,36.82,36.82A36.86,36.86,0,0,0,846.62,382.42Z"/><path class="cls-5" d="M918.34,513.52A100.24,100.24,0,0,1,776.78,509a76.67,76.67,0,0,1,141.56,4.55Z"/><path d="M849.83,542.08A100.79,100.79,0,0,1,775.69,510l-.69-.73.41-.91A78.17,78.17,0,0,1,919.74,513l.35.94-.73.69A101.36,101.36,0,0,1,849.83,542.08Zm-71.27-33.4a98.74,98.74,0,0,0,138,4.43,75.17,75.17,0,0,0-138-4.43Z"/><path class="cls-5" d="M1156.45,583.46v24.61a21.77,21.77,0,0,1-21.7,21.71H560.37a21.77,21.77,0,0,1-21.7-21.71V583.46a21.77,21.77,0,0,1,21.7-21.7h574.38A21.77,21.77,0,0,1,1156.45,583.46Z"/><path d="M1134.75,631.29H560.37a23.23,23.23,0,0,1-23.2-23.21V583.46a23.23,23.23,0,0,1,23.2-23.2h574.38a23.23,23.23,0,0,1,23.2,23.2v24.61A23.23,23.23,0,0,1,1134.75,631.29Zm-574.38-68a20.23,20.23,0,0,0-20.2,20.2v24.61a20.23,20.23,0,0,0,20.2,20.21h574.38a20.23,20.23,0,0,0,20.2-20.21V583.46a20.23,20.23,0,0,0-20.2-20.2Z"/><rect class="cls-5" x="538.66" y="657.55" width="617.79" height="68.03" rx="21.7" ry="21.7"/><path d="M1134.75,727.08H560.37a23.23,23.23,0,0,1-23.2-23.2V679.25a23.23,23.23,0,0,1,23.2-23.2h574.38a23.23,23.23,0,0,1,23.2,23.2v24.62A23.23,23.23,0,0,1,1134.75,727.08Zm-574.38-68a20.23,20.23,0,0,0-20.2,20.2v24.62a20.23,20.23,0,0,0,20.2,20.2h574.38a20.23,20.23,0,0,0,20.2-20.2V679.25a20.23,20.23,0,0,0-20.2-20.2Z"/><path class="cls-4" d="M712.57,561.76v68H560.37a21.77,21.77,0,0,1-21.7-21.71V583.46a21.77,21.77,0,0,1,21.7-21.7Z"/><path d="M714.07,631.29H560.37a23.23,23.23,0,0,1-23.2-23.21V583.46a23.23,23.23,0,0,1,23.2-23.2H714.07Zm-153.71-68a20.23,20.23,0,0,0-20.2,20.2v24.61a20.23,20.23,0,0,0,20.2,20.21H711.07v-65Z"/><path class="cls-4" d="M560.37,657.55H712.57v68H560.37a21.77,21.77,0,0,1-21.7-21.7V679.25A21.77,21.77,0,0,1,560.37,657.55Z"/><path d="M714.07,727.08H560.37a23.23,23.23,0,0,1-23.2-23.2V679.25a23.23,23.23,0,0,1,23.2-23.2H714.07Zm-153.71-68a20.23,20.23,0,0,0-20.2,20.2v24.62a20.23,20.23,0,0,0,20.2,20.2H711.07v-65Z"/><rect class="cls-3" x="737.56" y="579.81" width="374.84" height="34.71" rx="17.35" ry="17.35"/><path d="M781.38,687.79l5.18,2.8-2.33,3.89L779,691.4l.09,5.75h-4.46l0-5.79-5.22,3.13-2.28-3.89,5.18-2.8-5.18-2.85,2.28-3.89,5.22,3.13,0-5.79h4.46l-.09,5.79,5.22-3.13,2.33,3.89Z"/><path d="M802.94,687.79l5.18,2.8-2.33,3.89-5.22-3.09.09,5.75h-4.46l0-5.79L791,694.49l-2.28-3.89,5.18-2.8-5.18-2.85L791,681l5.22,3.13,0-5.79h4.46l-.09,5.79,5.22-3.13,2.33,3.89Z"/><path d="M824.5,687.79l5.18,2.8-2.33,3.89-5.22-3.09.09,5.75h-4.46l0-5.79-5.22,3.13-2.28-3.89,5.18-2.8-5.18-2.85,2.28-3.89,5.22,3.13,0-5.79h4.46l-.09,5.79,5.22-3.13,2.33,3.89Z"/><path d="M846.06,687.79l5.18,2.8-2.33,3.89-5.22-3.09.09,5.75h-4.46l0-5.79-5.22,3.13-2.28-3.89,5.18-2.8-5.18-2.85,2.28-3.89,5.22,3.13,0-5.79h4.46l-.09,5.79,5.22-3.13,2.33,3.89Z"/><path d="M867.62,687.79l5.18,2.8-2.33,3.89-5.22-3.09.1,5.75h-4.46l0-5.79-5.22,3.13-2.28-3.89,5.18-2.8-5.18-2.85L855.7,681l5.22,3.13,0-5.79h4.46l-.1,5.79,5.22-3.13,2.33,3.89Z"/><path d="M889.19,687.79l5.18,2.8L892,694.49l-5.22-3.09.09,5.75h-4.46l0-5.79-5.22,3.13L875,690.59l5.18-2.8L875,684.94l2.28-3.89,5.22,3.13,0-5.79h4.46l-.09,5.79L892,681l2.33,3.89Z"/><path d="M910.75,687.79l5.18,2.8-2.33,3.89-5.22-3.09.09,5.75H904l0-5.79-5.22,3.13-2.28-3.89,5.18-2.8-5.18-2.85,2.28-3.89,5.22,3.13,0-5.79h4.46l-.09,5.79L913.6,681l2.33,3.89Z"/><path d="M932.31,687.79l5.18,2.8-2.33,3.89-5.22-3.09.09,5.75h-4.46l0-5.79-5.22,3.13-2.28-3.89,5.18-2.8-5.18-2.85,2.28-3.89,5.22,3.13,0-5.79H930l-.09,5.79,5.22-3.13,2.33,3.89Z"/><path d="M953.87,687.79l5.18,2.8-2.33,3.89-5.22-3.09.09,5.75h-4.46l0-5.79L942,694.49l-2.28-3.89,5.18-2.8-5.18-2.85L942,681l5.22,3.13,0-5.79h4.46l-.09,5.79,5.22-3.13,2.33,3.89Z"/><path d="M975.43,687.79l5.18,2.8-2.33,3.89-5.22-3.09.09,5.75h-4.46l0-5.79-5.22,3.13-2.28-3.89,5.18-2.8-5.18-2.85,2.28-3.89,5.22,3.13,0-5.79h4.46l-.09,5.79,5.22-3.13,2.33,3.89Z"/><path d="M997,687.79l5.18,2.8-2.33,3.89-5.22-3.09.09,5.75h-4.46l0-5.79-5.22,3.13-2.28-3.89,5.18-2.8-5.18-2.85,2.28-3.89,5.22,3.13,0-5.79h4.46l-.09,5.79,5.22-3.13,2.33,3.89Z"/><path d="M1018.56,687.79l5.18,2.8-2.33,3.89-5.22-3.09.09,5.75h-4.46l0-5.79-5.22,3.13-2.28-3.89,5.18-2.8-5.18-2.85,2.28-3.89,5.22,3.13,0-5.79h4.46l-.09,5.79,5.22-3.13,2.33,3.89Z"/><path d="M1040.12,687.79l5.18,2.8-2.33,3.89-5.22-3.09.1,5.75h-4.46l0-5.79-5.22,3.13-2.28-3.89,5.18-2.8-5.18-2.85,2.28-3.89,5.22,3.13,0-5.79h4.46l-.1,5.79L1043,681l2.33,3.89Z"/><path d="M1061.68,687.79l5.18,2.8-2.33,3.89-5.22-3.09.09,5.75h-4.46l0-5.79-5.22,3.13-2.28-3.89,5.18-2.8-5.18-2.85,2.28-3.89,5.22,3.13,0-5.79h4.46l-.09,5.79,5.22-3.13,2.33,3.89Z"/><path d="M1083.24,687.79l5.18,2.8-2.33,3.89-5.22-3.09.1,5.75h-4.46l0-5.79-5.22,3.13-2.28-3.89,5.18-2.8-5.18-2.85,2.28-3.89,5.22,3.13,0-5.79H1081l-.1,5.79,5.22-3.13,2.33,3.89Z"/><g class="cls-6"><polygon class="cls-5" points="752.31 833.59 576.8 833.59 378.84 218.97 554.36 218.97 752.31 833.59"/><polygon class="cls-5" points="852.18 833.59 799.79 833.59 601.83 218.97 654.18 218.97 852.18 833.59"/><polygon class="cls-5" points="1266.6 833.59 1091.08 833.59 893.12 218.97 1068.64 218.97 1266.6 833.59"/><path class="cls-5" d="M1346,770.08v4.79A58.68,58.68,0,0,1,1312.25,828L1116.11,219h52.35Z"/></g><path class="cls-4" d="M118.81,431.6l23.92,2.27a4.11,4.11,0,0,0,4-2l2.23-3.88-35.07-3.33,1.46,4.23A4.11,4.11,0,0,0,118.81,431.6Z"/><path d="M143.12,435.4l-.53,0-23.92-2.27a5.63,5.63,0,0,1-4.77-3.76l-2.22-6.44,39.71,3.78-3.4,5.9A5.63,5.63,0,0,1,143.12,435.4ZM116,426.33l.7,2a2.62,2.62,0,0,0,2.22,1.75l23.92,2.27a2.63,2.63,0,0,0,2.51-1.3l1.07-1.86Z"/><path class="cls-4" d="M97.05,364.06l79.78,7.59-3.19,33.59a13.25,13.25,0,0,1-4,8.3l-11.13,10.69a13.25,13.25,0,0,1-10.44,3.64L114.7,424.7a13.25,13.25,0,0,1-9.56-5.54l-8.91-12.6a13.25,13.25,0,0,1-2.37-8.91Z"/><path d="M149.33,429.43q-.7,0-1.4-.07l-33.36-3.17A14.74,14.74,0,0,1,103.92,420L95,407.43a14.76,14.76,0,0,1-2.64-9.91l3.34-35.09,82.77,7.87-3.34,35.09a14.75,14.75,0,0,1-4.46,9.24l-11.13,10.69A14.74,14.74,0,0,1,149.33,429.43ZM98.4,365.7l-3.05,32.1a11.75,11.75,0,0,0,2.1,7.9l8.91,12.6a11.74,11.74,0,0,0,8.48,4.91l33.36,3.17a11.73,11.73,0,0,0,9.26-3.23l11.13-10.69a11.76,11.76,0,0,0,3.55-7.36L175.2,373Z"/><path class="cls-5" d="M63.18,288.13C26.91,222.3,88.35,136.65,162.33,149.92a95.84,95.84,0,0,1,61.75,154c-21.18,27.23-35,27.11-41.07,61.6a7.32,7.32,0,0,1-7.91,6,279.74,279.74,0,0,1-76.6-7.28,7.32,7.32,0,0,1-6.63-7.39h0c.49-35-12.57-37.28-28.41-68.13Z"/><path d="M163.11,373.24a283.21,283.21,0,0,1-64.86-7.56,8.87,8.87,0,0,1-7.88-8.9c.32-23.36-5.45-31.76-14.19-44.48a194.41,194.41,0,0,1-14-23l-.27-.52C44.8,257.87,48,219.42,70.2,188.48s57.6-46.28,92.39-40A97.34,97.34,0,0,1,225.26,304.8a186.84,186.84,0,0,1-18.33,20.06c-11.07,10.84-18.39,18-22.45,40.87a8.87,8.87,0,0,1-9.42,7.25Q169.09,373.24,163.11,373.24ZM147.21,150.08c-28.62,0-56.23,14.58-74.58,40.15-21.52,30-24.64,67.23-8.14,97.17l.3.58a192.09,192.09,0,0,0,13.85,22.62c8.74,12.72,15.06,21.91,14.72,46.22a5.86,5.86,0,0,0,5.27,5.88l.2,0A279.38,279.38,0,0,0,175,370h.21a5.86,5.86,0,0,0,6.29-4.78c4.23-23.82,12.23-31.65,23.3-42.49A184.2,184.2,0,0,0,222.9,303a94.34,94.34,0,0,0-60.78-151.55A84.37,84.37,0,0,0,147.21,150.08Z"/><path d="M151.5,371.82l-3-.29c.28-2.93,5.55-56.65,15.27-87.17-6.71.31-15.3-.35-26.29-2.63q-5.09-1.06-9.27-2.3a84.65,84.65,0,0,1,1,15.06c-1,62.26-2.41,74.6-2.47,75.09l-3-.35c0-.12,1.44-12.85,2.45-74.79a78.8,78.8,0,0,0-1.2-16c-15.34-5.17-20.41-11.94-19.71-16.83.46-3.2,3.33-5.24,7-4.95,4.83.38,12.06,5.2,15.28,19.45a107.58,107.58,0,0,0,10.53,2.7c11,2.28,19.81,2.94,26.7,2.5,2.68-7.71,5.67-13.58,9-16.19,4.83-3.83,9.09-3.19,11.47-1.31,2.82,2.23,3.55,6.24,1.81,10-1.22,2.62-5.66,8.93-20.15,10.37C157.15,314.11,151.57,371.09,151.5,371.82Zm29.3-106.54a8.67,8.67,0,0,0-5.16,2.17c-2.77,2.19-5.33,7.06-7.67,13.55,9.35-1.16,14.53-4.57,16.36-8.5,1.14-2.45.76-5-.95-6.35A4.08,4.08,0,0,0,180.81,265.28Zm-69.19-5.66c-1.82,0-3.15.93-3.36,2.4-.45,3.15,3.77,8.47,16,12.94-3-11.2-8.63-15-12.15-15.31Z"/><path class="cls-5" d="M179.48,391.46a1.52,1.52,0,0,1-.33,0L91.73,372a1.5,1.5,0,0,1,.65-2.93l87.42,19.47a1.5,1.5,0,0,1-.32,3Z"/><path class="cls-5" d="M178.61,400.57a1.52,1.52,0,0,1-.33,0L90.86,381.06a1.5,1.5,0,1,1,.65-2.93l87.42,19.47a1.5,1.5,0,0,1-.32,3Z"/><path class="cls-5" d="M177.75,409.68a1.52,1.52,0,0,1-.33,0L90,390.17a1.5,1.5,0,0,1,.65-2.93l87.42,19.47a1.5,1.5,0,0,1-.32,3Z"/><path class="cls-5" d="M172.77,417.88a1.52,1.52,0,0,1-.33,0L89.13,399.29a1.5,1.5,0,0,1,.65-2.93l83.31,18.55a1.5,1.5,0,0,1-.32,3Z"/><rect x="274.5" y="241.43" width="3" height="30.89" transform="translate(-5.84 507.32) rotate(-84.57)"/><rect x="249.54" y="190.07" width="30.89" height="3" transform="translate(-55.67 127.57) rotate(-24.58)"/><rect x="207.36" y="139.03" width="30.89" height="3" transform="translate(-20.85 240.65) rotate(-54.58)"/><rect x="145.31" y="115.91" width="30.89" height="3" transform="translate(28.64 266.32) rotate(-84.56)"/><rect x="93.95" y="112.97" width="3" height="30.89" transform="translate(-44.75 51.31) rotate(-24.57)"/><rect x="42.91" y="155.16" width="3" height="30.89" transform="translate(-120.34 107.88) rotate(-54.57)"/><rect x="19.79" y="217.21" width="3" height="30.89" transform="translate(-212.34 231.83) rotate(-84.57)"/><g class="cls-7"><path class="cls-4" d="M357.93,629.61c1,.24,2,.5,3,.76s2,.57,2.93.9a45.44,45.44,0,0,1,6.84,2.87c.33.16.67.34,1,.54s.81.45,1.2.7.74.45,1.1.69c0,0,0,0,0,0l1.08.73a29.73,29.73,0,0,1,5.68,5.37c.25.3.5.6.72.91a28.65,28.65,0,0,1,3.78,7c.1.26.19.51.28.76s.21.59.3.9.25.76.36,1.17c.22.82.44,1.66.62,2.55q.14.59.22,1.17c.08.39.13.78.19,1.19s.12.81.17,1.23C389.4,675.45,402,683.31,406,699.42a36.31,36.31,0,0,1,.85,4.27c3.48,24.85-3.55,29-9.91,49.7-2.2,7.15,5,32.31,13.83,58.38,3.28.66,6.58,1.23,9.73,1.59a139.4,139.4,0,0,0,19.69,1c12.68-.13,14.27-59.2,5.84-61.35a95.2,95.2,0,0,1-11.7-3.7c-.86-.36-1.78-.66-2.55-1.05s-1.57-.75-2.37-1.09l-2.09-1.16a17.83,17.83,0,0,1-1.8-1.16c-2.22-1.54-3.37-6.81-3.37-6.81l-.77-2.72L421,734c-.12-.48-.21-1-.33-1.51l-.66-3-.72-3-.6-3.24c-.37-2.19-.84-4.24-1.17-6.52-.5-2.85-1.31-10.22-2.33-20.5-.58-5.84-1.23-12.6-1.93-20-2.07-22-18.07-38.92-43.45-44.46C369.82,631.71,365,630.7,357.93,629.61Z"/><path d="M437.85,815.92a141.18,141.18,0,0,1-17.52-1.08c-2.87-.33-6.1-.86-9.84-1.61l-.85-.17-.28-.82c-11.31-33.43-15.84-52.83-13.84-59.3,1.81-5.88,3.68-10.45,5.32-14.49,4.21-10.29,7-17.1,4.54-34.56a34.72,34.72,0,0,0-.82-4.1c-1.81-7.23-5.46-12.85-9-18.28-4.19-6.45-8.52-13.11-9.61-22.26,0-.41-.1-.8-.16-1.19s-.11-.75-.18-1.12-.13-.76-.21-1.12c-.18-.89-.38-1.7-.6-2.49-.1-.38-.2-.72-.32-1.06s-.2-.64-.3-.89-.17-.48-.27-.71a27.41,27.41,0,0,0-3.6-6.67c-.21-.3-.43-.57-.66-.83a28.44,28.44,0,0,0-5.43-5.13l-1.08-.73c-.34-.23-.68-.44-1-.65s-.78-.47-1.15-.68-.65-.36-.95-.51a43.67,43.67,0,0,0-6.64-2.78c-1-.33-1.9-.6-2.87-.88s-1.93-.51-2.93-.75l.57-2.94c7.05,1.09,11.93,2.1,12,2.11C395.92,635.86,412.6,653,414.77,676c.7,7.44,1.35,14.2,1.93,20,1.1,11.12,1.86,17.8,2.31,20.4.2,1.4.45,2.68.69,4,.16.85.33,1.7.48,2.58l.6,3.22,1.37,6c.05.22.1.47.15.71s.1.51.17.76l1.14,4c.45,2,1.6,5.15,2.79,6,.18.11.43.28.68.46a5.55,5.55,0,0,0,.91.57l2.17,1.2c.69.29,1.49.66,2.3,1.06a15.68,15.68,0,0,0,1.47.62l1,.4a92.7,92.7,0,0,0,11.47,3.63c7.07,1.8,7.07,26.94,5.51,40-1.08,9-4,24.22-11.68,24.3Zm-25.92-5.46c3.3.65,6.18,1.11,8.76,1.4a138.78,138.78,0,0,0,19.5,1c3.74,0,7.17-8.54,8.74-21.66,2.3-19.24-.32-36-3.25-36.74a95.73,95.73,0,0,1-11.87-3.76l-1-.38c-.61-.23-1.2-.47-1.73-.73-.75-.37-1.51-.72-2.29-1.06l-2.21-1.22a7.93,7.93,0,0,1-1.29-.81c-.18-.13-.36-.26-.55-.37-2.71-1.88-3.94-7.18-4.07-7.77l-1.13-4c-.08-.33-.15-.63-.21-.93s-.09-.44-.14-.65l-1.38-6-.62-3.32c-.15-.87-.31-1.7-.47-2.54-.25-1.32-.51-2.64-.71-4-.46-2.63-1.22-9.38-2.33-20.57-.58-5.84-1.23-12.6-1.94-20-1.91-20.32-15.91-35.75-37.77-42l.42.27h.17l.37.36,1,.66a31.44,31.44,0,0,1,6,5.68c.26.3.52.64.77,1a30.19,30.19,0,0,1,4,7.33c.1.24.2.51.3.79s.23.64.33,1,.25.76.37,1.21c.23.84.45,1.71.63,2.63.09.39.17.81.24,1.24s.13.77.2,1.19.13.85.17,1.29c1,8.43,5,14.52,9.15,21,3.67,5.64,7.46,11.48,9.39,19.17a37.59,37.59,0,0,1,.88,4.43c2.56,18.26-.5,25.75-4.73,36.11-1.62,4-3.46,8.48-5.23,14.24C397.18,757.77,398.55,770.8,411.93,810.46Z"/><path class="cls-4" d="M216.9,738.31l.22,3.74,3.9,62.75,1.67,89,213.55-13.27s-14.07-35.15-25.45-68.76c-8.82-26.07-16-51.22-13.83-58.38,6.36-20.69,13.4-24.84,9.91-49.7a36.31,36.31,0,0,0-.85-4.27c-4-16.11-16.62-24-18.57-40.34-2-17.15-12.86-25.63-29.59-29.49-8.52-2-18.57-2.72-29.78-2.79-.71,0-1.43,0-2.15,0h-1.47c-3,0-6.09.06-9.25.15l-1.28.09c-2,.18-6.15.6-11.84,1.56a2.54,2.54,0,0,0-.33.06C216.06,629.13,213.57,685,216.9,738.31Z"/><path d="M221.22,895.39l-1.69-90.58L215.4,738.4c-1.95-31.17-2.29-66.27,18.37-88.39,14.19-15.18,36.38-22.66,67.83-22.85l.26,0c4.16-.7,8.18-1.23,11.94-1.57l1.31-.09c3.11-.09,6.24-.14,9.35-.16,1.19,0,2.46,0,3.66,0,12.27.08,22.12,1,30.08,2.83,19,4.38,28.77,14.15,30.75,30.77,1,8.45,5,14.53,9.15,21,3.67,5.64,7.46,11.48,9.39,19.17a37.59,37.59,0,0,1,.88,4.43c2.56,18.26-.5,25.75-4.73,36.11-1.62,4-3.46,8.48-5.23,14.24-1.22,4,.18,17.16,13.82,57.46,11.24,33.19,25.29,68.33,25.43,68.68l.77,1.93ZM325.93,628.28h-1.45c-3.1,0-6.21.07-9.23.15l-1.21.09c-3.65.33-7.6.85-11.69,1.54l-.57.08c-30.67.17-52.19,7.33-65.81,21.9-19.85,21.24-19.48,55.61-17.57,86.15h0l.22,3.74,3.9,62.74,1.64,87.51,209.93-13c-3.09-7.82-15-38.1-24.72-66.91-11.31-33.43-15.84-52.83-13.84-59.3,1.81-5.88,3.68-10.46,5.32-14.49,4.21-10.29,7-17.1,4.54-34.56a34.72,34.72,0,0,0-.82-4.1c-1.81-7.23-5.46-12.85-9-18.28-4.19-6.45-8.52-13.11-9.61-22.26-1.81-15.19-10.84-24.15-28.44-28.2-7.74-1.77-17.37-2.67-29.45-2.75C327.35,628.28,326.64,628.28,325.93,628.28Z"/><path class="cls-5" d="M297.35,583.18l55.24,9.5-7.33,20.93,0,.07-2,5.77L341.29,625l-.41,1.15-2.26,5s-2.15,8.66-19.55,8.66-23.58-8.51-23.58-8.51Z"/><path d="M319.08,641.31c-18,0-24.52-8.75-24.79-9.13l-.31-.42,1.93-50.36L354.6,591.5l-12.3,35.13-2.26,5C339.63,633,336.36,641.31,319.08,641.31ZM297,630.78c1.41,1.55,7.79,7.53,22.06,7.53,15.82,0,18-7.23,18.1-7.54l.08-.23,2.26-5,11.08-31.66-51.81-8.91Z"/><path class="cls-5" d="M295.57,566.28c-1.22,26,13.06,47.38,38,54.81,19.06,5.69,33.78-2.3,56-50.4,10.91-23.58-18.83-48-44.79-49.2A47,47,0,0,0,295.57,566.28Z"/><path d="M343.46,624.21a36.25,36.25,0,0,1-10.36-1.69c-25.35-7.56-40.3-29.14-39-56.32h0A48.6,48.6,0,0,1,344.84,520c17.13.8,35.61,11.34,43.93,25.06,5.31,8.74,6,17.83,2.15,26.26C372,612.23,358.18,624.21,343.46,624.21Zm-46.39-57.87C295.86,592.08,310,612.5,334,619.65c17.42,5.2,31.88-1.25,54.24-49.59,4.38-9.46,1.33-18-2-23.45-7.84-12.93-25.3-22.86-41.51-23.62a45.59,45.59,0,0,0-47.63,43.36Z"/><path d="M336.73,634.22a7,7,0,0,0,1.89-3.07c.72-2.24,3.91-8.54,3.91-8.54s-29.83-3.51-36.78-23.44C305.76,599.17,300.45,623.72,336.73,634.22Z"/><path d="M294.81,555.22s58.61,19.5,90.05-11.94c0,0-20,22.7-33.82,20.28,0,0,19.61,6.08,33.82-16.23,0,0,3.94,20.52,14.14,24.71,0,0,9.32-57.16-39.93-64.26S297.19,532.67,294.81,555.22Z"/><path d="M399.61,565.44s-2.21,25.69-12.8,33.73S375,611.5,375,611.5s-.68-4.94,6.5-24.56,1.77-35.36,3.34-43.65S401.18,555.33,399.61,565.44Z"/><path d="M352.59,559.53s-4.19,2.09-19.4,4-13.88,12.93-13.6,17.11-5.23-6.46,0-17.49S324,547.92,324,547.92Z"/><path d="M324,559.33s-16.66,5.5-16.67,25.57,13.41,58.85-1.86,66.84c0,0,11.26-12.17-1.62-31.94s-15.53-59.4-3.82-85.21S324,559.33,324,559.33Z"/><path d="M324,510.61s5-20.11-24.67-23.54-25.86,69.21-46.77,72.25c0,0,2,12,21.3-5.32s23.58-49.44,40.69-39.17S324,510.61,324,510.61Z"/><path d="M287.1,717.93s5.46,58,61,82.76c0,0-43.49-7.05-55.81-33.24S287.1,717.93,287.1,717.93Z"/><path d="M342.94,839l-1.33-.08c-3.48-.2-85.64-5.45-109.58-52.32C208.24,740,217.23,684.43,217.33,683.87l3,.5c-.09.55-8.92,55.18,14.4,100.83,21.55,42.18,94.95,49.71,105.76,50.59L346.39,802c-6.94-1-34.22-6.11-50.65-26.82-10.24-12.89-14.15-29.31-11.64-48.8l3,.38c-2.4,18.64,1.3,34.3,11,46.53,17.74,22.37,49.9,25.89,50.22,25.92l1.6.16Z"/><path d="M341.69,837.39s-112.18,16-122.79-46.44c0,0-3.67-71.11-1.88-70.34,1.41.6,1.18,69.47,43.49,93.11S341.69,837.39,341.69,837.39Z"/><path class="cls-5" d="M425.16,837.44l-83.47-.06A7,7,0,0,1,346.2,839a4.89,4.89,0,0,1,1.87,3.78c0,3-2.88,5.37-6.39,5.37l171.65.11c3.51,0,6.38-2.41,6.39-5.37a5,5,0,0,0-1.87-3.78,7,7,0,0,0-4.51-1.58Z"/><path d="M513.34,849.73h0l-171.65-.11h0v-3h0a5.48,5.48,0,0,0,3.54-1.22,3.47,3.47,0,0,0,1.34-2.64,3.41,3.41,0,0,0-1.33-2.62,5.48,5.48,0,0,0-3.54-1.23h0v-3h0l171.65.11a8.49,8.49,0,0,1,5.47,1.93,6.26,6.26,0,0,1,0,9.87A8.49,8.49,0,0,1,513.34,849.73ZM348.2,846.62l165.13.11h0a5.49,5.49,0,0,0,3.54-1.22,3.27,3.27,0,0,0,0-5.28,5.49,5.49,0,0,0-3.54-1.23l-165.12-.11a6.16,6.16,0,0,1,0,7.73Z"/><path class="cls-5" d="M248.11,837.32a5.36,5.36,0,0,0,0,10.73l94.66.06a5.39,5.39,0,0,0,5.37-5.37,5.27,5.27,0,0,0-1.57-3.78,5.36,5.36,0,0,0-3.79-1.58l-92.67-.06Z"/><path d="M342.77,849.61h0l-94.66-.06a6.88,6.88,0,0,1-6.87-6.88,6.88,6.88,0,0,1,6.87-6.85h0l94.66.06a6.83,6.83,0,0,1,4.85,2,6.74,6.74,0,0,1,2,4.84,6.89,6.89,0,0,1-6.87,6.87Zm-94.65-10.79a3.86,3.86,0,0,0-2.74,6.59,3.89,3.89,0,0,0,2.73,1.14l94.66.06h0a3.89,3.89,0,0,0,3.87-3.87,3.77,3.77,0,0,0-1.13-2.71,3.85,3.85,0,0,0-2.74-1.15l-94.66-.06Z"/><path class="cls-4" d="M337.11,834.58a7.56,7.56,0,0,0,5.87,2.81h6.77a7.57,7.57,0,0,1-7.39-9.14l22.49-107.16a7.64,7.64,0,0,1,7.44-6h-6.77a7.64,7.64,0,0,0-7.44,6L335.59,828.25A7.51,7.51,0,0,0,337.11,834.58Z"/><path d="M349.74,838.89H343a9.06,9.06,0,0,1-7-3.36h0a9,9,0,0,1-1.82-7.58l22.49-107.16a9.15,9.15,0,0,1,8.9-7.21h6.77v3h0a6.13,6.13,0,0,0-6,4.83L343.82,828.56a6.07,6.07,0,0,0,5.92,7.33Zm-11.47-5.26a6.07,6.07,0,0,0,4.71,2.25h0l-.3-.35a9,9,0,0,1-1.83-7.59l22.49-107.16a9.06,9.06,0,0,1,2.17-4.22h0a6.14,6.14,0,0,0-6,4.83L337.05,828.55A6.05,6.05,0,0,0,338.27,833.63Z"/><path class="cls-5" d="M343.88,834.58a7.56,7.56,0,0,0,5.87,2.81l162.9.11a7.64,7.64,0,0,0,7.44-6l22.49-107.16a7.59,7.59,0,0,0-7.41-9.14l-162.88-.11a7.64,7.64,0,0,0-7.44,6L342.35,828.25A7.51,7.51,0,0,0,343.88,834.58Z"/><path d="M512.65,839h0l-162.9-.11a9.06,9.06,0,0,1-7-3.36h0a9,9,0,0,1-1.82-7.58l22.49-107.16a9.15,9.15,0,0,1,8.9-7.21h0l162.88.11a9,9,0,0,1,7,3.36,9.11,9.11,0,0,1,1.84,7.57L521.55,831.78A9.15,9.15,0,0,1,512.65,839ZM345,833.63a6.07,6.07,0,0,0,4.7,2.25l162.9.11h0a6.14,6.14,0,0,0,6-4.83L541.1,724a6.12,6.12,0,0,0-1.24-5.08,6,6,0,0,0-4.7-2.25l-162.88-.11h0a6.13,6.13,0,0,0-6,4.83L343.82,828.56A6.05,6.05,0,0,0,345,833.63Z"/><circle class="cls-4" cx="442.46" cy="776.28" r="8.83"/><path d="M442.46,786.62h0a10.33,10.33,0,0,1,0-20.67h0a10.33,10.33,0,0,1,0,20.67Zm0-17.67a7.33,7.33,0,0,0,0,14.67h0a7.33,7.33,0,0,0,0-14.67Z"/><path class="cls-5" d="M525.38,1127.75s3.5,21,10,21.5H464.54l-1-21.5Z"/><path d="M535.37,1150.75H463.1l-1.09-24.5h64.63l.21,1.25c1.37,8.24,5,20,8.63,20.25Zm-69.4-3H530.7c-3.74-4.9-5.82-14.44-6.57-18.5h-59Z"/><path class="cls-4" d="M556.9,1154.69l-17.06-4.32a14.42,14.42,0,0,1-8.64-6.26l-4-8.34L498.76,1149,464,1137.11l.26,6,18.53,5.88H464.3a5.59,5.59,0,0,0-5.59,5.59v8.51a6,6,0,0,0,6,6h21.17l5.18-7.86,10,7.86h66.56a1.93,1.93,0,0,0,1.84-2.52h0A17.75,17.75,0,0,0,556.9,1154.69Z"/><path d="M567.61,1170.52H500.53l-9.15-7.17-4.73,7.17h-22a7.47,7.47,0,0,1-7.46-7.46v-8.51a7.1,7.1,0,0,1,7.09-7.09h8.81l-10.3-3.27-.41-9.21,36.27,12.36,29.22-13.56,4.61,9.59a12.87,12.87,0,0,0,7.7,5.54l17.06,4.32A19.14,19.14,0,0,1,570.88,1166a3.43,3.43,0,0,1-3.27,4.48Zm-66-3h66a.44.44,0,0,0,.41-.57,16.16,16.16,0,0,0-11.49-10.81l-17.06-4.32a15.87,15.87,0,0,1-9.54-6.92l-.08-.15-3.36-7-27.63,12.83-33.25-11.33.12,2.72,26.76,8.49H464.3a4.1,4.1,0,0,0-4.09,4.09v8.51a4.46,4.46,0,0,0,4.46,4.46H485l5.64-8.54Z"/><path class="cls-5" d="M495.79,965.37l34.48,162.38h-70L403.6,956.16s20.32-9.27,49-21.44S488.5,947.34,495.79,965.37Z"/><path d="M532.13,1129.25H459.21l-57.45-173.9,1.22-.56c.2-.09,20.67-9.42,49-21.45,9-3.83,16.55-4.39,23-1.69,10.92,4.58,16.09,17.7,20.65,29.28.52,1.32,1,2.62,1.54,3.88l.08.25Zm-70.75-3h67L494.35,965.81c-.5-1.23-1-2.5-1.5-3.79-4.34-11-9.26-23.52-19-27.61-5.64-2.37-12.39-1.82-20.64,1.69-24.39,10.35-42.93,18.69-47.74,20.87Z"/><path class="cls-4" d="M532,1114.77H456.26a6.51,6.51,0,0,0-6.49,6.49h0a6.51,6.51,0,0,0,6.49,6.49H532a6.51,6.51,0,0,0,6.49-6.49h0A6.51,6.51,0,0,0,532,1114.77Z"/><path d="M532,1129.25H456.26a8,8,0,0,1,0-16H532a8,8,0,0,1,0,16Zm-75.72-13a5,5,0,0,0,0,10H532a5,5,0,0,0,0-10Z"/><polygon points="445.2 937.55 511.56 1039.62 500.78 988.84 445.2 937.55"/><polygon class="cls-4" points="354.22 1012.23 8.47 1012.23 177.77 950.32 523.52 950.32 354.22 1012.23"/><path d="M354.49,1013.73H0l177.5-64.91H532Zm-337.55-3H354l161.1-58.91H178Z"/><polygon points="354.22 1330.79 8.47 1330.79 177.77 1268.88 523.52 1268.88 354.22 1330.79"/><path d="M354.49,1332.29H0l177.5-64.91H532Zm-337.55-3H354l161.1-58.91H178Z"/><rect class="cls-5" x="8.47" y="1012.23" width="340.16" height="318.56"/><path d="M350.13,1332.29H7V1010.73H350.13Zm-340.16-3H347.13V1013.73H10Z"/><polygon class="cls-3" points="523.52 950.32 523.52 1268.88 348.63 1330.79 348.63 1012.23 523.52 950.32"/><path d="M347.13,1332.91V1011.17l1-.35L525,948.2v321.74l-1,.35Zm3-319.62v315.38L522,1267.82V952.44Z"/><path class="cls-5" d="M642.45,1030.34s15.59,16.32,21.3,13.17l-59.17,38.93L592,1065Z"/><path d="M604.2,1084.48l-14.36-19.84,52.81-36.26.88.92c6,6.24,16.29,14.67,19.49,12.9l1.55,2.57Zm-10.12-19.11,10.87,15,54.11-35.6c-6.11-2.12-13.74-9.41-16.8-12.51Z"/><path class="cls-4" d="M684.72,1036.22,668.1,1042a14.42,14.42,0,0,1-10.66-.48l-7.93-4.77L633,1063.39l-35.55,9.21,3.5,4.84,18.71-5.27-15.45,10.16a5.59,5.59,0,0,0-1.6,7.75l4.68,7.11a6,6,0,0,0,8.25,1.7l17.68-11.63v-9.41l12.7,1.05,55.61-36.58a1.93,1.93,0,0,0,.15-3.12h0A17.75,17.75,0,0,0,684.72,1036.22Z"/><path d="M612.29,1101.37A7.46,7.46,0,0,1,606,1098l-4.68-7.11a7.09,7.09,0,0,1,2-9.83l7.36-4.84-10.4,2.93-5.4-7.47,37.1-9.61,17-27.39,9.12,5.48a12.87,12.87,0,0,0,9.48.4l16.62-5.77a19.13,19.13,0,0,1,18.42,3.22,3.43,3.43,0,0,1-.27,5.54l-56,36.87-11.59-1v8.59l-18.36,12.08A7.41,7.41,0,0,1,612.29,1101.37Zm16.29-33.27L605,1083.58a4.09,4.09,0,0,0-1.17,5.67l4.68,7.11a4.46,4.46,0,0,0,6.17,1.27l17-11.19v-10.23l13.8,1.14,55.17-36.3a.44.44,0,0,0,0-.7,16.16,16.16,0,0,0-15.55-2.72h0l-16.62,5.77a15.82,15.82,0,0,1-11.77-.53l-.16-.08-6.66-4-16,25.9-34,8.81,1.6,2.21Z"/><path class="cls-5" d="M224.72,921.85h0c8.36,48.3,32.44,60.11,96.19,52.74,79.92-9.24,124.27-37,124.27-37L584,1065.6l59.34-42s-35.87-45.62-82.74-102C511,862,500.35,828.7,406.81,851.11c-57.73,13.83-102.13,14.62-143.94,24.16h0c-24.12,5.5-39.56,9.35-39.56,9.35A142.65,142.65,0,0,0,224.72,921.85Z"/><path d="M583.84,1067.53l-.89-.82L445,939.41c-7,4.09-51,28.24-123.91,36.66a268,268,0,0,1-30.42,2c-42.57,0-60.12-15.57-67.2-54.74h0l-.23-1.24a143.46,143.46,0,0,1-1.44-37.62l.1-1.06,1-.26c.15,0,15.73-3.91,39.58-9.35l.18,0c18.66-4.25,38-6.78,58.41-9.46,25.05-3.29,53.44-7,85.35-14.66,82.83-19.85,101.38,3.51,138.34,50,5.29,6.66,10.75,13.54,16.91,20.95,46.36,55.72,82.41,101.55,82.77,102l1,1.24ZM445.38,935.67l.84.78,137.87,127.23,57.06-40.42c-6.07-7.69-39.66-50.11-81.74-100.7-6.18-7.43-11.66-14.33-17-21-36.16-45.53-54.31-68.38-135.29-49-32.06,7.68-60.54,11.42-85.66,14.71-20.43,2.68-39.72,5.21-58.29,9.45l-.18,0c-20.25,4.62-34.48,8.1-38.32,9A140.51,140.51,0,0,0,226,920.35h0l.22,1.24c8.11,46.91,30.2,58.94,94.54,51.51C399.37,964,444,936.56,444.41,936.28Z"/><path class="cls-5" d="M224.72,921.85h0c49.48,3.15,38.13-46.58,38.13-46.58h0c-24.12,5.5-39.56,9.35-39.56,9.35A142.65,142.65,0,0,0,224.72,921.85Z"/><path d="M229.12,923.49q-2.18,0-4.48-.15l-1.18-.07-.22-1.17a143.46,143.46,0,0,1-1.44-37.62l.1-1.06,1-.26c.15,0,15.73-3.91,39.58-9.35l.33,0h1.2l.28,1.17c.22.95,5.17,23.41-6.89,37.59C251.24,919.81,241.73,923.49,229.12,923.49ZM226,920.41c13.29.62,23.07-2.69,29.14-9.82,9.41-11.05,7.39-28.39,6.54-33.52-19.53,4.47-33.23,7.81-37,8.74A140.46,140.46,0,0,0,226,920.41Z"/><path class="cls-4" d="M638.67,1017.07l-61.46,44.23a6.51,6.51,0,0,0-1.48,9.06h0a6.51,6.51,0,0,0,9.06,1.48l61.46-44.23a6.51,6.51,0,0,0,1.48-9.06h0A6.51,6.51,0,0,0,638.67,1017.07Z"/><path d="M581,1074.55a8.1,8.1,0,0,1-1.31-.11,8,8,0,0,1-3.38-14.36l61.46-44.23a8,8,0,0,1,9.33,13l-61.46,44.23A7.91,7.91,0,0,1,581,1074.55Zm58.52-56.27-61.46,44.23a5,5,0,0,0,5.83,8.1l61.46-44.23a5,5,0,0,0-5.83-8.1Z"/></g></g></g></g></svg>